#VRML V2.0 utf8
# 3D model generated by easyeda2kicad.py (https://github.com/uPesy/easyeda2kicad.py)

Shape{
    appearance Appearance {
        material  Material 	{
            diffuseColor 0.8274509803921568 0.6666666666666666 0.12941176470588237
            specularColor 0.8274509803921568 0.6666666666666666 0.12941176470588237
            ambientIntensity 0.2
            transparency 0
            shininess 0.5
        }
    }
    geometry IndexedFaceSet {
        ccw TRUE
        solid FALSE
        coord DEF co Coordinate {
            point [
                -1.063 -0.3543 0.0, -1.063 -0.6693 0.0, -1.063 -0.3543 0.0394, -1.063 -0.6693 0.0394, -0.748 -0.3543 0.0, -0.748 -0.3543 0.0394, -0.748 -0.6693 0.0, -0.748 -0.6693 0.0394, -0.2756 -0.3543 0.0, -0.2756 -0.6693 0.0, -0.2756 -0.3543 0.0394, -0.2756 -0.6693 0.0394, 0.0394 -0.3543 0.0, 0.0394 -0.3543 0.0394, 0.0394 -0.6693 0.0, 0.0394 -0.6693 0.0394, 0.748 -0.3543 0.0, 0.748 -0.6693 0.0, 0.748 -0.3543 0.0394, 0.748 -0.6693 0.0394, 1.063 -0.3543 0.0, 1.063 -0.3543 0.0394, 1.063 -0.6693 0.0, 1.063 -0.6693 0.0394, 0.748 0.6693 0.0, 0.748 0.3543 0.0, 0.748 0.6693 0.0394, 0.748 0.3543 0.0394, 1.063 0.6693 0.0, 1.063 0.6693 0.0394, 1.063 0.3543 0.0, 1.063 0.3543 0.0394, -0.2756 0.6693 0.0, -0.2756 0.3543 0.0, -0.2756 0.6693 0.0394, -0.2756 0.3543 0.0394, 0.0394 0.6693 0.0, 0.0394 0.6693 0.0394, 0.0394 0.3543 0.0, 0.0394 0.3543 0.0394, -1.063 0.6693 0.0, -1.063 0.3543 0.0, -1.063 0.6693 0.0394, -1.063 0.3543 0.0394, -0.748 0.6693 0.0, -0.748 0.6693 0.0394, -0.748 0.3543 0.0, -0.748 0.3543 0.0394, -0.748 0.3543 0.0394
            ]
        }
        coordIndex [
            0,1,2,-1,2,1,3,-1,4,5,6,-1,6,5,7,-1,3,1,7,-1,7,1,6,-1,2,5,0,-1,0,5,4,-1,6,1,4,-1,4,1,0,-1,7,5,3,-1,3,5,2,-1,8,9,10,-1,10,9,11,-1,12,13,14,-1,14,13,15,-1,11,9,15,-1,15,9,14,-1,10,13,8,-1,8,13,12,-1,14,9,12,-1,12,9,8,-1,15,13,11,-1,11,13,10,-1,16,17,18,-1,18,17,19,-1,20,21,22,-1,22,21,23,-1,19,17,23,-1,23,17,22,-1,18,21,16,-1,16,21,20,-1,22,17,20,-1,20,17,16,-1,23,21,19,-1,19,21,18,-1,24,25,26,-1,26,25,27,-1,28,29,30,-1,30,29,31,-1,27,25,31,-1,31,25,30,-1,26,29,24,-1,24,29,28,-1,30,25,28,-1,28,25,24,-1,31,29,27,-1,27,29,26,-1,32,33,34,-1,34,33,35,-1,36,37,38,-1,38,37,39,-1,35,33,39,-1,39,33,38,-1,34,37,32,-1,32,37,36,-1,38,33,36,-1,36,33,32,-1,39,37,35,-1,35,37,34,-1,40,41,42,-1,42,41,43,-1,44,45,46,-1,46,45,47,-1,43,41,47,-1,47,41,46,-1,42,45,40,-1,40,45,44,-1,46,41,44,-1,44,41,40,-1,47,45,43,-1,43,45,42,-1,
        ]
    }
}
Shape{
    appearance Appearance {
        material  Material 	{
            diffuseColor 0.20784313725490197 0.20784313725490197 0.20784313725490197
            specularColor 0.01568627450980392 0.01568627450980392 0.01568627450980392
            ambientIntensity 0.2
            transparency 0
            shininess 0.5
        }
    }
    geometry IndexedFaceSet {
        ccw TRUE
        solid FALSE
        coord DEF co Coordinate {
            point [
                0.6326 0.5816 0.2362, 0.6387 0.5761 0.2362, 0.6529 0.5834 0.2362, 0.5394 0.6127 0.2362, 0.5419 0.6184 0.2362, -0.1433 0.6184 0.2362, 0.8718 0.5409 0.2362, 0.871 0.5412 0.2362, 0.871 0.5406 0.2362, 0.8832 0.5408 0.2362, 0.8812 0.5406 0.2362, 0.8934 0.5406 0.2362, 0.9286 0.576 0.2362, 0.9147 0.5406 0.2362, 0.9319 0.5406 0.2362, -1.0896 -0.4969 0.2362, -1.0675 -0.4681 0.2362, -1.0675 -0.2599 0.2362, 0.8453 0.6678 0.2362, 0.849 0.6682 0.2362, 0.8266 0.6682 0.2362, 0.8934 0.6409 0.2362, 0.8802 0.6409 0.2362, 0.8934 0.6244 0.2362, 0.8802 0.6244 0.2362, 0.8991 0.6678 0.2362, 0.9049 0.6682 0.2362, 0.8934 0.6682 0.2362, 0.8977 0.6409 0.2362, 0.9002 0.6244 0.2362, 0.8977 0.6465 0.2362, 0.8991 0.6622 0.2362, 0.8934 0.6465 0.2362, 0.8934 0.6622 0.2362, 0.8802 0.6622 0.2362, 0.8802 0.6465 0.2362, 0.8739 0.6188 0.2362, 0.871 0.6184 0.2362, 0.8934 0.6184 0.2362, 0.9049 0.6184 0.2362, 0.9002 0.6188 0.2362, 0.8934 0.6188 0.2362, 0.871 0.6682 0.2362, 0.8739 0.6678 0.2362, 0.8934 0.6678 0.2362, 0.9638 0.6322 0.2362, 0.9591 0.6188 0.2362, 0.9663 0.6184 0.2362, 0.9508 0.6184 0.2362, 0.9521 0.6188 0.2362, 0.9508 0.6682 0.2362, 0.9663 0.6559 0.2362, 0.9663 0.6682 0.2362, 0.9663 0.6322 0.2362, 0.9892 0.6188 0.2362, 0.9842 0.6322 0.2362, 0.9776 0.6678 0.2362, 0.9962 0.6188 0.2362, 1.1811 0.6184 0.2362, 1.1811 0.6682 0.2362, 0.9708 0.6678 0.2362, 0.8577 0.6682 0.2362, 0.8588 0.6681 0.2362, 0.8661 0.6682 0.2362, 0.864 0.6666 0.2362, 0.864 0.66 0.2362, 0.864 0.6269 0.2362, 0.864 0.6208 0.2362, 0.8661 0.6184 0.2362, 0.8632 0.6204 0.2362, 0.8579 0.6187 0.2362, 0.8548 0.6184 0.2362, 0.8525 0.6629 0.2362, 0.8585 0.6622 0.2362, 0.8635 0.6603 0.2362, 0.8501 0.6628 0.2362, 0.8459 0.6619 0.2362, 0.8421 0.66 0.2362, 0.8348 0.6495 0.2362, 0.834 0.6428 0.2362, 0.8514 0.6236 0.2362, 0.8391 0.6575 0.2362, 0.8388 0.6571 0.2362, 0.8592 0.6247 0.2362, 0.8537 0.6237 0.2362, 0.8364 0.6537 0.2362, 0.8341 0.6404 0.2362, 0.8349 0.6356 0.2362, 0.8366 0.6318 0.2362, 0.8388 0.6288 0.2362, 0.8402 0.6274 0.2362, 0.8472 0.624 0.2362, 0.8436 0.6253 0.2362, 0.8661 0.7874 0.2362, 0.8524 0.6687 0.2362, 0.8266 0.7874 0.2362, 0.8422 0.6192 0.2362, 0.8376 0.6214 0.2362, 0.8266 0.6184 0.2362, 0.8336 0.6247 0.2362, 0.8332 0.6251 0.2362, 0.8303 0.6293 0.2362, 0.8285 0.6513 0.2362, 0.8309 0.6568 0.2362, 0.8344 0.6614 0.2362, 0.8356 0.6626 0.2362, 0.8402 0.6658 0.2362, 0.8283 0.6344 0.2362, 0.8273 0.6424 0.2362, 0.8274 0.6449 0.2362, 0.8462 0.6184 0.2362, 0.8266 0.5834 0.2362, 0.8475 0.6181 0.2362, 0.8505 0.618 0.2362, 0.8661 0.5834 0.2362, 0.9481 0.6351 0.2362, 0.9457 0.63 0.2362, 0.9319 0.6682 0.2362, 0.9319 0.6666 0.2362, 0.9369 0.6648 0.2362, 0.9319 0.6201 0.2362, 0.9319 0.6184 0.2362, 0.9369 0.622 0.2362, 0.942 0.6257 0.2362, 0.942 0.6613 0.2362, 0.9437 0.6596 0.2362, 0.9468 0.6554 0.2362, 0.9486 0.6507 0.2362, 0.9494 0.6439 0.2362, 0.9493 0.6408 0.2362, 0.9235 0.6678 0.2362, 0.931 0.667 0.2362, 0.9313 0.6198 0.2362, 0.923 0.6188 0.2362, 0.9095 0.6188 0.2362, 0.9095 0.6678 0.2362, 0.8463 0.5406 0.2362, 0.8661 0.5406 0.2362, 0.8537 0.541 0.2362, 0.8599 0.541 0.2362, 0.8392 0.5406 0.2362, 0.8368 0.5415 0.2362, 0.8266 0.5406 0.2362, 0.8347 0.543 0.2362, 0.8341 0.5436 0.2362, 0.8351 0.5676 0.2362, 0.8351 0.5736 0.2362, 0.8364 0.5743 0.2362, 0.8537 0.5464 0.2362, 0.8536 0.5464 0.2362, 0.8521 0.5443 0.2362, 0.8536 0.5757 0.2362, 0.8556 0.5745 0.2362, 0.8573 0.5729 0.2362, 0.8501 0.5424 0.2362, 0.8487 0.5416 0.2362, 0.8328 0.5455 0.2362, 0.832 0.5476 0.2362, 0.8317 0.5504 0.2362, 0.8487 0.5716 0.2362, 0.8466 0.5719 0.2362, 0.8433 0.5618 0.2362, 0.8318 0.5514 0.2362, 0.8322 0.554 0.2362, 0.8331 0.5561 0.2362, 0.8343 0.5579 0.2362, 0.8363 0.5595 0.2362, 0.839 0.5608 0.2362, 0.8394 0.5703 0.2362, 0.8432 0.5715 0.2362, 0.841 0.5761 0.2362, 0.8472 0.5768 0.2362, 0.8511 0.5765 0.2362, 0.8585 0.5709 0.2362, 0.8594 0.568 0.2362, 0.8599 0.5636 0.2362, 0.8537 0.5633 0.2362, 0.8535 0.566 0.2362, 0.8529 0.5682 0.2362, 0.8522 0.5694 0.2362, 0.8512 0.5704 0.2362, 0.8501 0.5711 0.2362, 0.8266 0.5212 0.2362, 0.8428 0.5402 0.2362, 0.8393 0.5406 0.2362, -0.8426 -0.4969 0.2362, -0.8283 -0.5313 0.2362, -0.1433 -0.2599 0.2362, -1.0675 -0.7874 0.2362, -1.003 -0.706 0.2362, -1.0374 -0.6917 0.2362, -1.0669 -0.4674 0.2362, -1.0374 -0.4447 0.2362, -1.003 -0.4305 0.2362, -0.8653 -0.4674 0.2362, -0.1433 -0.7874 0.2362, -0.9292 -0.706 0.2362, -0.9661 -0.7108 0.2362, -0.8235 -0.5682 0.2362, -0.8283 -0.6051 0.2362, -0.8426 -0.6395 0.2362, -0.8653 -0.6691 0.2362, -0.8948 -0.6917 0.2362, -0.9661 -0.4256 0.2362, -0.9292 -0.4305 0.2362, -0.8948 -0.4447 0.2362, -1.0669 -0.6691 0.2362, -1.0675 -0.6683 0.2362, -1.1811 -0.7874 0.2362, -1.0896 -0.6395 0.2362, -1.1038 -0.5313 0.2362, -1.1811 -0.2599 0.2362, -1.1087 -0.5682 0.2362, -1.1038 -0.6051 0.2362, 0.9709 0.541 0.2362, 0.9709 0.5834 0.2362, 0.9663 0.5834 0.2362, 0.9709 0.5901 0.2362, 1.0322 0.5901 0.2362, 1.039 0.5901 0.2362, 0.9849 0.5901 0.2362, 0.9924 0.5892 0.2362, 1.0082 0.5776 0.2362, 1.01 0.5729 0.2362, 1.0297 0.5834 0.2362, 1.0051 0.5819 0.2362, 1.0506 0.541 0.2362, 0.9663 0.5406 0.2362, 1.0576 0.541 0.2362, 1.1811 0.5406 0.2362, 1.0415 0.5834 0.2362, 1.1811 0.5834 0.2362, 0.9983 0.5871 0.2362, 1.0034 0.5836 0.2362, 1.0035 0.5834 0.2362, 1.007 0.5522 0.2362, 1.0034 0.5479 0.2362, 1.0135 0.541 0.2362, 0.9983 0.5442 0.2362, 0.9927 0.542 0.2362, 0.9844 0.541 0.2362, 1.0205 0.541 0.2362, 1.0252 0.5544 0.2362, 1.0456 0.5544 0.2362, 1.0108 0.5662 0.2362, 1.0106 0.563 0.2362, 1.0095 0.5573 0.2362, 0.911 0.5497 0.2362, 0.9118 0.5468 0.2362, 0.912 0.5468 0.2362, 0.9319 0.5834 0.2362, 0.9049 0.5834 0.2362, 0.9223 0.576 0.2362, 0.9049 0.5675 0.2362, 0.9127 0.5497 0.2362, 0.9122 0.548 0.2362, 0.9049 0.5406 0.2362, 0.9049 0.551 0.2362, 0.895 0.576 0.2362, 0.9088 0.5411 0.2362, 0.9086 0.5406 0.2362, 0.9061 0.5347 0.2362, 0.8934 0.5212 0.2362, 0.8963 0.525 0.2362, 0.8963 0.5305 0.2362, 0.9037 0.5312 0.2362, 0.9048 0.5325 0.2362, 0.9049 0.5325 0.2362, 0.9049 0.5256 0.2362, 0.9027 0.5248 0.2362, 0.9049 0.5212 0.2362, 0.9003 0.5245 0.2362, 0.8989 0.5246 0.2362, 0.8998 0.5298 0.2362, 0.9013 0.53 0.2362, 0.9027 0.5305 0.2362, 0.9127 0.5357 0.2362, 0.91 0.5303 0.2362, 0.9319 0.5212 0.2362, 0.9077 0.5276 0.2362, 0.9073 0.5272 0.2362, 0.9052 0.5257 0.2362, 0.8934 0.5834 0.2362, 0.8902 0.5753 0.2362, 0.8902 0.5693 0.2362, 0.8898 0.5563 0.2362, 0.8909 0.5546 0.2362, 0.8722 0.5741 0.2362, 0.8742 0.5753 0.2362, 0.871 0.5834 0.2362, 0.8916 0.5528 0.2362, 0.8918 0.5506 0.2362, 0.8915 0.5481 0.2362, 0.8908 0.5461 0.2362, 0.8896 0.5445 0.2362, 0.8776 0.5764 0.2362, 0.8819 0.5768 0.2362, 0.8862 0.5765 0.2362, 0.9019 0.576 0.2362, 0.8879 0.543 0.2362, 0.8864 0.5421 0.2362, 0.8813 0.5719 0.2362, 0.8794 0.5717 0.2362, 0.8745 0.5671 0.2362, 0.8778 0.5713 0.2362, 0.8764 0.5706 0.2362, 0.8746 0.5663 0.2362, 0.8748 0.5654 0.2362, 0.8753 0.5645 0.2362, 0.8759 0.5639 0.2362, 0.8781 0.5625 0.2362, 0.8851 0.5714 0.2362, 0.8819 0.5609 0.2362, 0.8886 0.5702 0.2362, 0.8842 0.5599 0.2362, 0.8883 0.5576 0.2362, 0.8755 0.5697 0.2362, 0.875 0.569 0.2362, 0.8747 0.5681 0.2362, 0.8682 0.5423 0.2362, 0.8682 0.5486 0.2362, 0.8682 0.5666 0.2362, 0.8685 0.5688 0.2362, 0.8692 0.5623 0.2362, 0.8685 0.5642 0.2362, 0.8692 0.5708 0.2362, 0.8703 0.5724 0.2362, 0.871 0.573 0.2362, 0.8707 0.547 0.2362, 0.871 0.5469 0.2362, 0.871 0.56 0.2362, 0.87 0.5611 0.2362, 0.871 0.56 0.2362, 0.8746 0.5456 0.2362, 0.8775 0.5564 0.2362, 0.8739 0.5581 0.2362, 0.8783 0.5452 0.2362, 0.8786 0.5452 0.2362, 0.8816 0.5547 0.2362, 0.8817 0.5456 0.2362, 0.8855 0.5499 0.2362, 0.8855 0.5507 0.2362, 0.8833 0.5461 0.2362, 0.8838 0.5465 0.2362, 0.8846 0.5471 0.2362, 0.8851 0.5479 0.2362, 0.8854 0.5488 0.2362, 0.8852 0.5517 0.2362, 0.8847 0.5525 0.2362, 0.8839 0.5533 0.2362, 0.871 0.5212 0.2362, 0.8777 0.5402 0.2362, 0.8742 0.5406 0.2362, 0.8975 0.5301 0.2362, 0.7487 0.6184 0.2362, 0.7794 0.6184 0.2362, 0.7464 0.6216 0.2362, 0.7794 0.6682 0.2362, 0.7369 0.6296 0.2362, 0.6927 0.6721 0.2362, 0.6983 0.6682 0.2362, 0.706 0.6629 0.2362, 0.7182 0.6485 0.2362, 0.7248 0.6353 0.2362, 0.7265 0.6347 0.2362, 0.6432 0.6793 0.2362, 0.6586 0.681 0.2362, 0.7794 0.7874 0.2362, 0.6754 0.6789 0.2362, 0.627 0.6735 0.2362, -0.1433 0.7874 0.2362, 0.6182 0.6682 0.2362, -0.1433 0.6682 0.2362, 0.6168 0.6674 0.2362, 0.545 0.6253 0.2362, 0.5533 0.636 0.2362, 0.5797 0.6511 0.2362, 0.5934 0.6527 0.2362, 0.6086 0.6604 0.2362, 0.5974 0.6525 0.2362, 0.6014 0.652 0.2362, 0.5557 0.6382 0.2362, 0.5668 0.646 0.2362, -0.1433 0.5834 0.2362, 0.5369 0.5963 0.2362, 0.537 0.5996 0.2362, 0.5623 0.5491 0.2362, 0.5516 0.5583 0.2362, -0.1433 0.5406 0.2362, 0.5749 0.5429 0.2362, 0.5436 0.5697 0.2362, 0.5386 0.5826 0.2362, 0.5385 0.5834 0.2362, 0.5795 0.5416 0.2362, 0.5799 0.5406 0.2362, 0.583 0.5341 0.2362, 0.5881 0.5277 0.2362, 0.627 0.5212 0.2362, 0.621 0.5189 0.2362, 0.7794 -0.2599 0.2362, 0.6126 0.5179 0.2362, 0.6112 0.5179 0.2362, 0.603 0.5192 0.2362, -0.1433 0.5212 0.2362, 0.5982 0.5212 0.2362, 0.595 0.5225 0.2362, 0.6452 0.5406 0.2362, 0.6452 0.5405 0.2362, 0.7794 0.5212 0.2362, 0.6411 0.5327 0.2362, 0.6357 0.5267 0.2362, 0.6288 0.5219 0.2362, 0.7794 0.5834 0.2362, 0.7585 0.5834 0.2362, 0.7577 0.5772 0.2362, 0.6898 0.5612 0.2362, 0.6921 0.5621 0.2362, 0.6962 0.582 0.2362, 0.7464 0.5565 0.2362, 0.7369 0.5485 0.2362, 0.7794 0.5406 0.2362, 0.6876 0.5597 0.2362, 0.6948 0.5625 0.2362, 0.6952 0.5624 0.2362, 0.6962 0.5622 0.2362, 0.7533 0.5662 0.2362, 0.684 0.5517 0.2362, 0.6841 0.553 0.2362, 0.6474 0.5562 0.2362, 0.6848 0.5557 0.2362, 0.6862 0.5581 0.2362, 0.7306 0.5709 0.2362, 0.7345 0.5763 0.2362, 0.6922 0.5412 0.2362, 0.6899 0.5421 0.2362, 0.6876 0.5437 0.2362, 0.6868 0.5445 0.2362, 0.6853 0.5467 0.2362, 0.6844 0.5491 0.2362, 0.6473 0.5491 0.2362, 0.6474 0.5527 0.2362, 0.7263 0.5433 0.2362, 0.7147 0.5409 0.2362, 0.6941 0.5409 0.2362, 0.6969 0.5621 0.2362, 0.7126 0.5621 0.2362, 0.7189 0.5633 0.2362, 0.725 0.5662 0.2362, 0.7302 0.5704 0.2362, 0.6168 0.5877 0.2362, 0.6252 0.5856 0.2362, 0.7073 0.6184 0.2362, 0.6126 0.5879 0.2362, 0.7369 0.5825 0.2362, 0.737 0.5834 0.2362, 0.6954 0.5834 0.2362, 0.7377 0.5893 0.2362, 0.7376 0.5924 0.2362, 0.6043 0.5869 0.2362, 0.5666 0.6184 0.2362, 0.5966 0.5839 0.2362, 0.5629 0.6132 0.2362, 0.5599 0.6054 0.2362, 0.5617 0.5834 0.2362, 0.5959 0.5834 0.2362, 0.5593 0.5916 0.2362, 0.5589 0.597 0.2362, 0.7286 0.6096 0.2362, 0.7232 0.6133 0.2362, 0.7359 0.599 0.2362, 0.7327 0.6051 0.2362, 0.7077 0.6165 0.2362, 0.6854 0.6005 0.2362, 0.7105 0.6165 0.2362, 0.7172 0.6157 0.2362, 0.6292 0.5834 0.2362, 0.5618 0.5831 0.2362, 0.5837 0.5724 0.2362, 0.5894 0.579 0.2362, 0.566 0.576 0.2362, 0.5722 0.5696 0.2362, 0.5798 0.5649 0.2362, 0.7002 0.6374 0.2362, 0.6924 0.6468 0.2362, 0.6122 0.6266 0.2362, 0.6915 0.6476 0.2362, 0.6817 0.6544 0.2362, 0.6176 0.6376 0.2362, 0.6097 0.628 0.2362, 0.7056 0.6262 0.2362, 0.6019 0.6308 0.2362, 0.5938 0.6318 0.2362, 0.5901 0.6316 0.2362, 0.6254 0.647 0.2362, 0.6708 0.6586 0.2362, 0.6347 0.6538 0.2362, 0.6589 0.6601 0.2362, 0.6461 0.6584 0.2362, 0.5815 0.6296 0.2362, 0.5738 0.6255 0.2362, 0.5678 0.6201 0.2362, 0.7535 0.6117 0.2362, 0.7577 0.601 0.2362, 0.7593 0.5897 0.2362, 0.9416 0.5631 0.2362, 0.9416 0.5466 0.2362, 0.9508 0.5466 0.2362, 0.9616 0.5466 0.2362, 0.9616 0.541 0.2362, 0.9508 0.5406 0.2362, 0.9591 0.5631 0.2362, 0.9508 0.5631 0.2362, 0.9416 0.5834 0.2362, 0.9416 0.5687 0.2362, 0.9508 0.5687 0.2362, 0.9416 0.5844 0.2362, 0.9508 0.5834 0.2362, 0.9591 0.5687 0.2362, 0.9353 0.541 0.2362, 0.9353 0.5834 0.2362, 0.9353 0.5901 0.2362, 0.9508 0.541 0.2362, 0.8058 0.5834 0.2362, 0.8058 0.5687 0.2362, 0.8256 0.5834 0.2362, 0.8233 0.5687 0.2362, 0.8233 0.5631 0.2362, 0.8058 0.5844 0.2362, 0.8247 0.5844 0.2362, 0.8247 0.5901 0.2362, 0.8256 0.6184 0.2362, 0.8256 0.5406 0.2362, 0.8256 0.541 0.2362, 0.7995 0.541 0.2362, 0.7995 0.5901 0.2362, 0.7995 0.5834 0.2362, 0.8258 0.541 0.2362, 0.8258 0.5466 0.2362, 0.8256 0.5466 0.2362, 0.871 0.7874 0.2362, 0.8934 0.7874 0.2362, 0.9049 0.7874 0.2362, 0.9319 0.7874 0.2362, 0.9508 0.7874 0.2362, 0.9663 0.7874 0.2362, 1.1811 0.7874 0.2362, 0.8256 0.6682 0.2362, 0.8256 0.7874 0.2362, 0.8253 0.6244 0.2362, 0.8253 0.6188 0.2362, 0.7995 0.6188 0.2362, 0.8058 0.6244 0.2362, 0.8058 0.6678 0.2362, 0.7995 0.6678 0.2362, 0.9508 0.5901 0.2362, 0.9605 0.5901 0.2362, 0.9605 0.5844 0.2362, 0.9508 0.5844 0.2362, 0.8058 0.5466 0.2362, 0.8058 0.5631 0.2362, 0.9508 0.5212 0.2362, 0.9663 0.5212 0.2362, 1.1811 0.5212 0.2362, 0.8661 0.5212 0.2362, 0.8256 0.5212 0.2362, 0.8256 -0.2599 0.2362, 0.8266 -0.2599 0.2362, 0.8661 -0.2599 0.2362, 0.871 -0.2599 0.2362, 0.8934 -0.2599 0.2362, 0.9049 -0.2599 0.2362, 0.9319 -0.2599 0.2362, 0.9508 -0.2599 0.2362, 0.9663 -0.2599 0.2362, 1.1811 -0.2599 0.2362, -0.841 -0.0244 0.2362, -0.8504 -0.0471 0.2362, -0.9987 -0.0666 0.2362, -1.0137 -0.0471 0.2362, -0.932 -0.0943 0.2362, -0.9564 -0.091 0.2362, -0.9792 -0.0816 0.2362, -1.0231 -0.0244 0.2362, -1.0263 0.0 0.2362, -1.0675 0.5212 0.2362, -1.0231 0.0244 0.2362, -1.0137 0.0471 0.2362, -0.9987 0.0666 0.2362, -0.9076 0.091 0.2362, -0.8849 0.0816 0.2362, -0.8654 0.0666 0.2362, -0.8654 -0.0666 0.2362, -0.8849 -0.0816 0.2362, -0.9076 -0.091 0.2362, -0.9792 0.0816 0.2362, -0.9564 0.091 0.2362, -0.932 0.0943 0.2362, -0.8504 0.0471 0.2362, -0.841 0.0244 0.2362, -0.8378 0.0 0.2362, -1.0675 0.5406 0.2362, -1.0675 0.5834 0.2362, -1.0675 0.6184 0.2362, -1.0675 0.6682 0.2362, -1.0675 0.7874 0.2362, -1.1811 0.7874 0.2362, -1.1811 0.6682 0.2362, -1.1811 0.6184 0.2362, -1.1811 0.5834 0.2362, -1.1811 0.5406 0.2362, -1.1811 0.5212 0.2362, 0.7794 -0.7874 0.2362, 0.8256 -0.7874 0.2362, 0.8266 -0.7874 0.2362, 0.8661 -0.7874 0.2362, 0.871 -0.7874 0.2362, 0.8934 -0.7874 0.2362, 0.9049 -0.7874 0.2362, 0.9319 -0.7874 0.2362, 0.9508 -0.7874 0.2362, 0.9663 -0.7874 0.2362, 1.1811 -0.7874 0.2362, 1.1811 -0.7874 0.0394, -1.1811 -0.7874 0.0394, 1.1811 0.7874 0.0394, -1.1811 0.7874 0.0394, -1.0231 -0.0244 0.0394, -1.0137 -0.0471 0.0394, -0.8654 -0.0666 0.0394, -0.8504 -0.0471 0.0394, -1.0263 0.0 0.0394, -1.0231 0.0244 0.0394, -0.9987 -0.0666 0.0394, -0.9792 -0.0816 0.0394, -0.9564 -0.091 0.0394, -0.932 -0.0943 0.0394, -0.9076 -0.091 0.0394, -0.8849 -0.0816 0.0394, -0.841 -0.0244 0.0394, -0.8378 -0.0 0.0394, -0.841 0.0244 0.0394, -0.8504 0.0471 0.0394, -0.9076 0.091 0.0394, -0.8849 0.0816 0.0394, -0.8654 0.0666 0.0394, -0.932 0.0943 0.0394, -0.9564 0.091 0.0394, -0.9792 0.0816 0.0394, -0.9987 0.0666 0.0394, -1.0137 0.0471 0.0394, -1.0137 0.0471 0.0394
            ]
        }
        coordIndex [
            0,1,2,-1,3,4,5,-1,6,7,8,-1,9,10,11,-1,12,13,14,-1,15,16,17,-1,18,19,20,-1,21,22,23,-1,23,22,24,-1,25,26,27,-1,21,23,28,-1,28,23,29,-1,28,29,30,-1,30,29,31,-1,30,31,32,-1,31,33,32,-1,32,33,34,-1,32,34,35,-1,36,37,38,-1,25,31,26,-1,26,31,29,-1,26,29,39,-1,39,29,40,-1,39,40,38,-1,38,40,41,-1,38,41,36,-1,42,43,27,-1,27,43,44,-1,27,44,25,-1,45,46,47,-1,47,46,48,-1,48,46,49,-1,48,49,50,-1,50,49,51,-1,50,51,52,-1,45,47,53,-1,53,47,54,-1,53,54,55,-1,56,57,58,-1,58,59,56,-1,56,59,52,-1,56,52,60,-1,60,52,51,-1,61,62,63,-1,63,62,64,-1,63,64,65,-1,66,67,68,-1,67,69,68,-1,68,69,70,-1,68,70,71,-1,72,66,73,-1,73,66,74,-1,72,75,66,-1,66,75,76,-1,66,76,77,-1,78,79,80,-1,77,81,66,-1,66,81,82,-1,66,82,83,-1,83,82,84,-1,84,82,80,-1,80,82,85,-1,80,85,78,-1,79,86,80,-1,80,86,87,-1,80,87,88,-1,88,89,80,-1,80,89,90,-1,80,90,91,-1,91,90,92,-1,93,94,61,-1,94,93,19,-1,19,93,95,-1,19,95,20,-1,96,97,98,-1,97,99,98,-1,98,99,100,-1,98,100,101,-1,102,103,20,-1,20,103,104,-1,104,105,20,-1,20,105,106,-1,20,106,18,-1,101,107,98,-1,98,107,108,-1,98,108,20,-1,20,108,109,-1,20,109,102,-1,96,98,110,-1,110,98,111,-1,110,111,112,-1,112,111,113,-1,113,111,114,-1,113,114,71,-1,115,116,48,-1,117,118,50,-1,50,118,119,-1,120,121,122,-1,122,121,48,-1,122,48,123,-1,123,48,116,-1,119,124,50,-1,50,124,125,-1,50,125,126,-1,126,127,50,-1,50,127,128,-1,50,128,48,-1,48,128,129,-1,48,129,115,-1,26,130,117,-1,117,130,131,-1,117,131,118,-1,120,132,121,-1,121,132,133,-1,121,133,39,-1,39,133,134,-1,39,134,26,-1,26,134,135,-1,26,135,130,-1,136,137,138,-1,138,137,139,-1,140,141,142,-1,142,141,143,-1,142,143,144,-1,142,145,111,-1,111,145,146,-1,111,146,147,-1,148,149,138,-1,138,149,150,-1,151,152,114,-1,114,152,153,-1,150,154,138,-1,138,154,155,-1,138,155,136,-1,144,156,142,-1,142,156,157,-1,142,157,158,-1,159,160,161,-1,158,162,142,-1,142,162,163,-1,142,163,145,-1,145,163,164,-1,145,164,165,-1,165,166,145,-1,145,166,167,-1,145,167,168,-1,168,167,161,-1,168,161,169,-1,169,161,160,-1,147,170,111,-1,111,170,171,-1,111,171,114,-1,114,171,172,-1,114,172,151,-1,153,173,114,-1,114,173,174,-1,114,174,175,-1,176,177,161,-1,161,177,178,-1,161,178,179,-1,179,180,161,-1,161,180,181,-1,161,181,159,-1,182,183,184,-1,185,186,187,-1,188,189,190,-1,16,191,17,-1,17,191,192,-1,17,192,193,-1,185,187,194,-1,195,196,188,-1,188,196,197,-1,188,197,189,-1,186,198,195,-1,195,198,199,-1,195,199,200,-1,200,201,195,-1,195,201,202,-1,195,202,196,-1,193,203,17,-1,17,203,204,-1,17,204,187,-1,187,204,205,-1,187,205,194,-1,190,206,188,-1,188,206,207,-1,188,207,208,-1,208,207,209,-1,210,211,212,-1,212,211,208,-1,212,208,213,-1,213,208,209,-1,214,215,216,-1,216,215,217,-1,216,217,47,-1,47,218,219,-1,217,220,47,-1,47,220,221,-1,47,221,218,-1,222,223,224,-1,222,224,225,-1,226,227,228,-1,228,227,229,-1,228,229,230,-1,230,229,231,-1,230,231,219,-1,219,231,58,-1,219,58,47,-1,47,58,57,-1,47,57,54,-1,221,232,218,-1,218,232,233,-1,218,233,224,-1,224,233,234,-1,224,234,225,-1,235,236,237,-1,237,236,238,-1,237,238,239,-1,239,240,237,-1,237,240,227,-1,237,227,241,-1,241,227,226,-1,241,226,242,-1,242,226,243,-1,223,244,224,-1,224,244,245,-1,224,245,237,-1,237,245,246,-1,237,246,235,-1,247,248,249,-1,250,251,252,-1,252,251,253,-1,252,253,254,-1,254,253,247,-1,254,247,255,-1,255,247,249,-1,256,257,11,-1,11,257,258,-1,259,257,260,-1,260,257,256,-1,260,256,261,-1,262,263,264,-1,265,266,256,-1,256,266,267,-1,256,267,261,-1,268,269,270,-1,270,269,271,-1,270,271,262,-1,262,271,272,-1,262,272,263,-1,273,274,256,-1,256,274,275,-1,256,275,265,-1,276,277,278,-1,276,278,13,-1,277,279,278,-1,278,279,280,-1,278,280,270,-1,270,280,281,-1,270,281,268,-1,282,283,284,-1,285,286,284,-1,287,288,289,-1,290,291,11,-1,291,292,11,-1,11,292,293,-1,11,293,294,-1,288,295,289,-1,289,295,296,-1,289,296,282,-1,282,296,297,-1,282,297,283,-1,286,290,284,-1,284,290,11,-1,284,11,282,-1,282,11,258,-1,282,258,251,-1,251,258,298,-1,251,298,253,-1,294,299,11,-1,11,299,300,-1,11,300,9,-1,301,302,303,-1,303,302,304,-1,303,304,305,-1,303,306,301,-1,301,306,307,-1,301,307,308,-1,308,309,301,-1,301,309,310,-1,301,310,311,-1,311,310,312,-1,311,312,313,-1,313,312,314,-1,313,314,284,-1,284,314,315,-1,284,315,285,-1,316,317,305,-1,305,317,318,-1,305,318,303,-1,8,7,137,-1,137,7,319,-1,137,319,320,-1,321,322,114,-1,323,324,320,-1,322,325,114,-1,114,325,326,-1,114,326,289,-1,289,326,327,-1,289,327,287,-1,328,329,330,-1,323,320,331,-1,324,321,320,-1,320,321,114,-1,320,114,137,-1,137,114,175,-1,137,175,139,-1,328,330,320,-1,320,330,332,-1,320,332,331,-1,333,334,329,-1,329,334,335,-1,329,335,330,-1,333,336,334,-1,334,336,337,-1,334,337,338,-1,338,337,339,-1,338,340,341,-1,339,342,338,-1,338,342,343,-1,338,343,344,-1,344,345,338,-1,338,345,346,-1,338,346,340,-1,341,347,338,-1,338,347,348,-1,338,348,349,-1,350,351,352,-1,351,350,10,-1,10,350,262,-1,10,262,11,-1,11,262,264,-1,11,264,256,-1,256,264,353,-1,256,353,273,-1,354,355,356,-1,356,355,357,-1,356,357,358,-1,359,360,357,-1,357,360,361,-1,357,361,362,-1,362,363,357,-1,357,363,364,-1,357,364,358,-1,365,366,367,-1,367,366,368,-1,367,368,359,-1,365,367,369,-1,369,367,370,-1,369,370,371,-1,371,370,372,-1,371,372,373,-1,5,4,372,-1,372,4,374,-1,372,374,375,-1,372,376,373,-1,373,376,377,-1,373,377,378,-1,378,377,379,-1,378,379,380,-1,375,381,372,-1,372,381,382,-1,372,382,376,-1,383,384,5,-1,5,384,385,-1,5,385,3,-1,386,387,388,-1,386,388,389,-1,387,390,388,-1,388,390,391,-1,388,391,383,-1,383,391,392,-1,383,392,384,-1,393,389,394,-1,394,389,388,-1,394,388,395,-1,395,388,396,-1,397,398,399,-1,399,398,400,-1,399,400,187,-1,400,401,187,-1,187,401,402,-1,187,402,403,-1,403,402,404,-1,403,404,388,-1,388,404,405,-1,388,405,396,-1,406,407,408,-1,408,407,409,-1,409,410,408,-1,408,410,411,-1,408,411,397,-1,412,413,414,-1,415,416,417,-1,418,419,420,-1,415,417,421,-1,416,422,417,-1,417,422,423,-1,417,423,424,-1,412,414,420,-1,420,414,425,-1,420,425,418,-1,426,427,428,-1,428,427,429,-1,428,429,417,-1,417,429,430,-1,417,430,421,-1,417,431,432,-1,433,434,406,-1,406,434,435,-1,406,435,436,-1,436,437,406,-1,406,437,438,-1,406,438,439,-1,439,438,426,-1,439,426,440,-1,440,426,428,-1,419,441,420,-1,420,441,442,-1,420,442,406,-1,406,442,443,-1,406,443,433,-1,424,444,417,-1,417,444,445,-1,417,445,446,-1,446,447,417,-1,417,447,448,-1,417,448,431,-1,449,450,451,-1,449,451,452,-1,432,453,417,-1,417,453,454,-1,417,454,455,-1,455,454,456,-1,455,456,457,-1,458,459,460,-1,460,459,461,-1,460,461,462,-1,463,464,465,-1,465,464,460,-1,465,460,466,-1,466,460,462,-1,455,467,468,-1,457,469,455,-1,455,469,470,-1,455,470,467,-1,471,472,473,-1,473,472,455,-1,473,455,474,-1,474,455,468,-1,471,451,472,-1,472,451,450,-1,472,450,2,-1,2,450,475,-1,2,475,0,-1,476,477,463,-1,463,477,478,-1,463,478,464,-1,476,479,477,-1,477,479,480,-1,477,480,481,-1,482,483,484,-1,483,485,484,-1,484,485,486,-1,484,486,487,-1,459,484,488,-1,458,452,459,-1,459,452,451,-1,459,451,484,-1,484,451,489,-1,484,489,482,-1,488,490,459,-1,459,490,491,-1,459,491,492,-1,487,486,493,-1,493,486,494,-1,493,494,495,-1,495,494,496,-1,495,496,497,-1,498,499,492,-1,492,499,500,-1,492,500,459,-1,354,501,355,-1,355,501,502,-1,355,502,412,-1,412,502,503,-1,412,503,413,-1,504,505,506,-1,507,508,227,-1,227,508,509,-1,240,214,227,-1,227,214,216,-1,227,216,507,-1,507,216,510,-1,507,510,506,-1,506,510,511,-1,506,511,504,-1,512,513,514,-1,515,512,516,-1,516,512,514,-1,516,514,216,-1,216,514,517,-1,216,517,510,-1,518,519,250,-1,250,519,520,-1,508,521,509,-1,509,521,518,-1,509,518,14,-1,14,518,250,-1,14,250,12,-1,12,250,252,-1,522,523,524,-1,524,523,525,-1,524,525,526,-1,527,522,528,-1,528,522,524,-1,528,524,529,-1,529,524,530,-1,531,532,533,-1,534,355,535,-1,535,355,412,-1,535,412,533,-1,533,412,420,-1,533,420,531,-1,532,531,536,-1,536,531,142,-1,536,142,537,-1,537,142,111,-1,537,111,538,-1,61,63,93,-1,93,63,42,-1,93,42,539,-1,539,42,27,-1,539,27,540,-1,540,27,26,-1,540,26,541,-1,541,26,117,-1,541,117,542,-1,542,117,50,-1,542,50,543,-1,543,50,52,-1,543,52,544,-1,544,52,59,-1,544,59,545,-1,359,357,367,-1,367,357,546,-1,367,546,547,-1,74,66,65,-1,65,66,68,-1,65,68,63,-1,63,68,37,-1,63,37,42,-1,42,37,36,-1,42,36,43,-1,546,548,530,-1,530,548,549,-1,530,549,550,-1,551,548,552,-1,552,548,546,-1,552,546,553,-1,553,546,357,-1,553,357,550,-1,550,357,355,-1,550,355,530,-1,530,355,534,-1,530,534,529,-1,71,114,68,-1,68,114,289,-1,68,289,37,-1,37,289,282,-1,37,282,38,-1,38,282,251,-1,38,251,39,-1,39,251,250,-1,39,250,121,-1,121,250,520,-1,121,520,48,-1,48,520,554,-1,48,554,47,-1,47,554,555,-1,47,555,216,-1,216,555,556,-1,216,556,516,-1,516,556,557,-1,516,557,515,-1,95,547,20,-1,20,547,546,-1,20,546,98,-1,98,546,530,-1,98,530,111,-1,111,530,524,-1,111,524,538,-1,538,524,526,-1,538,526,558,-1,558,526,559,-1,13,278,14,-1,14,278,560,-1,14,560,509,-1,509,560,561,-1,509,561,227,-1,227,561,562,-1,227,562,229,-1,183,182,136,-1,136,182,563,-1,136,563,137,-1,137,563,350,-1,137,350,8,-1,8,350,352,-1,8,352,6,-1,406,408,420,-1,420,408,564,-1,420,564,531,-1,531,564,182,-1,531,182,142,-1,142,182,184,-1,142,184,140,-1,397,399,408,-1,408,399,565,-1,408,565,564,-1,564,565,566,-1,564,566,182,-1,182,566,567,-1,182,567,563,-1,563,567,568,-1,563,568,350,-1,350,568,569,-1,350,569,262,-1,262,569,570,-1,262,570,270,-1,270,570,571,-1,270,571,278,-1,278,571,572,-1,278,572,560,-1,560,572,573,-1,560,573,561,-1,561,573,574,-1,561,574,562,-1,575,576,187,-1,577,578,17,-1,579,580,17,-1,17,580,581,-1,17,581,577,-1,578,582,17,-1,17,582,583,-1,17,583,584,-1,583,585,584,-1,584,585,586,-1,584,586,587,-1,588,589,403,-1,403,589,590,-1,576,591,187,-1,187,591,592,-1,187,592,17,-1,17,592,593,-1,17,593,579,-1,587,594,584,-1,584,594,595,-1,584,595,596,-1,590,597,403,-1,403,597,598,-1,403,598,187,-1,187,598,599,-1,187,599,575,-1,596,588,584,-1,584,588,403,-1,584,403,600,-1,600,403,388,-1,600,388,601,-1,601,388,383,-1,601,383,602,-1,602,383,5,-1,602,5,603,-1,603,5,372,-1,603,372,604,-1,604,372,370,-1,604,605,603,-1,603,605,606,-1,603,606,602,-1,602,606,607,-1,602,607,601,-1,601,607,608,-1,601,608,600,-1,600,608,609,-1,600,609,584,-1,584,609,610,-1,584,610,17,-1,17,610,211,-1,17,211,15,-1,15,211,210,-1,186,195,187,-1,187,195,611,-1,187,611,399,-1,399,611,612,-1,399,612,565,-1,565,612,613,-1,565,613,566,-1,566,613,614,-1,566,614,567,-1,567,614,615,-1,567,615,568,-1,568,615,616,-1,568,616,569,-1,569,616,617,-1,569,617,570,-1,570,617,618,-1,570,618,571,-1,571,618,619,-1,571,619,572,-1,572,619,620,-1,572,620,573,-1,573,620,621,-1,573,621,574,-1,621,208,622,-1,622,208,623,-1,545,621,624,-1,624,621,622,-1,605,545,625,-1,625,545,624,-1,208,605,623,-1,623,605,625,-1,626,627,623,-1,622,628,629,-1,626,623,630,-1,630,623,625,-1,630,625,631,-1,627,632,623,-1,623,632,633,-1,623,633,634,-1,634,635,623,-1,623,635,636,-1,623,636,622,-1,622,636,637,-1,622,637,628,-1,629,638,622,-1,622,638,639,-1,622,639,624,-1,624,639,640,-1,624,640,641,-1,642,625,643,-1,643,625,624,-1,643,624,644,-1,644,624,641,-1,642,645,625,-1,625,645,646,-1,625,646,647,-1,647,648,625,-1,625,648,649,-1,625,649,631,-1,639,599,640,-1,640,599,598,-1,640,598,641,-1,641,598,597,-1,641,597,644,-1,644,597,590,-1,644,590,643,-1,643,590,589,-1,643,589,642,-1,642,589,588,-1,642,588,645,-1,645,588,596,-1,645,596,646,-1,646,596,595,-1,646,595,647,-1,647,595,594,-1,647,594,648,-1,648,594,587,-1,648,587,649,-1,649,587,586,-1,649,586,631,-1,631,586,585,-1,631,585,630,-1,630,585,583,-1,630,583,626,-1,626,583,582,-1,626,582,627,-1,627,582,578,-1,627,578,632,-1,632,578,577,-1,632,577,633,-1,633,577,581,-1,633,581,634,-1,634,581,580,-1,634,580,635,-1,635,580,579,-1,635,579,636,-1,636,579,593,-1,636,593,637,-1,637,593,592,-1,637,592,628,-1,628,592,591,-1,628,591,629,-1,629,591,576,-1,629,576,638,-1,638,576,575,-1,638,575,639,-1,639,575,599,-1,
        ]
    }
}
Shape{
    appearance Appearance {
        material  Material 	{
            diffuseColor 0.7019607843137254 0.7019607843137254 0.7019607843137254
            specularColor 0.050980392156862744 0.050980392156862744 0.050980392156862744
            ambientIntensity 0.2
            transparency 0
            shininess 0.5
        }
    }
    geometry IndexedFaceSet {
        ccw TRUE
        solid FALSE
        coord DEF co Coordinate {
            point [
                -0.8235 -0.5682 0.2323, -0.8235 -0.5682 0.2362, -0.8283 -0.5313 0.2323, -0.8283 -0.5313 0.2362, -0.8426 -0.4969 0.2323, -0.8426 -0.4969 0.2362, -0.8653 -0.4674 0.2323, -0.8653 -0.4674 0.2362, -0.8948 -0.4447 0.2323, -0.8948 -0.4447 0.2362, -0.9292 -0.4305 0.2323, -0.9292 -0.4305 0.2362, -0.9661 -0.4256 0.2323, -0.9661 -0.4256 0.2362, -1.003 -0.4305 0.2323, -1.003 -0.4305 0.2362, -1.0374 -0.4447 0.2323, -1.0374 -0.4447 0.2362, -1.0669 -0.4674 0.2323, -1.0669 -0.4674 0.2362, -1.0896 -0.4969 0.2323, -1.0896 -0.4969 0.2362, -1.1038 -0.5313 0.2323, -1.1038 -0.5313 0.2362, -1.1087 -0.5682 0.2323, -1.1087 -0.5682 0.2362, -1.1038 -0.6051 0.2323, -1.1038 -0.6051 0.2362, -1.0896 -0.6395 0.2323, -1.0896 -0.6395 0.2362, -1.0669 -0.6691 0.2323, -1.0669 -0.6691 0.2362, -1.0374 -0.6917 0.2323, -1.0374 -0.6917 0.2362, -1.003 -0.706 0.2323, -1.003 -0.706 0.2362, -0.9661 -0.7108 0.2323, -0.9661 -0.7108 0.2362, -0.9292 -0.706 0.2323, -0.9292 -0.706 0.2362, -0.8948 -0.6917 0.2323, -0.8948 -0.6917 0.2362, -0.8653 -0.6691 0.2323, -0.8653 -0.6691 0.2362, -0.8426 -0.6395 0.2323, -0.8426 -0.6395 0.2362, -0.8283 -0.6051 0.2323, -0.8283 -0.6051 0.2362, -0.9661 -0.5682 0.2323, -0.9661 -0.5682 0.2323
            ]
        }
        coordIndex [
            0,1,2,-1,2,1,3,-1,2,3,4,-1,4,3,5,-1,4,5,6,-1,6,5,7,-1,6,7,8,-1,8,7,9,-1,8,9,10,-1,10,9,11,-1,10,11,12,-1,12,11,13,-1,12,13,14,-1,14,13,15,-1,14,15,16,-1,16,15,17,-1,16,17,18,-1,18,17,19,-1,18,19,20,-1,20,19,21,-1,20,21,22,-1,22,21,23,-1,22,23,24,-1,24,23,25,-1,24,25,26,-1,26,25,27,-1,26,27,28,-1,28,27,29,-1,28,29,30,-1,30,29,31,-1,30,31,32,-1,32,31,33,-1,32,33,34,-1,34,33,35,-1,34,35,36,-1,36,35,37,-1,36,37,38,-1,38,37,39,-1,38,39,40,-1,40,39,41,-1,40,41,42,-1,42,41,43,-1,42,43,44,-1,44,43,45,-1,44,45,46,-1,46,45,47,-1,46,47,0,-1,0,47,1,-1,44,46,48,-1,48,46,0,-1,48,0,2,-1,38,40,48,-1,48,40,42,-1,48,42,44,-1,32,34,48,-1,48,34,36,-1,48,36,38,-1,26,28,48,-1,48,28,30,-1,48,30,32,-1,20,22,48,-1,48,22,24,-1,48,24,26,-1,14,16,48,-1,48,16,18,-1,48,18,20,-1,8,10,48,-1,48,10,12,-1,48,12,14,-1,2,4,48,-1,48,4,6,-1,48,6,8,-1,
        ]
    }
}
Shape{
    appearance Appearance {
        material  Material 	{
            diffuseColor 1.0 1.0 1.0
            specularColor 0.5019607843137255 0.5019607843137255 0.5019607843137255
            ambientIntensity 0.2
            transparency 0
            shininess 0.5
        }
    }
    geometry IndexedFaceSet {
        ccw TRUE
        solid FALSE
        coord DEF co Coordinate {
            point [
                1.0034 0.5479 0.2402, 0.9983 0.5512 0.2402, 0.9983 0.5442 0.2402, 0.9952 0.549 0.2402, 0.9927 0.542 0.2402, 0.9911 0.5474 0.2402, 0.9844 0.541 0.2402, 0.9843 0.5466 0.2402, 0.9709 0.541 0.2402, 0.9772 0.5466 0.2402, 0.9709 0.5901 0.2402, 0.9772 0.5844 0.2402, 0.9849 0.5901 0.2402, 0.9846 0.5844 0.2402, 0.9852 0.5844 0.2402, 0.9924 0.5892 0.2402, 0.9915 0.5836 0.2402, 0.9983 0.5871 0.2402, 0.9956 0.582 0.2402, 1.0034 0.5836 0.2402, 0.9988 0.5798 0.2402, 1.0051 0.5819 0.2402, 1.0001 0.5785 0.2402, 1.0082 0.5776 0.2402, 1.002 0.5757 0.2402, 1.01 0.5729 0.2402, 1.0034 0.5721 0.2402, 1.0108 0.5662 0.2402, 1.0041 0.566 0.2402, 1.0106 0.563 0.2402, 1.0039 0.5625 0.2402, 1.0095 0.5573 0.2402, 1.0029 0.5581 0.2402, 1.007 0.5522 0.2402, 1.0012 0.5545 0.2402, 0.9989 0.5517 0.2402, 1.0034 0.5479 0.2362, 1.007 0.5522 0.2362, 1.0095 0.5573 0.2362, 1.0106 0.563 0.2362, 1.0108 0.5662 0.2362, 1.0034 0.5836 0.2362, 1.0035 0.5834 0.2362, 1.0051 0.5819 0.2362, 1.0082 0.5776 0.2362, 1.01 0.5729 0.2362, 0.9983 0.5871 0.2362, 0.9924 0.5892 0.2362, 0.9849 0.5901 0.2362, 0.9709 0.5901 0.2362, 0.9709 0.541 0.2362, 0.9709 0.5834 0.2362, 0.9844 0.541 0.2362, 0.9927 0.542 0.2362, 0.9983 0.5442 0.2362, 0.9988 0.5798 0.2362, 1.0001 0.5785 0.2362, 1.002 0.5757 0.2362, 1.0034 0.5721 0.2362, 1.0041 0.566 0.2362, 0.9846 0.5844 0.2362, 0.9852 0.5844 0.2362, 0.9915 0.5836 0.2362, 0.9956 0.582 0.2362, 0.9772 0.5844 0.2362, 0.9772 0.5466 0.2362, 0.9843 0.5466 0.2362, 0.9989 0.5517 0.2362, 0.9983 0.5512 0.2362, 0.9952 0.549 0.2362, 0.9911 0.5474 0.2362, 1.0039 0.5625 0.2362, 1.0029 0.5581 0.2362, 1.0012 0.5545 0.2362, 1.0012 0.5545 0.2362
            ]
        }
        coordIndex [
            0,1,2,-1,2,1,3,-1,2,3,4,-1,4,3,5,-1,4,5,6,-1,6,5,7,-1,6,7,8,-1,8,7,9,-1,8,9,10,-1,10,9,11,-1,10,11,12,-1,11,13,12,-1,12,13,14,-1,12,14,15,-1,15,14,16,-1,15,16,17,-1,17,16,18,-1,17,18,19,-1,19,18,20,-1,19,20,21,-1,21,20,22,-1,21,22,23,-1,23,22,24,-1,23,24,25,-1,25,24,26,-1,25,26,27,-1,27,26,28,-1,27,28,29,-1,29,28,30,-1,29,30,31,-1,31,30,32,-1,31,32,33,-1,33,32,34,-1,33,34,0,-1,0,34,35,-1,0,35,1,-1,0,36,37,-1,0,37,33,-1,33,37,38,-1,33,38,31,-1,31,38,39,-1,31,39,29,-1,29,39,40,-1,29,40,27,-1,41,19,42,-1,42,19,21,-1,42,21,43,-1,43,21,23,-1,43,23,44,-1,44,23,25,-1,44,25,45,-1,45,25,27,-1,45,27,40,-1,19,41,46,-1,19,46,17,-1,17,46,47,-1,17,47,15,-1,15,47,48,-1,15,48,12,-1,10,12,49,-1,49,12,48,-1,50,8,51,-1,51,8,10,-1,51,10,49,-1,6,8,52,-1,52,8,50,-1,6,52,53,-1,6,53,4,-1,4,53,54,-1,4,54,2,-1,2,54,36,-1,2,36,0,-1,20,55,56,-1,20,56,22,-1,22,56,57,-1,22,57,24,-1,24,57,58,-1,24,58,26,-1,26,58,59,-1,26,59,28,-1,13,60,61,-1,13,61,14,-1,14,61,62,-1,14,62,16,-1,16,62,63,-1,16,63,18,-1,18,63,55,-1,18,55,20,-1,13,11,60,-1,60,11,64,-1,11,9,64,-1,64,9,65,-1,9,7,65,-1,65,7,66,-1,35,67,68,-1,35,68,1,-1,1,68,69,-1,1,69,3,-1,3,69,70,-1,3,70,5,-1,5,70,66,-1,5,66,7,-1,28,59,71,-1,28,71,30,-1,30,71,72,-1,30,72,32,-1,32,72,73,-1,32,73,34,-1,34,73,67,-1,34,67,35,-1,
        ]
    }
}
Shape{
    appearance Appearance {
        material  Material 	{
            diffuseColor 0.20784313725490197 0.20784313725490197 0.20784313725490197
            specularColor 0.01568627450980392 0.01568627450980392 0.01568627450980392
            ambientIntensity 0.2
            transparency 0
            shininess 0.5
        }
    }
    geometry IndexedFaceSet {
        ccw TRUE
        solid FALSE
        coord DEF co Coordinate {
            point [
                0.9952 0.549 0.2362, 0.9983 0.5512 0.2362, 0.9852 0.5844 0.2362, 0.9772 0.5844 0.2362, 0.9772 0.5466 0.2362, 0.9846 0.5844 0.2362, 0.9843 0.5466 0.2362, 0.9911 0.5474 0.2362, 0.9989 0.5517 0.2362, 1.0012 0.5545 0.2362, 1.0029 0.5581 0.2362, 1.0041 0.566 0.2362, 0.9988 0.5798 0.2362, 0.9956 0.582 0.2362, 1.0034 0.5721 0.2362, 1.002 0.5757 0.2362, 1.0001 0.5785 0.2362, 1.0039 0.5625 0.2362, 0.9915 0.5836 0.2362, 0.9915 0.5836 0.2362
            ]
        }
        coordIndex [
            0,1,2,-1,3,4,5,-1,5,4,6,-1,5,6,2,-1,2,6,7,-1,2,7,0,-1,1,8,2,-1,2,8,9,-1,2,9,10,-1,11,12,13,-1,14,15,11,-1,11,15,16,-1,11,16,12,-1,10,17,2,-1,2,17,11,-1,2,11,18,-1,18,11,13,-1,
        ]
    }
}
Shape{
    appearance Appearance {
        material  Material 	{
            diffuseColor 1.0 1.0 1.0
            specularColor 0.5019607843137255 0.5019607843137255 0.5019607843137255
            ambientIntensity 0.2
            transparency 0
            shininess 0.5
        }
    }
    geometry IndexedFaceSet {
        ccw TRUE
        solid FALSE
        coord DEF co Coordinate {
            point [
                0.9127 0.5497 0.2402, 0.9127 0.5497 0.2362, 0.9122 0.548 0.2362, 0.9122 0.548 0.2402, 0.912 0.5468 0.2362, 0.912 0.5468 0.2402, 0.9118 0.5468 0.2402, 0.9118 0.5468 0.2362, 0.911 0.5497 0.2402, 0.911 0.5497 0.2362, 0.9019 0.576 0.2402, 0.9049 0.5675 0.2362, 0.9019 0.576 0.2362, 0.895 0.576 0.2402, 0.895 0.576 0.2362, 0.9088 0.5411 0.2402, 0.9049 0.551 0.2362, 0.9088 0.5411 0.2362, 0.9061 0.5347 0.2362, 0.9061 0.5347 0.2402, 0.9086 0.5406 0.2362, 0.9049 0.5325 0.2362, 0.9048 0.5325 0.2402, 0.9048 0.5325 0.2362, 0.9037 0.5312 0.2362, 0.9037 0.5312 0.2402, 0.9027 0.5305 0.2362, 0.9027 0.5305 0.2402, 0.9013 0.53 0.2362, 0.9013 0.53 0.2402, 0.8998 0.5298 0.2362, 0.8998 0.5298 0.2402, 0.8975 0.5301 0.2362, 0.8975 0.5301 0.2402, 0.8963 0.5305 0.2362, 0.8963 0.5305 0.2402, 0.8963 0.525 0.2402, 0.8963 0.525 0.2362, 0.8989 0.5246 0.2362, 0.8989 0.5246 0.2402, 0.9003 0.5245 0.2362, 0.9003 0.5245 0.2402, 0.9027 0.5248 0.2362, 0.9027 0.5248 0.2402, 0.9049 0.5256 0.2362, 0.9052 0.5257 0.2402, 0.9052 0.5257 0.2362, 0.9073 0.5272 0.2362, 0.9073 0.5272 0.2402, 0.9077 0.5276 0.2362, 0.9077 0.5276 0.2402, 0.91 0.5303 0.2362, 0.91 0.5303 0.2402, 0.9127 0.5357 0.2362, 0.9127 0.5357 0.2402, 0.9286 0.576 0.2362, 0.9286 0.576 0.2402, 0.9147 0.5406 0.2362, 0.9223 0.576 0.2402, 0.9223 0.576 0.2362, 0.8777 0.5402 0.2362, 0.8812 0.5406 0.2362, 0.8777 0.5402 0.2402, 0.8832 0.5408 0.2402, 0.8832 0.5408 0.2362, 0.8864 0.5421 0.2362, 0.8864 0.5421 0.2402, 0.8879 0.543 0.2362, 0.8879 0.543 0.2402, 0.8896 0.5445 0.2362, 0.8896 0.5445 0.2402, 0.8908 0.5461 0.2362, 0.8908 0.5461 0.2402, 0.8915 0.5481 0.2362, 0.8915 0.5481 0.2402, 0.8918 0.5506 0.2362, 0.8918 0.5506 0.2402, 0.8916 0.5528 0.2362, 0.8916 0.5528 0.2402, 0.8909 0.5546 0.2362, 0.8909 0.5546 0.2402, 0.8898 0.5563 0.2362, 0.8898 0.5563 0.2402, 0.8883 0.5576 0.2362, 0.8883 0.5576 0.2402, 0.8842 0.5599 0.2362, 0.8842 0.5599 0.2402, 0.8819 0.5609 0.2362, 0.8819 0.5609 0.2402, 0.8781 0.5625 0.2362, 0.8781 0.5625 0.2402, 0.8759 0.5639 0.2362, 0.8759 0.5639 0.2402, 0.8753 0.5645 0.2362, 0.8753 0.5645 0.2402, 0.8748 0.5654 0.2362, 0.8748 0.5654 0.2402, 0.8746 0.5663 0.2362, 0.8746 0.5663 0.2402, 0.8745 0.5671 0.2362, 0.8745 0.5671 0.2402, 0.8747 0.5681 0.2362, 0.8747 0.5681 0.2402, 0.875 0.569 0.2362, 0.875 0.569 0.2402, 0.8755 0.5697 0.2362, 0.8755 0.5697 0.2402, 0.8764 0.5706 0.2362, 0.8764 0.5706 0.2402, 0.8778 0.5713 0.2362, 0.8778 0.5713 0.2402, 0.8794 0.5717 0.2362, 0.8794 0.5717 0.2402, 0.8813 0.5719 0.2362, 0.8813 0.5719 0.2402, 0.8851 0.5714 0.2362, 0.8851 0.5714 0.2402, 0.8886 0.5702 0.2362, 0.8886 0.5702 0.2402, 0.8902 0.5693 0.2362, 0.8902 0.5693 0.2402, 0.8902 0.5753 0.2402, 0.8902 0.5753 0.2362, 0.8862 0.5765 0.2362, 0.8862 0.5765 0.2402, 0.8819 0.5768 0.2362, 0.8819 0.5768 0.2402, 0.8776 0.5764 0.2362, 0.8776 0.5764 0.2402, 0.8742 0.5753 0.2362, 0.8742 0.5753 0.2402, 0.8722 0.5741 0.2362, 0.8722 0.5741 0.2402, 0.871 0.573 0.2362, 0.8703 0.5724 0.2402, 0.8703 0.5724 0.2362, 0.8692 0.5708 0.2362, 0.8692 0.5708 0.2402, 0.8685 0.5688 0.2362, 0.8685 0.5688 0.2402, 0.8682 0.5666 0.2362, 0.8682 0.5666 0.2402, 0.8685 0.5642 0.2362, 0.8685 0.5642 0.2402, 0.8692 0.5623 0.2362, 0.8692 0.5623 0.2402, 0.87 0.5611 0.2362, 0.87 0.5611 0.2402, 0.8775 0.5564 0.2362, 0.8775 0.5564 0.2402, 0.8739 0.5581 0.2402, 0.871 0.56 0.2362, 0.871 0.56 0.2402, 0.871 0.56 0.2362, 0.8739 0.5581 0.2362, 0.8816 0.5547 0.2362, 0.8816 0.5547 0.2402, 0.8839 0.5533 0.2362, 0.8839 0.5533 0.2402, 0.8847 0.5525 0.2362, 0.8847 0.5525 0.2402, 0.8852 0.5517 0.2362, 0.8852 0.5517 0.2402, 0.8855 0.5507 0.2362, 0.8855 0.5507 0.2402, 0.8855 0.5499 0.2362, 0.8855 0.5499 0.2402, 0.8854 0.5488 0.2362, 0.8854 0.5488 0.2402, 0.8851 0.5479 0.2362, 0.8851 0.5479 0.2402, 0.8846 0.5471 0.2362, 0.8846 0.5471 0.2402, 0.8838 0.5465 0.2362, 0.8838 0.5465 0.2402, 0.8833 0.5461 0.2362, 0.8833 0.5461 0.2402, 0.8817 0.5456 0.2362, 0.8817 0.5456 0.2402, 0.8786 0.5452 0.2362, 0.8786 0.5452 0.2402, 0.8783 0.5452 0.2362, 0.8783 0.5452 0.2402, 0.8682 0.5486 0.2362, 0.8682 0.5486 0.2402, 0.8707 0.547 0.2402, 0.8746 0.5456 0.2362, 0.8746 0.5456 0.2402, 0.871 0.5469 0.2362, 0.8707 0.547 0.2362, 0.8682 0.5423 0.2402, 0.8682 0.5423 0.2362, 0.871 0.5412 0.2362, 0.8718 0.5409 0.2402, 0.8742 0.5406 0.2362, 0.8718 0.5409 0.2362, 0.8537 0.541 0.2402, 0.8599 0.541 0.2402, 0.8537 0.5464 0.2402, 0.8599 0.5636 0.2402, 0.8455 0.5575 0.2402, 0.8537 0.5586 0.2402, 0.8537 0.5633 0.2402, 0.8383 0.5533 0.2402, 0.8388 0.5544 0.2402, 0.8343 0.5579 0.2402, 0.8536 0.5464 0.2402, 0.8503 0.5473 0.2402, 0.8521 0.5443 0.2402, 0.8486 0.5462 0.2402, 0.8363 0.5595 0.2402, 0.8537 0.5552 0.2402, 0.8594 0.568 0.2402, 0.8537 0.5548 0.2402, 0.8533 0.5521 0.2402, 0.8524 0.5499 0.2402, 0.8511 0.5481 0.2402, 0.8433 0.5618 0.2402, 0.8401 0.5558 0.2402, 0.8414 0.5565 0.2402, 0.8351 0.5736 0.2402, 0.8351 0.5676 0.2402, 0.8364 0.5743 0.2402, 0.8394 0.5703 0.2402, 0.841 0.5761 0.2402, 0.8432 0.5715 0.2402, 0.8472 0.5768 0.2402, 0.8466 0.5719 0.2402, 0.8511 0.5765 0.2402, 0.8487 0.5716 0.2402, 0.8536 0.5757 0.2402, 0.8501 0.5711 0.2402, 0.8556 0.5745 0.2402, 0.8512 0.5704 0.2402, 0.8573 0.5729 0.2402, 0.8522 0.5694 0.2402, 0.8585 0.5709 0.2402, 0.8529 0.5682 0.2402, 0.8535 0.566 0.2402, 0.8392 0.5473 0.2402, 0.8347 0.543 0.2402, 0.8397 0.5468 0.2402, 0.8368 0.5415 0.2402, 0.841 0.546 0.2402, 0.8392 0.5406 0.2402, 0.8423 0.5455 0.2402, 0.8428 0.5402 0.2402, 0.8444 0.5452 0.2402, 0.8463 0.5406 0.2402, 0.8467 0.5455 0.2402, 0.8487 0.5416 0.2402, 0.8501 0.5424 0.2402, 0.8396 0.5553 0.2402, 0.839 0.5608 0.2402, 0.8331 0.5561 0.2402, 0.8322 0.554 0.2402, 0.838 0.5519 0.2402, 0.8318 0.5514 0.2402, 0.838 0.5509 0.2402, 0.8317 0.5504 0.2402, 0.8381 0.5495 0.2402, 0.832 0.5476 0.2402, 0.8385 0.5484 0.2402, 0.8328 0.5455 0.2402, 0.8341 0.5436 0.2402, 0.8466 0.5719 0.2362, 0.8487 0.5716 0.2362, 0.8501 0.5711 0.2362, 0.8512 0.5704 0.2362, 0.8522 0.5694 0.2362, 0.8529 0.5682 0.2362, 0.8535 0.566 0.2362, 0.8537 0.5633 0.2362, 0.8433 0.5618 0.2362, 0.839 0.5608 0.2362, 0.8363 0.5595 0.2362, 0.8343 0.5579 0.2362, 0.8331 0.5561 0.2362, 0.8322 0.554 0.2362, 0.8318 0.5514 0.2362, 0.8317 0.5504 0.2362, 0.832 0.5476 0.2362, 0.8328 0.5455 0.2362, 0.8341 0.5436 0.2362, 0.8347 0.543 0.2362, 0.8428 0.5402 0.2362, 0.8393 0.5406 0.2362, 0.8392 0.5406 0.2362, 0.8368 0.5415 0.2362, 0.8463 0.5406 0.2362, 0.8487 0.5416 0.2362, 0.8501 0.5424 0.2362, 0.8521 0.5443 0.2362, 0.8536 0.5464 0.2362, 0.8537 0.5464 0.2362, 0.8537 0.541 0.2362, 0.8599 0.541 0.2362, 0.8599 0.5636 0.2362, 0.8594 0.568 0.2362, 0.8585 0.5709 0.2362, 0.8573 0.5729 0.2362, 0.8556 0.5745 0.2362, 0.8536 0.5757 0.2362, 0.8511 0.5765 0.2362, 0.8472 0.5768 0.2362, 0.841 0.5761 0.2362, 0.8364 0.5743 0.2362, 0.8351 0.5736 0.2362, 0.8351 0.5676 0.2362, 0.8394 0.5703 0.2362, 0.8432 0.5715 0.2362, 0.8511 0.5481 0.2362, 0.8503 0.5473 0.2362, 0.8486 0.5462 0.2362, 0.8467 0.5455 0.2362, 0.8444 0.5452 0.2362, 0.8537 0.5552 0.2362, 0.8537 0.5548 0.2362, 0.8533 0.5521 0.2362, 0.8524 0.5499 0.2362, 0.8537 0.5586 0.2362, 0.8455 0.5575 0.2362, 0.8396 0.5553 0.2362, 0.8401 0.5558 0.2362, 0.8414 0.5565 0.2362, 0.838 0.5509 0.2362, 0.838 0.5519 0.2362, 0.8383 0.5533 0.2362, 0.8388 0.5544 0.2362, 0.8397 0.5468 0.2362, 0.8392 0.5473 0.2362, 0.8385 0.5484 0.2362, 0.8381 0.5495 0.2362, 0.8423 0.5455 0.2362, 0.841 0.546 0.2362, 0.841 0.546 0.2362
            ]
        }
        coordIndex [
            0,1,2,-1,0,2,3,-1,3,2,4,-1,3,4,5,-1,6,5,7,-1,7,5,4,-1,8,6,9,-1,9,6,7,-1,8,9,10,-1,10,9,11,-1,10,11,12,-1,13,10,14,-1,14,10,12,-1,13,14,15,-1,15,14,16,-1,15,16,17,-1,18,19,20,-1,20,19,15,-1,20,15,17,-1,18,21,19,-1,19,21,22,-1,21,23,22,-1,22,23,24,-1,22,24,25,-1,25,24,26,-1,25,26,27,-1,27,26,28,-1,27,28,29,-1,29,28,30,-1,29,30,31,-1,31,30,32,-1,31,32,33,-1,33,32,34,-1,33,34,35,-1,36,35,37,-1,37,35,34,-1,36,37,38,-1,36,38,39,-1,39,38,40,-1,39,40,41,-1,41,40,42,-1,41,42,43,-1,43,42,44,-1,43,44,45,-1,44,46,45,-1,45,46,47,-1,45,47,48,-1,48,47,49,-1,48,49,50,-1,50,49,51,-1,50,51,52,-1,52,51,53,-1,52,53,54,-1,55,56,57,-1,57,56,54,-1,57,54,53,-1,58,56,59,-1,59,56,55,-1,0,58,1,-1,1,58,59,-1,3,5,54,-1,56,58,54,-1,54,58,0,-1,54,0,3,-1,10,13,8,-1,8,13,15,-1,8,15,6,-1,35,36,33,-1,33,36,39,-1,33,39,31,-1,31,39,41,-1,31,41,29,-1,29,41,43,-1,29,43,27,-1,27,43,45,-1,27,45,25,-1,5,6,54,-1,54,6,15,-1,54,15,52,-1,15,19,52,-1,52,19,22,-1,52,22,50,-1,50,22,25,-1,50,25,48,-1,48,25,45,-1,60,61,62,-1,62,61,63,-1,61,64,63,-1,63,64,65,-1,63,65,66,-1,66,65,67,-1,66,67,68,-1,68,67,69,-1,68,69,70,-1,70,69,71,-1,70,71,72,-1,72,71,73,-1,72,73,74,-1,74,73,75,-1,74,75,76,-1,76,75,77,-1,76,77,78,-1,78,77,79,-1,78,79,80,-1,80,79,81,-1,80,81,82,-1,82,81,83,-1,82,83,84,-1,84,83,85,-1,84,85,86,-1,86,85,87,-1,86,87,88,-1,88,87,89,-1,88,89,90,-1,90,89,91,-1,90,91,92,-1,92,91,93,-1,92,93,94,-1,94,93,95,-1,94,95,96,-1,96,95,97,-1,96,97,98,-1,98,97,99,-1,98,99,100,-1,100,99,101,-1,100,101,102,-1,102,101,103,-1,102,103,104,-1,104,103,105,-1,104,105,106,-1,106,105,107,-1,106,107,108,-1,108,107,109,-1,108,109,110,-1,110,109,111,-1,110,111,112,-1,112,111,113,-1,112,113,114,-1,114,113,115,-1,114,115,116,-1,116,115,117,-1,116,117,118,-1,118,117,119,-1,118,119,120,-1,121,120,122,-1,122,120,119,-1,121,122,123,-1,121,123,124,-1,124,123,125,-1,124,125,126,-1,126,125,127,-1,126,127,128,-1,128,127,129,-1,128,129,130,-1,130,129,131,-1,130,131,132,-1,131,133,132,-1,132,133,134,-1,133,135,134,-1,134,135,136,-1,134,136,137,-1,137,136,138,-1,137,138,139,-1,139,138,140,-1,139,140,141,-1,141,140,142,-1,141,142,143,-1,143,142,144,-1,143,144,145,-1,145,144,146,-1,145,146,147,-1,148,149,150,-1,147,146,151,-1,147,151,152,-1,152,151,153,-1,152,153,150,-1,150,153,154,-1,150,154,148,-1,149,148,155,-1,149,155,156,-1,156,155,157,-1,156,157,158,-1,158,157,159,-1,158,159,160,-1,160,159,161,-1,160,161,162,-1,162,161,163,-1,162,163,164,-1,164,163,165,-1,164,165,166,-1,166,165,167,-1,166,167,168,-1,168,167,169,-1,168,169,170,-1,170,169,171,-1,170,171,172,-1,172,171,173,-1,172,173,174,-1,174,173,175,-1,174,175,176,-1,176,175,177,-1,176,177,178,-1,178,177,179,-1,178,179,180,-1,180,179,181,-1,180,181,182,-1,183,184,185,-1,182,181,186,-1,182,186,187,-1,187,186,188,-1,187,188,185,-1,185,188,189,-1,185,189,183,-1,190,184,191,-1,191,184,183,-1,191,192,190,-1,190,192,193,-1,60,62,194,-1,194,62,193,-1,194,193,195,-1,195,193,192,-1,106,108,130,-1,130,108,128,-1,156,88,149,-1,149,88,90,-1,66,68,172,-1,172,68,70,-1,172,70,170,-1,170,70,72,-1,170,72,168,-1,168,72,74,-1,168,74,166,-1,166,74,76,-1,166,76,164,-1,164,76,78,-1,164,78,162,-1,162,78,80,-1,162,80,160,-1,160,80,82,-1,160,82,158,-1,158,82,84,-1,158,84,156,-1,156,84,86,-1,156,86,88,-1,62,182,193,-1,193,182,187,-1,193,187,190,-1,190,187,185,-1,190,185,184,-1,108,110,128,-1,128,110,112,-1,128,112,126,-1,126,112,114,-1,126,114,124,-1,124,114,116,-1,124,116,121,-1,121,116,118,-1,121,118,120,-1,172,174,66,-1,66,174,176,-1,66,176,63,-1,63,176,178,-1,63,178,62,-1,62,178,180,-1,62,180,182,-1,130,132,106,-1,106,132,134,-1,106,134,104,-1,104,134,137,-1,104,137,102,-1,102,137,139,-1,102,139,100,-1,100,139,141,-1,100,141,98,-1,98,141,143,-1,98,143,96,-1,96,143,145,-1,96,145,94,-1,94,145,147,-1,94,147,92,-1,92,147,152,-1,92,152,90,-1,90,152,150,-1,90,150,149,-1,196,197,198,-1,198,197,199,-1,200,201,202,-1,203,204,205,-1,206,207,208,-1,208,207,209,-1,205,204,210,-1,211,199,201,-1,201,199,212,-1,201,212,202,-1,211,213,199,-1,199,213,214,-1,199,214,198,-1,198,214,215,-1,198,215,206,-1,206,215,216,-1,206,216,207,-1,217,218,202,-1,202,218,219,-1,202,219,200,-1,220,221,222,-1,222,221,223,-1,222,223,224,-1,224,223,225,-1,224,225,226,-1,226,225,227,-1,226,227,228,-1,228,227,229,-1,228,229,230,-1,230,229,231,-1,230,231,232,-1,232,231,233,-1,232,233,234,-1,234,233,235,-1,234,235,236,-1,236,235,237,-1,236,237,212,-1,212,237,238,-1,212,238,202,-1,239,240,241,-1,241,240,242,-1,241,242,243,-1,243,242,244,-1,243,244,245,-1,245,244,246,-1,245,246,247,-1,247,246,248,-1,247,248,249,-1,249,248,250,-1,249,250,209,-1,209,250,251,-1,209,251,208,-1,204,252,210,-1,210,252,218,-1,210,218,253,-1,253,218,217,-1,205,254,203,-1,203,254,255,-1,203,255,256,-1,256,255,257,-1,256,257,258,-1,258,257,259,-1,258,259,260,-1,260,259,261,-1,260,261,262,-1,262,261,263,-1,262,263,239,-1,239,263,264,-1,239,264,240,-1,227,265,266,-1,227,266,229,-1,229,266,267,-1,229,267,231,-1,231,267,268,-1,231,268,233,-1,233,268,269,-1,233,269,235,-1,235,269,270,-1,235,270,237,-1,237,270,271,-1,237,271,238,-1,238,271,272,-1,238,272,202,-1,217,202,273,-1,273,202,272,-1,217,273,274,-1,217,274,253,-1,253,274,275,-1,253,275,210,-1,210,275,276,-1,210,276,205,-1,205,276,277,-1,205,277,254,-1,254,277,278,-1,254,278,255,-1,255,278,279,-1,255,279,257,-1,257,279,280,-1,257,280,259,-1,259,280,281,-1,259,281,261,-1,261,281,282,-1,261,282,263,-1,263,282,283,-1,263,283,264,-1,264,283,284,-1,264,284,240,-1,285,246,286,-1,286,246,244,-1,286,244,287,-1,287,244,242,-1,287,242,288,-1,288,242,240,-1,288,240,284,-1,246,285,289,-1,246,289,248,-1,248,289,290,-1,248,290,250,-1,250,290,291,-1,250,291,251,-1,251,291,292,-1,251,292,208,-1,208,292,293,-1,208,293,206,-1,198,206,294,-1,294,206,293,-1,196,198,295,-1,295,198,294,-1,197,196,296,-1,296,196,295,-1,199,197,297,-1,297,197,296,-1,199,297,298,-1,199,298,212,-1,212,298,299,-1,212,299,236,-1,236,299,300,-1,236,300,234,-1,234,300,301,-1,234,301,232,-1,232,301,302,-1,232,302,230,-1,230,302,303,-1,230,303,228,-1,228,303,304,-1,228,304,226,-1,226,304,305,-1,226,305,224,-1,224,305,306,-1,224,306,222,-1,222,306,307,-1,222,307,220,-1,221,220,308,-1,308,220,307,-1,221,308,309,-1,221,309,223,-1,223,309,310,-1,223,310,225,-1,225,310,265,-1,225,265,227,-1,216,311,312,-1,216,312,207,-1,207,312,313,-1,207,313,209,-1,209,313,314,-1,209,314,249,-1,249,314,315,-1,249,315,247,-1,211,316,317,-1,211,317,213,-1,213,317,318,-1,213,318,214,-1,214,318,319,-1,214,319,215,-1,215,319,311,-1,215,311,216,-1,211,201,316,-1,316,201,320,-1,201,200,320,-1,320,200,321,-1,252,322,323,-1,252,323,218,-1,218,323,324,-1,218,324,219,-1,219,324,321,-1,219,321,200,-1,258,325,326,-1,258,326,256,-1,256,326,327,-1,256,327,203,-1,203,327,328,-1,203,328,204,-1,204,328,322,-1,204,322,252,-1,241,329,330,-1,241,330,239,-1,239,330,331,-1,239,331,262,-1,262,331,332,-1,262,332,260,-1,260,332,325,-1,260,325,258,-1,247,315,333,-1,247,333,245,-1,245,333,334,-1,245,334,243,-1,243,334,329,-1,243,329,241,-1,
        ]
    }
}
Shape{
    appearance Appearance {
        material  Material 	{
            diffuseColor 0.20784313725490197 0.20784313725490197 0.20784313725490197
            specularColor 0.01568627450980392 0.01568627450980392 0.01568627450980392
            ambientIntensity 0.2
            transparency 0
            shininess 0.5
        }
    }
    geometry IndexedFaceSet {
        ccw TRUE
        solid FALSE
        coord DEF co Coordinate {
            point [
                0.8537 0.5548 0.2362, 0.8537 0.5552 0.2362, 0.8396 0.5553 0.2362, 0.8537 0.5586 0.2362, 0.8455 0.5575 0.2362, 0.8414 0.5565 0.2362, 0.8401 0.5558 0.2362, 0.8533 0.5521 0.2362, 0.8388 0.5544 0.2362, 0.8524 0.5499 0.2362, 0.8392 0.5473 0.2362, 0.8397 0.5468 0.2362, 0.8503 0.5473 0.2362, 0.8385 0.5484 0.2362, 0.8486 0.5462 0.2362, 0.8467 0.5455 0.2362, 0.8444 0.5452 0.2362, 0.8383 0.5533 0.2362, 0.838 0.5519 0.2362, 0.8511 0.5481 0.2362, 0.838 0.5509 0.2362, 0.8381 0.5495 0.2362, 0.841 0.546 0.2362, 0.8423 0.5455 0.2362, 0.8423 0.5455 0.2362
            ]
        }
        coordIndex [
            0,1,2,-1,1,3,4,-1,4,5,1,-1,1,5,6,-1,1,6,2,-1,0,2,7,-1,7,2,8,-1,7,8,9,-1,10,11,12,-1,10,12,13,-1,14,12,15,-1,15,12,16,-1,8,17,9,-1,9,17,18,-1,9,18,19,-1,19,18,20,-1,19,20,12,-1,12,20,21,-1,12,21,13,-1,11,22,12,-1,12,22,23,-1,12,23,16,-1,
        ]
    }
}
Shape{
    appearance Appearance {
        material  Material 	{
            diffuseColor 1.0 1.0 1.0
            specularColor 0.5019607843137255 0.5019607843137255 0.5019607843137255
            ambientIntensity 0.2
            transparency 0
            shininess 0.5
        }
    }
    geometry IndexedFaceSet {
        ccw TRUE
        solid FALSE
        coord DEF co Coordinate {
            point [
                0.583 0.5341 0.2402, 0.5881 0.5277 0.2402, 0.5798 0.5649 0.2402, 0.5738 0.6255 0.2402, 0.5815 0.6296 0.2402, 0.5797 0.6511 0.2402, 0.6014 0.652 0.2402, 0.6122 0.6266 0.2402, 0.6176 0.6376 0.2402, 0.6474 0.5527 0.2402, 0.6474 0.5562 0.2402, 0.6179 0.5647 0.2402, 0.6147 0.5657 0.2402, 0.5722 0.5696 0.2402, 0.5749 0.5429 0.2402, 0.5795 0.5416 0.2402, 0.5934 0.6527 0.2402, 0.6231 0.5605 0.2402, 0.6248 0.5577 0.2402, 0.6473 0.5491 0.2402, 0.6962 0.582 0.2402, 0.6854 0.6005 0.2402, 0.6387 0.5761 0.2402, 0.6122 0.566 0.2402, 0.609 0.5656 0.2402, 0.6043 0.5869 0.2402, 0.6059 0.5644 0.2402, 0.5966 0.5839 0.2402, 0.6032 0.5625 0.2402, 0.5894 0.579 0.2402, 0.6014 0.5605 0.2402, 0.5837 0.5724 0.2402, 0.5997 0.5575 0.2402, 0.5988 0.5542 0.2402, 0.6252 0.5856 0.2402, 0.6168 0.5877 0.2402, 0.6126 0.5879 0.2402, 0.6208 0.5629 0.2402, 0.6032 0.5422 0.2402, 0.606 0.5403 0.2402, 0.595 0.5225 0.2402, 0.6092 0.5391 0.2402, 0.7077 0.6165 0.2402, 0.7105 0.6165 0.2402, 0.7248 0.6353 0.2402, 0.7172 0.6157 0.2402, 0.7265 0.6347 0.2402, 0.7232 0.6133 0.2402, 0.7369 0.6296 0.2402, 0.7464 0.6216 0.2402, 0.6086 0.6604 0.2402, 0.6254 0.647 0.2402, 0.6168 0.6674 0.2402, 0.6347 0.6538 0.2402, 0.627 0.6735 0.2402, 0.5901 0.6316 0.2402, 0.5938 0.6318 0.2402, 0.5974 0.6525 0.2402, 0.6019 0.6308 0.2402, 0.6097 0.628 0.2402, 0.6326 0.5816 0.2402, 0.7464 0.5565 0.2402, 0.7302 0.5704 0.2402, 0.7369 0.5485 0.2402, 0.725 0.5662 0.2402, 0.7263 0.5433 0.2402, 0.7189 0.5633 0.2402, 0.7147 0.5409 0.2402, 0.7126 0.5621 0.2402, 0.6941 0.5409 0.2402, 0.6969 0.5621 0.2402, 0.6922 0.5412 0.2402, 0.601 0.5447 0.2402, 0.5995 0.5476 0.2402, 0.5987 0.5508 0.2402, 0.7286 0.6096 0.2402, 0.7327 0.6051 0.2402, 0.7535 0.6117 0.2402, 0.7359 0.599 0.2402, 0.7577 0.601 0.2402, 0.7376 0.5924 0.2402, 0.7593 0.5897 0.2402, 0.7377 0.5893 0.2402, 0.7577 0.5772 0.2402, 0.7369 0.5825 0.2402, 0.7533 0.5662 0.2402, 0.7345 0.5763 0.2402, 0.7306 0.5709 0.2402, 0.706 0.6629 0.2402, 0.6924 0.6468 0.2402, 0.7182 0.6485 0.2402, 0.7002 0.6374 0.2402, 0.7056 0.6262 0.2402, 0.5599 0.6054 0.2402, 0.537 0.5996 0.2402, 0.5589 0.597 0.2402, 0.5369 0.5963 0.2402, 0.5593 0.5916 0.2402, 0.5386 0.5826 0.2402, 0.5618 0.5831 0.2402, 0.5436 0.5697 0.2402, 0.566 0.576 0.2402, 0.5516 0.5583 0.2402, 0.5623 0.5491 0.2402, 0.6257 0.5545 0.2402, 0.6258 0.5511 0.2402, 0.6452 0.5405 0.2402, 0.625 0.5477 0.2402, 0.6411 0.5327 0.2402, 0.6235 0.5447 0.2402, 0.6357 0.5267 0.2402, 0.6212 0.5422 0.2402, 0.6288 0.5219 0.2402, 0.6186 0.5403 0.2402, 0.621 0.5189 0.2402, 0.6155 0.5392 0.2402, 0.6126 0.5179 0.2402, 0.6122 0.5388 0.2402, 0.6112 0.5179 0.2402, 0.603 0.5192 0.2402, 0.6432 0.6793 0.2402, 0.6461 0.6584 0.2402, 0.6586 0.681 0.2402, 0.6589 0.6601 0.2402, 0.6754 0.6789 0.2402, 0.6708 0.6586 0.2402, 0.6927 0.6721 0.2402, 0.6817 0.6544 0.2402, 0.6915 0.6476 0.2402, 0.5668 0.646 0.2402, 0.5557 0.6382 0.2402, 0.5678 0.6201 0.2402, 0.5533 0.636 0.2402, 0.5629 0.6132 0.2402, 0.545 0.6253 0.2402, 0.5394 0.6127 0.2402, 0.6952 0.5624 0.2402, 0.6868 0.5445 0.2402, 0.6876 0.5437 0.2402, 0.6962 0.5622 0.2402, 0.6899 0.5421 0.2402, 0.684 0.5517 0.2402, 0.6844 0.5491 0.2402, 0.6853 0.5467 0.2402, 0.6921 0.5621 0.2402, 0.6898 0.5612 0.2402, 0.6841 0.553 0.2402, 0.6876 0.5597 0.2402, 0.6862 0.5581 0.2402, 0.6848 0.5557 0.2402, 0.6948 0.5625 0.2402, 0.7535 0.6117 0.2362, 0.7577 0.601 0.2362, 0.7593 0.5897 0.2362, 0.7487 0.6184 0.2362, 0.7464 0.6216 0.2362, 0.7369 0.6296 0.2362, 0.7265 0.6347 0.2362, 0.7248 0.6353 0.2362, 0.7182 0.6485 0.2362, 0.706 0.6629 0.2362, 0.6983 0.6682 0.2362, 0.6927 0.6721 0.2362, 0.6754 0.6789 0.2362, 0.6586 0.681 0.2362, 0.6168 0.6674 0.2362, 0.6182 0.6682 0.2362, 0.627 0.6735 0.2362, 0.6432 0.6793 0.2362, 0.6086 0.6604 0.2362, 0.6014 0.652 0.2362, 0.5974 0.6525 0.2362, 0.5934 0.6527 0.2362, 0.5797 0.6511 0.2362, 0.5668 0.646 0.2362, 0.5557 0.6382 0.2362, 0.5533 0.636 0.2362, 0.545 0.6253 0.2362, 0.5419 0.6184 0.2362, 0.5394 0.6127 0.2362, 0.537 0.5996 0.2362, 0.5369 0.5963 0.2362, 0.5385 0.5834 0.2362, 0.5386 0.5826 0.2362, 0.5436 0.5697 0.2362, 0.5516 0.5583 0.2362, 0.5623 0.5491 0.2362, 0.5749 0.5429 0.2362, 0.5795 0.5416 0.2362, 0.5799 0.5406 0.2362, 0.583 0.5341 0.2362, 0.5881 0.5277 0.2362, 0.595 0.5225 0.2362, 0.5982 0.5212 0.2362, 0.603 0.5192 0.2362, 0.6112 0.5179 0.2362, 0.6126 0.5179 0.2362, 0.6474 0.5527 0.2362, 0.621 0.5189 0.2362, 0.627 0.5212 0.2362, 0.6288 0.5219 0.2362, 0.6357 0.5267 0.2362, 0.6411 0.5327 0.2362, 0.6452 0.5405 0.2362, 0.6452 0.5406 0.2362, 0.6473 0.5491 0.2362, 0.6474 0.5562 0.2362, 0.6962 0.582 0.2362, 0.6854 0.6005 0.2362, 0.6954 0.5834 0.2362, 0.6387 0.5761 0.2362, 0.6529 0.5834 0.2362, 0.6326 0.5816 0.2362, 0.6292 0.5834 0.2362, 0.6252 0.5856 0.2362, 0.6168 0.5877 0.2362, 0.6126 0.5879 0.2362, 0.6043 0.5869 0.2362, 0.5966 0.5839 0.2362, 0.5959 0.5834 0.2362, 0.5894 0.579 0.2362, 0.5837 0.5724 0.2362, 0.5798 0.5649 0.2362, 0.5589 0.597 0.2362, 0.5722 0.5696 0.2362, 0.566 0.576 0.2362, 0.5618 0.5831 0.2362, 0.5617 0.5834 0.2362, 0.5593 0.5916 0.2362, 0.5599 0.6054 0.2362, 0.5629 0.6132 0.2362, 0.5666 0.6184 0.2362, 0.5678 0.6201 0.2362, 0.5738 0.6255 0.2362, 0.5815 0.6296 0.2362, 0.5901 0.6316 0.2362, 0.5938 0.6318 0.2362, 0.6019 0.6308 0.2362, 0.6097 0.628 0.2362, 0.6122 0.6266 0.2362, 0.6176 0.6376 0.2362, 0.6254 0.647 0.2362, 0.6347 0.6538 0.2362, 0.6461 0.6584 0.2362, 0.6589 0.6601 0.2362, 0.7077 0.6165 0.2362, 0.7073 0.6184 0.2362, 0.7056 0.6262 0.2362, 0.7002 0.6374 0.2362, 0.6924 0.6468 0.2362, 0.6915 0.6476 0.2362, 0.6817 0.6544 0.2362, 0.6708 0.6586 0.2362, 0.7105 0.6165 0.2362, 0.7172 0.6157 0.2362, 0.7232 0.6133 0.2362, 0.7286 0.6096 0.2362, 0.7327 0.6051 0.2362, 0.7359 0.599 0.2362, 0.7376 0.5924 0.2362, 0.7377 0.5893 0.2362, 0.737 0.5834 0.2362, 0.7369 0.5825 0.2362, 0.7345 0.5763 0.2362, 0.7306 0.5709 0.2362, 0.7302 0.5704 0.2362, 0.725 0.5662 0.2362, 0.7189 0.5633 0.2362, 0.7126 0.5621 0.2362, 0.6969 0.5621 0.2362, 0.6962 0.5622 0.2362, 0.6952 0.5624 0.2362, 0.6948 0.5625 0.2362, 0.6921 0.5621 0.2362, 0.6898 0.5612 0.2362, 0.6876 0.5597 0.2362, 0.6862 0.5581 0.2362, 0.6848 0.5557 0.2362, 0.6841 0.553 0.2362, 0.684 0.5517 0.2362, 0.6844 0.5491 0.2362, 0.6853 0.5467 0.2362, 0.6868 0.5445 0.2362, 0.6876 0.5437 0.2362, 0.6899 0.5421 0.2362, 0.6922 0.5412 0.2362, 0.6941 0.5409 0.2362, 0.7147 0.5409 0.2362, 0.7263 0.5433 0.2362, 0.7369 0.5485 0.2362, 0.7464 0.5565 0.2362, 0.7533 0.5662 0.2362, 0.7577 0.5772 0.2362, 0.7585 0.5834 0.2362, 0.6122 0.566 0.2362, 0.6147 0.5657 0.2362, 0.6179 0.5647 0.2362, 0.6208 0.5629 0.2362, 0.6231 0.5605 0.2362, 0.6248 0.5577 0.2362, 0.6257 0.5545 0.2362, 0.6258 0.5511 0.2362, 0.625 0.5477 0.2362, 0.6235 0.5447 0.2362, 0.6212 0.5422 0.2362, 0.6186 0.5403 0.2362, 0.6155 0.5392 0.2362, 0.6122 0.5388 0.2362, 0.6092 0.5391 0.2362, 0.606 0.5403 0.2362, 0.6032 0.5422 0.2362, 0.601 0.5447 0.2362, 0.5995 0.5476 0.2362, 0.5987 0.5508 0.2362, 0.5988 0.5542 0.2362, 0.5997 0.5575 0.2362, 0.6014 0.5605 0.2362, 0.6032 0.5625 0.2362, 0.6059 0.5644 0.2362, 0.609 0.5656 0.2362, 0.609 0.5656 0.2362
            ]
        }
        coordIndex [
            0,1,2,-1,3,4,5,-1,6,7,8,-1,9,10,11,-1,11,10,12,-1,13,14,2,-1,2,14,15,-1,2,15,0,-1,5,4,16,-1,17,18,19,-1,20,21,10,-1,10,21,22,-1,10,22,12,-1,12,22,23,-1,24,25,26,-1,26,25,27,-1,26,27,28,-1,28,27,29,-1,28,29,30,-1,30,29,31,-1,30,31,32,-1,32,31,2,-1,32,2,33,-1,34,35,24,-1,24,35,36,-1,24,36,25,-1,9,11,19,-1,19,11,37,-1,19,37,17,-1,38,1,39,-1,39,1,40,-1,39,40,41,-1,42,43,44,-1,44,43,45,-1,44,45,46,-1,46,45,47,-1,46,47,48,-1,48,47,49,-1,6,8,50,-1,50,8,51,-1,50,51,52,-1,52,51,53,-1,52,53,54,-1,4,55,16,-1,16,55,56,-1,16,56,57,-1,57,56,58,-1,57,58,6,-1,6,58,59,-1,6,59,7,-1,23,22,24,-1,24,22,60,-1,24,60,34,-1,61,62,63,-1,63,62,64,-1,63,64,65,-1,65,64,66,-1,65,66,67,-1,67,66,68,-1,67,68,69,-1,69,68,70,-1,69,70,71,-1,38,72,1,-1,1,72,73,-1,1,73,2,-1,2,73,74,-1,2,74,33,-1,47,75,49,-1,49,75,76,-1,49,76,77,-1,77,76,78,-1,77,78,79,-1,79,78,80,-1,79,80,81,-1,81,80,82,-1,81,82,83,-1,83,82,84,-1,83,84,85,-1,85,84,86,-1,85,86,61,-1,61,86,87,-1,61,87,62,-1,88,89,90,-1,90,89,91,-1,90,91,44,-1,44,91,92,-1,44,92,42,-1,93,94,95,-1,95,94,96,-1,95,96,97,-1,97,96,98,-1,97,98,99,-1,99,98,100,-1,99,100,101,-1,101,100,102,-1,101,102,13,-1,13,102,103,-1,13,103,14,-1,18,104,19,-1,19,104,105,-1,19,105,106,-1,106,105,107,-1,106,107,108,-1,108,107,109,-1,108,109,110,-1,110,109,111,-1,110,111,112,-1,112,111,113,-1,112,113,114,-1,114,113,115,-1,114,115,116,-1,116,115,117,-1,116,117,118,-1,118,117,41,-1,118,41,119,-1,119,41,40,-1,54,53,120,-1,120,53,121,-1,120,121,122,-1,122,121,123,-1,122,123,124,-1,124,123,125,-1,124,125,126,-1,126,125,127,-1,126,127,88,-1,88,127,128,-1,88,128,89,-1,5,129,3,-1,3,129,130,-1,3,130,131,-1,131,130,132,-1,131,132,133,-1,133,132,134,-1,133,134,93,-1,93,134,135,-1,93,135,94,-1,136,137,138,-1,70,139,71,-1,71,139,136,-1,71,136,140,-1,140,136,138,-1,141,142,136,-1,136,142,143,-1,136,143,137,-1,144,145,146,-1,145,147,146,-1,146,147,148,-1,146,148,149,-1,141,136,146,-1,146,136,150,-1,146,150,144,-1,151,79,152,-1,152,79,81,-1,152,81,153,-1,154,49,151,-1,151,49,77,-1,151,77,79,-1,154,155,49,-1,49,155,156,-1,49,156,48,-1,48,156,157,-1,48,157,46,-1,46,157,158,-1,46,158,44,-1,44,158,159,-1,44,159,90,-1,90,159,160,-1,90,160,88,-1,88,160,126,-1,126,160,161,-1,161,162,126,-1,126,162,163,-1,126,163,124,-1,124,163,164,-1,124,164,122,-1,165,52,166,-1,166,52,54,-1,166,54,167,-1,167,54,120,-1,167,120,168,-1,168,120,122,-1,168,122,164,-1,52,165,169,-1,52,169,50,-1,50,169,170,-1,50,170,6,-1,6,170,171,-1,6,171,57,-1,57,171,172,-1,57,172,16,-1,16,172,173,-1,16,173,5,-1,5,173,174,-1,5,174,129,-1,129,174,175,-1,129,175,130,-1,130,175,176,-1,130,176,132,-1,132,176,177,-1,178,135,177,-1,177,135,134,-1,177,134,132,-1,178,179,135,-1,135,179,180,-1,135,180,94,-1,94,180,181,-1,94,181,96,-1,181,182,96,-1,96,182,98,-1,182,183,98,-1,98,183,184,-1,98,184,100,-1,100,184,185,-1,100,185,102,-1,102,185,186,-1,102,186,103,-1,103,186,187,-1,103,187,14,-1,14,187,188,-1,14,188,15,-1,15,188,189,-1,15,189,0,-1,189,190,0,-1,0,190,191,-1,0,191,1,-1,1,191,192,-1,1,192,40,-1,40,192,193,-1,40,193,119,-1,193,194,119,-1,119,194,195,-1,119,195,118,-1,118,195,196,-1,118,196,116,-1,197,9,19,-1,116,196,198,-1,116,198,114,-1,114,198,199,-1,114,199,112,-1,199,200,112,-1,112,200,201,-1,112,201,110,-1,110,201,202,-1,110,202,108,-1,108,202,203,-1,108,203,106,-1,106,203,204,-1,106,204,19,-1,19,204,205,-1,19,205,197,-1,10,9,206,-1,206,9,197,-1,20,10,207,-1,207,10,206,-1,208,21,209,-1,209,21,20,-1,209,20,207,-1,210,22,211,-1,211,22,21,-1,211,21,208,-1,22,210,212,-1,22,212,60,-1,60,212,213,-1,60,213,34,-1,213,214,34,-1,34,214,215,-1,34,215,35,-1,35,215,216,-1,35,216,36,-1,36,216,217,-1,36,217,25,-1,25,217,218,-1,25,218,27,-1,27,218,219,-1,27,219,29,-1,219,220,29,-1,29,220,221,-1,29,221,31,-1,31,221,222,-1,31,222,2,-1,223,95,97,-1,2,222,224,-1,2,224,13,-1,13,224,225,-1,13,225,101,-1,101,225,226,-1,101,226,99,-1,99,226,227,-1,99,227,97,-1,97,227,228,-1,97,228,223,-1,95,223,229,-1,95,229,93,-1,93,229,230,-1,93,230,133,-1,133,230,231,-1,133,231,131,-1,231,232,131,-1,131,232,233,-1,131,233,3,-1,3,233,234,-1,3,234,4,-1,4,234,235,-1,4,235,55,-1,55,235,236,-1,55,236,56,-1,56,236,237,-1,56,237,58,-1,58,237,238,-1,58,238,59,-1,59,238,239,-1,59,239,7,-1,7,239,240,-1,7,240,8,-1,8,240,241,-1,8,241,51,-1,51,241,242,-1,51,242,53,-1,53,242,243,-1,53,243,121,-1,121,243,244,-1,121,244,123,-1,245,42,246,-1,246,42,92,-1,246,92,247,-1,247,92,91,-1,247,91,248,-1,248,91,89,-1,248,89,249,-1,249,89,128,-1,249,128,250,-1,250,128,127,-1,250,127,251,-1,251,127,125,-1,251,125,252,-1,252,125,123,-1,252,123,244,-1,43,42,253,-1,253,42,245,-1,43,253,254,-1,43,254,45,-1,45,254,255,-1,45,255,47,-1,47,255,256,-1,47,256,75,-1,75,256,257,-1,75,257,76,-1,76,257,258,-1,76,258,78,-1,78,258,259,-1,78,259,80,-1,80,259,260,-1,80,260,82,-1,260,261,82,-1,82,261,84,-1,261,262,84,-1,84,262,263,-1,84,263,86,-1,86,263,264,-1,86,264,87,-1,87,264,265,-1,87,265,62,-1,62,265,266,-1,62,266,64,-1,64,266,267,-1,64,267,66,-1,66,267,268,-1,66,268,68,-1,70,68,269,-1,269,68,268,-1,70,269,270,-1,70,270,139,-1,139,270,271,-1,139,271,136,-1,136,271,272,-1,136,272,150,-1,150,272,273,-1,150,273,144,-1,144,273,274,-1,144,274,145,-1,145,274,275,-1,145,275,147,-1,147,275,276,-1,147,276,148,-1,148,276,277,-1,148,277,149,-1,149,277,278,-1,149,278,146,-1,146,278,279,-1,146,279,141,-1,141,279,280,-1,141,280,142,-1,142,280,281,-1,142,281,143,-1,143,281,282,-1,143,282,137,-1,137,282,283,-1,137,283,138,-1,138,283,284,-1,138,284,140,-1,140,284,285,-1,140,285,71,-1,71,285,286,-1,71,286,69,-1,67,69,287,-1,287,69,286,-1,67,287,288,-1,67,288,65,-1,65,288,289,-1,65,289,63,-1,63,289,290,-1,63,290,61,-1,61,290,291,-1,61,291,85,-1,85,291,292,-1,85,292,83,-1,83,292,81,-1,81,292,293,-1,81,293,153,-1,23,294,295,-1,23,295,12,-1,12,295,296,-1,12,296,11,-1,11,296,297,-1,11,297,37,-1,37,297,298,-1,37,298,17,-1,17,298,299,-1,17,299,18,-1,18,299,300,-1,18,300,104,-1,104,300,301,-1,104,301,105,-1,105,301,302,-1,105,302,107,-1,107,302,303,-1,107,303,109,-1,109,303,304,-1,109,304,111,-1,111,304,305,-1,111,305,113,-1,113,305,306,-1,113,306,115,-1,115,306,307,-1,115,307,117,-1,117,307,308,-1,117,308,41,-1,41,308,309,-1,41,309,39,-1,39,309,310,-1,39,310,38,-1,38,310,311,-1,38,311,72,-1,72,311,312,-1,72,312,73,-1,73,312,313,-1,73,313,74,-1,74,313,314,-1,74,314,33,-1,33,314,315,-1,33,315,32,-1,32,315,316,-1,32,316,30,-1,30,316,317,-1,30,317,28,-1,28,317,318,-1,28,318,26,-1,26,318,319,-1,26,319,24,-1,24,319,294,-1,24,294,23,-1,
        ]
    }
}
Shape{
    appearance Appearance {
        material  Material 	{
            diffuseColor 0.20784313725490197 0.20784313725490197 0.20784313725490197
            specularColor 0.01568627450980392 0.01568627450980392 0.01568627450980392
            ambientIntensity 0.2
            transparency 0
            shininess 0.5
        }
    }
    geometry IndexedFaceSet {
        ccw TRUE
        solid FALSE
        coord DEF co Coordinate {
            point [
                0.6122 0.5388 0.2362, 0.6032 0.5625 0.2362, 0.6014 0.5605 0.2362, 0.6122 0.566 0.2362, 0.6147 0.5657 0.2362, 0.6155 0.5392 0.2362, 0.609 0.5656 0.2362, 0.6059 0.5644 0.2362, 0.6212 0.5422 0.2362, 0.6231 0.5605 0.2362, 0.6208 0.5629 0.2362, 0.5995 0.5476 0.2362, 0.601 0.5447 0.2362, 0.6032 0.5422 0.2362, 0.6186 0.5403 0.2362, 0.6179 0.5647 0.2362, 0.606 0.5403 0.2362, 0.6092 0.5391 0.2362, 0.5997 0.5575 0.2362, 0.5988 0.5542 0.2362, 0.5987 0.5508 0.2362, 0.625 0.5477 0.2362, 0.6258 0.5511 0.2362, 0.6235 0.5447 0.2362, 0.6257 0.5545 0.2362, 0.6248 0.5577 0.2362, 0.6248 0.5577 0.2362
            ]
        }
        coordIndex [
            0,1,2,-1,3,0,4,-1,4,0,5,-1,3,6,0,-1,0,6,7,-1,0,7,1,-1,8,9,10,-1,11,12,2,-1,2,12,13,-1,5,14,4,-1,4,14,8,-1,4,8,15,-1,15,8,10,-1,13,16,2,-1,2,16,17,-1,2,17,0,-1,18,19,2,-1,2,19,20,-1,2,20,11,-1,21,22,23,-1,23,22,24,-1,23,24,8,-1,8,24,25,-1,8,25,9,-1,
        ]
    }
}
Shape{
    appearance Appearance {
        material  Material 	{
            diffuseColor 1.0 1.0 1.0
            specularColor 0.5019607843137255 0.5019607843137255 0.5019607843137255
            ambientIntensity 0.2
            transparency 0
            shininess 0.5
        }
    }
    geometry IndexedFaceSet {
        ccw TRUE
        solid FALSE
        coord DEF co Coordinate {
            point [
                0.942 0.6257 0.2402, 0.9369 0.629 0.2402, 0.9369 0.622 0.2402, 0.9338 0.6268 0.2402, 0.9313 0.6198 0.2402, 0.9297 0.6252 0.2402, 0.923 0.6188 0.2402, 0.9229 0.6244 0.2402, 0.9095 0.6188 0.2402, 0.9158 0.6244 0.2402, 0.9095 0.6678 0.2402, 0.9158 0.6622 0.2402, 0.9235 0.6678 0.2402, 0.9232 0.6622 0.2402, 0.9238 0.6622 0.2402, 0.931 0.667 0.2402, 0.9301 0.6614 0.2402, 0.9369 0.6648 0.2402, 0.9342 0.6597 0.2402, 0.942 0.6613 0.2402, 0.9374 0.6576 0.2402, 0.9437 0.6596 0.2402, 0.9387 0.6562 0.2402, 0.9468 0.6554 0.2402, 0.9406 0.6535 0.2402, 0.9486 0.6507 0.2402, 0.942 0.6499 0.2402, 0.9494 0.6439 0.2402, 0.9427 0.6438 0.2402, 0.9493 0.6408 0.2402, 0.9425 0.6403 0.2402, 0.9481 0.6351 0.2402, 0.9415 0.6359 0.2402, 0.9457 0.63 0.2402, 0.9398 0.6323 0.2402, 0.9375 0.6295 0.2402, 0.942 0.6257 0.2362, 0.9457 0.63 0.2362, 0.9481 0.6351 0.2362, 0.9493 0.6408 0.2362, 0.9494 0.6439 0.2362, 0.9486 0.6507 0.2362, 0.9468 0.6554 0.2362, 0.9437 0.6596 0.2362, 0.942 0.6613 0.2362, 0.9235 0.6678 0.2362, 0.9369 0.6648 0.2362, 0.9319 0.6666 0.2362, 0.931 0.667 0.2362, 0.9095 0.6678 0.2362, 0.9095 0.6188 0.2362, 0.923 0.6188 0.2362, 0.9313 0.6198 0.2362, 0.9319 0.6201 0.2362, 0.9369 0.622 0.2362, 0.9374 0.6576 0.2362, 0.9387 0.6562 0.2362, 0.9406 0.6535 0.2362, 0.942 0.6499 0.2362, 0.9427 0.6438 0.2362, 0.9232 0.6622 0.2362, 0.9238 0.6622 0.2362, 0.9301 0.6614 0.2362, 0.9342 0.6597 0.2362, 0.9158 0.6622 0.2362, 0.9158 0.6244 0.2362, 0.9229 0.6244 0.2362, 0.9375 0.6295 0.2362, 0.9369 0.629 0.2362, 0.9338 0.6268 0.2362, 0.9297 0.6252 0.2362, 0.9425 0.6403 0.2362, 0.9415 0.6359 0.2362, 0.9398 0.6323 0.2362, 0.9398 0.6323 0.2362
            ]
        }
        coordIndex [
            0,1,2,-1,2,1,3,-1,2,3,4,-1,4,3,5,-1,4,5,6,-1,6,5,7,-1,6,7,8,-1,8,7,9,-1,8,9,10,-1,10,9,11,-1,10,11,12,-1,11,13,12,-1,12,13,14,-1,12,14,15,-1,15,14,16,-1,15,16,17,-1,17,16,18,-1,17,18,19,-1,19,18,20,-1,19,20,21,-1,21,20,22,-1,21,22,23,-1,23,22,24,-1,23,24,25,-1,25,24,26,-1,25,26,27,-1,27,26,28,-1,27,28,29,-1,29,28,30,-1,29,30,31,-1,31,30,32,-1,31,32,33,-1,33,32,34,-1,33,34,0,-1,0,34,35,-1,0,35,1,-1,0,36,37,-1,0,37,33,-1,33,37,38,-1,33,38,31,-1,31,38,39,-1,31,39,29,-1,29,39,40,-1,29,40,27,-1,27,40,41,-1,27,41,25,-1,25,41,42,-1,25,42,23,-1,23,42,43,-1,23,43,21,-1,21,43,44,-1,21,44,19,-1,45,12,15,-1,19,44,46,-1,19,46,17,-1,17,46,47,-1,17,47,15,-1,15,47,48,-1,15,48,45,-1,10,12,49,-1,49,12,45,-1,8,10,50,-1,50,10,49,-1,6,8,51,-1,51,8,50,-1,36,0,2,-1,6,51,52,-1,6,52,4,-1,4,52,53,-1,4,53,2,-1,2,53,54,-1,2,54,36,-1,20,55,56,-1,20,56,22,-1,22,56,57,-1,22,57,24,-1,24,57,58,-1,24,58,26,-1,26,58,59,-1,26,59,28,-1,13,60,61,-1,13,61,14,-1,14,61,62,-1,14,62,16,-1,16,62,63,-1,16,63,18,-1,18,63,55,-1,18,55,20,-1,13,11,60,-1,60,11,64,-1,11,9,64,-1,64,9,65,-1,9,7,65,-1,65,7,66,-1,35,67,68,-1,35,68,1,-1,1,68,69,-1,1,69,3,-1,3,69,70,-1,3,70,5,-1,5,70,66,-1,5,66,7,-1,28,59,71,-1,28,71,30,-1,30,71,72,-1,30,72,32,-1,32,72,73,-1,32,73,34,-1,34,73,67,-1,34,67,35,-1,
        ]
    }
}
Shape{
    appearance Appearance {
        material  Material 	{
            diffuseColor 0.20784313725490197 0.20784313725490197 0.20784313725490197
            specularColor 0.01568627450980392 0.01568627450980392 0.01568627450980392
            ambientIntensity 0.2
            transparency 0
            shininess 0.5
        }
    }
    geometry IndexedFaceSet {
        ccw TRUE
        solid FALSE
        coord DEF co Coordinate {
            point [
                0.9338 0.6268 0.2362, 0.9369 0.629 0.2362, 0.9238 0.6622 0.2362, 0.9158 0.6622 0.2362, 0.9158 0.6244 0.2362, 0.9232 0.6622 0.2362, 0.9229 0.6244 0.2362, 0.9297 0.6252 0.2362, 0.9375 0.6295 0.2362, 0.9398 0.6323 0.2362, 0.9415 0.6359 0.2362, 0.9427 0.6438 0.2362, 0.9374 0.6576 0.2362, 0.9342 0.6597 0.2362, 0.942 0.6499 0.2362, 0.9406 0.6535 0.2362, 0.9387 0.6562 0.2362, 0.9425 0.6403 0.2362, 0.9301 0.6614 0.2362, 0.9301 0.6614 0.2362
            ]
        }
        coordIndex [
            0,1,2,-1,3,4,5,-1,5,4,6,-1,5,6,2,-1,2,6,7,-1,2,7,0,-1,1,8,2,-1,2,8,9,-1,2,9,10,-1,11,12,13,-1,14,15,11,-1,11,15,16,-1,11,16,12,-1,10,17,2,-1,2,17,11,-1,2,11,18,-1,18,11,13,-1,
        ]
    }
}
Shape{
    appearance Appearance {
        material  Material 	{
            diffuseColor 1.0 1.0 1.0
            specularColor 0.5019607843137255 0.5019607843137255 0.5019607843137255
            ambientIntensity 0.2
            transparency 0
            shininess 0.5
        }
    }
    geometry IndexedFaceSet {
        ccw TRUE
        solid FALSE
        coord DEF co Coordinate {
            point [
                0.8514 0.6236 0.2402, 0.8514 0.6236 0.2362, 0.8472 0.624 0.2362, 0.8472 0.624 0.2402, 0.8436 0.6253 0.2362, 0.8436 0.6253 0.2402, 0.8402 0.6274 0.2362, 0.8402 0.6274 0.2402, 0.8388 0.6288 0.2362, 0.8388 0.6288 0.2402, 0.8366 0.6318 0.2362, 0.8366 0.6318 0.2402, 0.8349 0.6356 0.2362, 0.8349 0.6356 0.2402, 0.8341 0.6404 0.2362, 0.8341 0.6404 0.2402, 0.834 0.6428 0.2362, 0.834 0.6428 0.2402, 0.8348 0.6495 0.2362, 0.8348 0.6495 0.2402, 0.8364 0.6537 0.2362, 0.8364 0.6537 0.2402, 0.8388 0.6571 0.2362, 0.8388 0.6571 0.2402, 0.8391 0.6575 0.2362, 0.8391 0.6575 0.2402, 0.8421 0.66 0.2362, 0.8421 0.66 0.2402, 0.8459 0.6619 0.2362, 0.8459 0.6619 0.2402, 0.8501 0.6628 0.2362, 0.8501 0.6628 0.2402, 0.8525 0.6629 0.2362, 0.8525 0.6629 0.2402, 0.8585 0.6622 0.2362, 0.8585 0.6622 0.2402, 0.8635 0.6603 0.2362, 0.8635 0.6603 0.2402, 0.864 0.66 0.2362, 0.864 0.66 0.2402, 0.864 0.6666 0.2402, 0.864 0.6666 0.2362, 0.8524 0.6687 0.2362, 0.8524 0.6687 0.2402, 0.8577 0.6682 0.2362, 0.8588 0.6681 0.2402, 0.8588 0.6681 0.2362, 0.849 0.6682 0.2362, 0.8453 0.6678 0.2402, 0.8453 0.6678 0.2362, 0.8402 0.6658 0.2362, 0.8402 0.6658 0.2402, 0.8356 0.6626 0.2362, 0.8356 0.6626 0.2402, 0.8344 0.6614 0.2362, 0.8344 0.6614 0.2402, 0.8309 0.6568 0.2362, 0.8309 0.6568 0.2402, 0.8285 0.6513 0.2362, 0.8285 0.6513 0.2402, 0.8274 0.6449 0.2362, 0.8274 0.6449 0.2402, 0.8273 0.6424 0.2362, 0.8273 0.6424 0.2402, 0.8283 0.6344 0.2362, 0.8283 0.6344 0.2402, 0.8303 0.6293 0.2362, 0.8303 0.6293 0.2402, 0.8332 0.6251 0.2362, 0.8332 0.6251 0.2402, 0.8336 0.6247 0.2362, 0.8336 0.6247 0.2402, 0.8505 0.618 0.2362, 0.8505 0.618 0.2402, 0.8475 0.6181 0.2402, 0.8376 0.6214 0.2362, 0.8376 0.6214 0.2402, 0.8422 0.6192 0.2362, 0.8422 0.6192 0.2402, 0.8462 0.6184 0.2362, 0.8475 0.6181 0.2362, 0.8579 0.6187 0.2402, 0.8548 0.6184 0.2362, 0.8579 0.6187 0.2362, 0.8632 0.6204 0.2362, 0.8632 0.6204 0.2402, 0.864 0.6208 0.2362, 0.864 0.6208 0.2402, 0.864 0.6269 0.2402, 0.864 0.6269 0.2362, 0.8592 0.6247 0.2362, 0.8592 0.6247 0.2402, 0.8537 0.6237 0.2362, 0.8537 0.6237 0.2402, 1.0272 0.56 0.2402, 1.0252 0.5544 0.2402, 1.0437 0.56 0.2402, 1.0456 0.5544 0.2402, 1.0346 0.5804 0.2402, 1.0322 0.5901 0.2402, 1.0135 0.541 0.2402, 1.0205 0.541 0.2402, 1.035 0.5818 0.2402, 1.0354 0.5838 0.2402, 1.039 0.5901 0.2402, 1.0355 0.5838 0.2402, 1.0359 0.5817 0.2402, 1.0363 0.5804 0.2402, 1.0576 0.541 0.2402, 1.0506 0.541 0.2402, 1.0322 0.5901 0.2362, 1.039 0.5901 0.2362, 1.0135 0.541 0.2362, 1.0297 0.5834 0.2362, 1.0205 0.541 0.2362, 1.0252 0.5544 0.2362, 1.0456 0.5544 0.2362, 1.0506 0.541 0.2362, 1.0576 0.541 0.2362, 1.0415 0.5834 0.2362, 1.0346 0.5804 0.2362, 1.035 0.5818 0.2362, 1.0354 0.5838 0.2362, 1.0272 0.56 0.2362, 1.0437 0.56 0.2362, 1.0363 0.5804 0.2362, 1.0355 0.5838 0.2362, 1.0359 0.5817 0.2362, 1.0359 0.5817 0.2362
            ]
        }
        coordIndex [
            0,1,2,-1,0,2,3,-1,3,2,4,-1,3,4,5,-1,5,4,6,-1,5,6,7,-1,7,6,8,-1,7,8,9,-1,9,8,10,-1,9,10,11,-1,11,10,12,-1,11,12,13,-1,13,12,14,-1,13,14,15,-1,15,14,16,-1,15,16,17,-1,17,16,18,-1,17,18,19,-1,19,18,20,-1,19,20,21,-1,21,20,22,-1,21,22,23,-1,23,22,24,-1,23,24,25,-1,25,24,26,-1,25,26,27,-1,27,26,28,-1,27,28,29,-1,29,28,30,-1,29,30,31,-1,31,30,32,-1,31,32,33,-1,33,32,34,-1,33,34,35,-1,35,34,36,-1,35,36,37,-1,37,36,38,-1,37,38,39,-1,40,39,41,-1,41,39,38,-1,42,43,44,-1,44,43,45,-1,44,45,46,-1,46,45,40,-1,46,40,41,-1,43,42,47,-1,43,47,48,-1,47,49,48,-1,48,49,50,-1,48,50,51,-1,51,50,52,-1,51,52,53,-1,53,52,54,-1,53,54,55,-1,55,54,56,-1,55,56,57,-1,57,56,58,-1,57,58,59,-1,59,58,60,-1,59,60,61,-1,61,60,62,-1,61,62,63,-1,63,62,64,-1,63,64,65,-1,65,64,66,-1,65,66,67,-1,67,66,68,-1,67,68,69,-1,69,68,70,-1,69,70,71,-1,72,73,74,-1,71,70,75,-1,71,75,76,-1,76,75,77,-1,76,77,78,-1,78,77,79,-1,78,79,74,-1,74,79,80,-1,74,80,72,-1,73,72,81,-1,81,72,82,-1,82,83,81,-1,81,83,84,-1,81,84,85,-1,85,84,86,-1,85,86,87,-1,88,87,89,-1,89,87,86,-1,88,89,90,-1,88,90,91,-1,91,90,92,-1,91,92,93,-1,93,92,1,-1,93,1,0,-1,27,29,48,-1,19,21,57,-1,57,21,55,-1,48,29,43,-1,63,17,61,-1,61,17,19,-1,61,19,59,-1,59,19,57,-1,29,31,43,-1,43,31,33,-1,43,33,45,-1,45,33,35,-1,45,35,40,-1,40,35,37,-1,40,37,39,-1,87,88,85,-1,85,88,91,-1,85,91,81,-1,81,91,93,-1,81,93,73,-1,73,93,0,-1,73,0,74,-1,74,0,3,-1,74,3,78,-1,78,3,5,-1,78,5,76,-1,76,5,7,-1,76,7,71,-1,71,7,9,-1,71,9,69,-1,69,9,11,-1,69,11,67,-1,67,11,65,-1,65,11,13,-1,65,13,63,-1,63,13,15,-1,63,15,17,-1,21,23,55,-1,55,23,25,-1,55,25,53,-1,53,25,27,-1,53,27,51,-1,51,27,48,-1,94,95,96,-1,96,95,97,-1,98,99,94,-1,94,99,100,-1,94,100,95,-1,95,100,101,-1,98,102,99,-1,99,102,103,-1,99,103,104,-1,104,103,105,-1,104,105,106,-1,106,107,104,-1,104,107,96,-1,104,96,108,-1,108,96,97,-1,108,97,109,-1,99,104,110,-1,110,104,111,-1,112,100,113,-1,113,100,99,-1,113,99,110,-1,101,100,114,-1,114,100,112,-1,95,101,115,-1,115,101,114,-1,97,95,116,-1,116,95,115,-1,109,97,117,-1,117,97,116,-1,108,109,118,-1,118,109,117,-1,108,118,104,-1,104,118,119,-1,104,119,111,-1,98,120,121,-1,98,121,102,-1,102,121,122,-1,102,122,103,-1,98,94,120,-1,120,94,123,-1,94,96,123,-1,123,96,124,-1,96,107,124,-1,124,107,125,-1,105,126,127,-1,105,127,106,-1,106,127,125,-1,106,125,107,-1,105,103,126,-1,126,103,122,-1,
        ]
    }
}
Shape{
    appearance Appearance {
        material  Material 	{
            diffuseColor 0.20784313725490197 0.20784313725490197 0.20784313725490197
            specularColor 0.01568627450980392 0.01568627450980392 0.01568627450980392
            ambientIntensity 0.2
            transparency 0
            shininess 0.5
        }
    }
    geometry IndexedFaceSet {
        ccw TRUE
        solid FALSE
        coord DEF co Coordinate {
            point [
                1.0355 0.5838 0.2362, 1.0354 0.5838 0.2362, 1.0359 0.5817 0.2362, 1.035 0.5818 0.2362, 1.0363 0.5804 0.2362, 1.0346 0.5804 0.2362, 1.0437 0.56 0.2362, 1.0272 0.56 0.2362, 1.0272 0.56 0.2362
            ]
        }
        coordIndex [
            0,1,2,-1,2,1,3,-1,2,3,4,-1,4,3,5,-1,4,5,6,-1,6,5,7,-1,
        ]
    }
}
Shape{
    appearance Appearance {
        material  Material 	{
            diffuseColor 1.0 1.0 1.0
            specularColor 0.5019607843137255 0.5019607843137255 0.5019607843137255
            ambientIntensity 0.2
            transparency 0
            shininess 0.5
        }
    }
    geometry IndexedFaceSet {
        ccw TRUE
        solid FALSE
        coord DEF co Coordinate {
            point [
                0.9616 0.5466 0.2402, 0.9616 0.5466 0.2362, 0.9416 0.5466 0.2402, 0.9508 0.5466 0.2362, 0.9416 0.5466 0.2362, 0.9416 0.5631 0.2402, 0.9416 0.5631 0.2362, 0.9591 0.5631 0.2402, 0.9508 0.5631 0.2362, 0.9591 0.5631 0.2362, 0.9591 0.5687 0.2402, 0.9591 0.5687 0.2362, 0.9416 0.5687 0.2362, 0.9416 0.5687 0.2402, 0.9508 0.5687 0.2362, 0.9416 0.5844 0.2362, 0.9416 0.5844 0.2402, 0.9416 0.5834 0.2362, 0.9605 0.5844 0.2362, 0.9605 0.5844 0.2402, 0.9508 0.5844 0.2362, 0.9605 0.5901 0.2402, 0.9605 0.5901 0.2362, 0.9353 0.5901 0.2362, 0.9353 0.5901 0.2402, 0.9508 0.5901 0.2362, 0.9353 0.541 0.2362, 0.9353 0.541 0.2402, 0.9353 0.5834 0.2362, 0.9616 0.541 0.2402, 0.9508 0.541 0.2362, 0.9616 0.541 0.2362, 0.8058 0.5466 0.2362, 0.8058 0.5466 0.2402, 0.8256 0.5466 0.2362, 0.8258 0.5466 0.2402, 0.8258 0.5466 0.2362, 0.8058 0.5631 0.2402, 0.8058 0.5631 0.2362, 0.8233 0.5631 0.2402, 0.8233 0.5631 0.2362, 0.8233 0.5687 0.2402, 0.8233 0.5687 0.2362, 0.8058 0.5687 0.2402, 0.8058 0.5687 0.2362, 0.8058 0.5844 0.2362, 0.8058 0.5844 0.2402, 0.8058 0.5834 0.2362, 0.8247 0.5844 0.2402, 0.8247 0.5844 0.2362, 0.8247 0.5901 0.2402, 0.8247 0.5901 0.2362, 0.7995 0.5901 0.2402, 0.7995 0.5901 0.2362, 0.7995 0.541 0.2362, 0.7995 0.541 0.2402, 0.7995 0.5834 0.2362, 0.8258 0.541 0.2362, 0.8258 0.541 0.2402, 0.8256 0.541 0.2362, 0.9658 0.6377 0.2402, 0.9638 0.6322 0.2402, 0.9823 0.6377 0.2402, 0.9842 0.6322 0.2402, 0.9732 0.6581 0.2402, 0.9708 0.6678 0.2402, 0.9521 0.6188 0.2402, 0.9591 0.6188 0.2402, 0.9736 0.6596 0.2402, 0.974 0.6616 0.2402, 0.9776 0.6678 0.2402, 0.9741 0.6616 0.2402, 0.9745 0.6595 0.2402, 0.9749 0.6581 0.2402, 0.9962 0.6188 0.2402, 0.9892 0.6188 0.2402, 0.9708 0.6678 0.2362, 0.9776 0.6678 0.2362, 0.9521 0.6188 0.2362, 0.9663 0.6559 0.2362, 0.9591 0.6188 0.2362, 0.9638 0.6322 0.2362, 0.9842 0.6322 0.2362, 0.9663 0.6322 0.2362, 0.9892 0.6188 0.2362, 0.9962 0.6188 0.2362, 0.9732 0.6581 0.2362, 0.9736 0.6596 0.2362, 0.974 0.6616 0.2362, 0.9658 0.6377 0.2362, 0.9823 0.6377 0.2362, 0.9749 0.6581 0.2362, 0.9741 0.6616 0.2362, 0.9745 0.6595 0.2362, 0.9745 0.6595 0.2362
            ]
        }
        coordIndex [
            0,1,2,-1,2,1,3,-1,2,3,4,-1,5,2,6,-1,6,2,4,-1,5,6,7,-1,7,6,8,-1,7,8,9,-1,10,7,11,-1,11,7,9,-1,12,13,14,-1,14,13,10,-1,14,10,11,-1,15,16,17,-1,17,16,13,-1,17,13,12,-1,18,19,20,-1,20,19,16,-1,20,16,15,-1,21,19,22,-1,22,19,18,-1,23,24,25,-1,25,24,21,-1,25,21,22,-1,26,27,28,-1,28,27,24,-1,28,24,23,-1,27,26,29,-1,29,26,30,-1,29,30,31,-1,0,29,1,-1,1,29,31,-1,27,29,0,-1,0,2,27,-1,27,2,5,-1,27,5,24,-1,19,21,16,-1,16,21,24,-1,16,24,13,-1,13,24,5,-1,13,5,10,-1,10,5,7,-1,32,33,34,-1,34,33,35,-1,34,35,36,-1,37,33,38,-1,38,33,32,-1,39,37,40,-1,40,37,38,-1,41,39,42,-1,42,39,40,-1,43,41,44,-1,44,41,42,-1,45,46,47,-1,47,46,43,-1,47,43,44,-1,48,46,49,-1,49,46,45,-1,50,48,51,-1,51,48,49,-1,52,50,53,-1,53,50,51,-1,54,55,56,-1,56,55,52,-1,56,52,53,-1,57,58,59,-1,59,58,55,-1,59,55,54,-1,35,58,36,-1,36,58,57,-1,55,58,35,-1,35,33,55,-1,55,33,37,-1,55,37,52,-1,48,50,46,-1,46,50,52,-1,46,52,43,-1,43,52,37,-1,43,37,41,-1,41,37,39,-1,60,61,62,-1,62,61,63,-1,64,65,60,-1,60,65,66,-1,60,66,61,-1,61,66,67,-1,64,68,65,-1,65,68,69,-1,65,69,70,-1,70,69,71,-1,70,71,72,-1,72,73,70,-1,70,73,62,-1,70,62,74,-1,74,62,63,-1,74,63,75,-1,65,70,76,-1,76,70,77,-1,78,66,79,-1,79,66,65,-1,79,65,76,-1,67,66,80,-1,80,66,78,-1,61,67,81,-1,81,67,80,-1,82,63,83,-1,83,63,61,-1,83,61,81,-1,75,63,84,-1,84,63,82,-1,74,75,85,-1,85,75,84,-1,70,74,77,-1,77,74,85,-1,64,86,87,-1,64,87,68,-1,68,87,88,-1,68,88,69,-1,64,60,86,-1,86,60,89,-1,60,62,89,-1,89,62,90,-1,62,73,90,-1,90,73,91,-1,71,92,93,-1,71,93,72,-1,72,93,91,-1,72,91,73,-1,71,69,92,-1,92,69,88,-1,
        ]
    }
}
Shape{
    appearance Appearance {
        material  Material 	{
            diffuseColor 0.20784313725490197 0.20784313725490197 0.20784313725490197
            specularColor 0.01568627450980392 0.01568627450980392 0.01568627450980392
            ambientIntensity 0.2
            transparency 0
            shininess 0.5
        }
    }
    geometry IndexedFaceSet {
        ccw TRUE
        solid FALSE
        coord DEF co Coordinate {
            point [
                0.9741 0.6616 0.2362, 0.974 0.6616 0.2362, 0.9745 0.6595 0.2362, 0.9736 0.6596 0.2362, 0.9749 0.6581 0.2362, 0.9732 0.6581 0.2362, 0.9823 0.6377 0.2362, 0.9658 0.6377 0.2362, 0.9658 0.6377 0.2362
            ]
        }
        coordIndex [
            0,1,2,-1,2,1,3,-1,2,3,4,-1,4,3,5,-1,4,5,6,-1,6,5,7,-1,
        ]
    }
}
Shape{
    appearance Appearance {
        material  Material 	{
            diffuseColor 1.0 1.0 1.0
            specularColor 0.5019607843137255 0.5019607843137255 0.5019607843137255
            ambientIntensity 0.2
            transparency 0
            shininess 0.5
        }
    }
    geometry IndexedFaceSet {
        ccw TRUE
        solid FALSE
        coord DEF co Coordinate {
            point [
                0.8802 0.6244 0.2362, 0.8802 0.6244 0.2402, 0.8934 0.6244 0.2362, 0.9002 0.6244 0.2402, 0.9002 0.6244 0.2362, 0.8802 0.6409 0.2402, 0.8802 0.6409 0.2362, 0.8977 0.6409 0.2402, 0.8934 0.6409 0.2362, 0.8977 0.6409 0.2362, 0.8977 0.6465 0.2402, 0.8977 0.6465 0.2362, 0.8802 0.6465 0.2362, 0.8802 0.6465 0.2402, 0.8934 0.6465 0.2362, 0.8802 0.6622 0.2402, 0.8802 0.6622 0.2362, 0.8991 0.6622 0.2402, 0.8934 0.6622 0.2362, 0.8991 0.6622 0.2362, 0.8991 0.6678 0.2402, 0.8991 0.6678 0.2362, 0.8739 0.6678 0.2362, 0.8739 0.6678 0.2402, 0.8934 0.6678 0.2362, 0.8739 0.6188 0.2402, 0.8739 0.6188 0.2362, 0.9002 0.6188 0.2402, 0.8934 0.6188 0.2362, 0.9002 0.6188 0.2362, 0.8058 0.6244 0.2402, 0.8253 0.6244 0.2402, 0.8058 0.6244 0.2362, 0.8253 0.6244 0.2362, 0.8058 0.6678 0.2402, 0.8058 0.6678 0.2362, 0.7995 0.6678 0.2402, 0.7995 0.6678 0.2362, 0.7995 0.6188 0.2402, 0.7995 0.6188 0.2362, 0.8253 0.6188 0.2402, 0.8253 0.6188 0.2362, 0.8253 0.6188 0.2362
            ]
        }
        coordIndex [
            0,1,2,-1,2,1,3,-1,2,3,4,-1,5,1,6,-1,6,1,0,-1,5,6,7,-1,7,6,8,-1,7,8,9,-1,10,7,11,-1,11,7,9,-1,12,13,14,-1,14,13,10,-1,14,10,11,-1,15,13,16,-1,16,13,12,-1,15,16,17,-1,17,16,18,-1,17,18,19,-1,20,17,21,-1,21,17,19,-1,22,23,24,-1,24,23,20,-1,24,20,21,-1,25,23,26,-1,26,23,22,-1,25,26,27,-1,27,26,28,-1,27,28,29,-1,3,27,4,-1,4,27,29,-1,25,27,3,-1,3,1,25,-1,25,1,5,-1,25,5,23,-1,17,20,15,-1,15,20,23,-1,15,23,13,-1,13,23,5,-1,13,5,10,-1,10,5,7,-1,30,31,32,-1,32,31,33,-1,34,30,35,-1,35,30,32,-1,36,34,37,-1,37,34,35,-1,38,36,39,-1,39,36,37,-1,40,38,41,-1,41,38,39,-1,31,40,33,-1,33,40,41,-1,34,36,30,-1,30,36,38,-1,30,38,31,-1,31,38,40,-1,
        ]
    }
}