#VRML V2.0 utf8
# 3D model generated by easyeda2kicad.py (https://github.com/uPesy/easyeda2kicad.py)

Shape{
    appearance Appearance {
        material  Material 	{
            diffuseColor 0.25098039215686274 0.25098039215686274 0.25098039215686274
            specularColor 0.12549019607843137 0.12549019607843137 0.12549019607843137
            ambientIntensity 0.2
            transparency 0
            shininess 0.5
        }
    }
    geometry IndexedFaceSet {
        ccw TRUE
        solid FALSE
        coord DEF co Coordinate {
            point [
                -0.2503 -0.2634 0.1181, -0.2502 -0.2654 0.1181, -0.0191 -0.3937 0.1181, 0.2851 0.3478 0.1181, 0.2851 0.336 0.1181, 0.2905 0.336 0.1181, 0.3186 0.3229 0.1181, 0.3148 0.3132 0.1181, 0.3195 0.3132 0.1181, 0.3062 0.3133 0.1181, 0.3057 0.3132 0.1181, 0.309 0.3132 0.1181, 0.238 0.3244 0.1181, 0.2397 0.3229 0.1181, 0.2435 0.3249 0.1181, 0.2126 0.3328 0.1181, 0.2133 0.3344 0.1181, -0.0191 0.3344 0.1181, 0.2696 0.3344 0.1181, 0.278 0.3344 0.1181, 0.269 0.3353 0.1181, 0.278 0.348 0.1181, 0.2664 0.3374 0.1181, 0.2537 0.3493 0.1181, 0.2558 0.348 0.1181, 0.258 0.3465 0.1181, 0.2611 0.3429 0.1181, 0.2631 0.339 0.1181, 0.2636 0.3388 0.1181, 0.2404 0.3508 0.1181, 0.2451 0.3514 0.1181, 0.278 0.3937 0.1181, 0.249 0.351 0.1181, 0.236 0.3492 0.1181, -0.0191 0.3937 0.1181, 0.2341 0.348 0.1181, -0.0191 0.348 0.1181, 0.2337 0.3477 0.1181, 0.2141 0.3363 0.1181, 0.2164 0.3392 0.1181, 0.2236 0.3433 0.1181, 0.2273 0.3437 0.1181, 0.2315 0.3458 0.1181, 0.2284 0.3437 0.1181, 0.2295 0.3436 0.1181, 0.2171 0.3398 0.1181, 0.2201 0.3419 0.1181, -0.0191 0.3249 0.1181, 0.212 0.3284 0.1181, 0.212 0.3293 0.1181, 0.2189 0.3155 0.1181, 0.2159 0.318 0.1181, -0.0191 0.3132 0.1181, 0.2223 0.3138 0.1181, 0.2138 0.3211 0.1181, 0.2124 0.3246 0.1181, 0.2124 0.3249 0.1181, 0.2235 0.3135 0.1181, 0.2236 0.3132 0.1181, 0.2245 0.3114 0.1181, 0.2259 0.3097 0.1181, 0.2325 0.307 0.1181, 0.2348 0.3073 0.1181, 0.278 -0.3937 0.1181, 0.2365 0.3079 0.1181, 0.2322 0.307 0.1181, 0.2299 0.3074 0.1181, -0.0191 0.3079 0.1181, 0.2286 0.3079 0.1181, 0.2278 0.3083 0.1181, 0.2414 0.3132 0.1181, 0.2414 0.3132 0.1181, 0.278 0.3079 0.1181, 0.2403 0.3111 0.1181, 0.2388 0.3094 0.1181, 0.237 0.3081 0.1181, 0.278 0.3249 0.1181, 0.2723 0.3249 0.1181, 0.2721 0.3232 0.1181, 0.2535 0.3188 0.1181, 0.2542 0.3191 0.1181, 0.2553 0.3245 0.1181, 0.269 0.3176 0.1181, 0.2664 0.3154 0.1181, 0.278 0.3132 0.1181, 0.253 0.3184 0.1181, 0.2549 0.3192 0.1181, 0.255 0.3192 0.1181, 0.2553 0.3191 0.1181, 0.2709 0.3202 0.1181, 0.252 0.3162 0.1181, 0.252 0.3166 0.1181, 0.242 0.3175 0.1181, 0.2522 0.3173 0.1181, 0.2526 0.318 0.1181, 0.2647 0.3215 0.1181, 0.2657 0.3229 0.1181, 0.2542 0.3134 0.1181, 0.2536 0.3136 0.1181, 0.253 0.3141 0.1181, 0.2527 0.3143 0.1181, 0.2523 0.3149 0.1181, 0.2521 0.3155 0.1181, 0.242 0.3155 0.1181, 0.242 0.3165 0.1181, 0.2635 0.314 0.1181, 0.2603 0.3133 0.1181, 0.2547 0.3133 0.1181, 0.2555 0.3191 0.1181, 0.2598 0.3191 0.1181, 0.2615 0.3194 0.1181, 0.2632 0.3202 0.1181, 0.2646 0.3213 0.1181, 0.2337 0.326 0.1181, 0.236 0.3255 0.1181, 0.2583 0.3344 0.1181, 0.2325 0.3261 0.1181, 0.2664 0.3246 0.1181, 0.2664 0.3249 0.1181, 0.2551 0.3249 0.1181, 0.2666 0.3265 0.1181, 0.2666 0.3273 0.1181, 0.2303 0.3258 0.1181, 0.22 0.3344 0.1181, 0.2282 0.325 0.1181, 0.219 0.333 0.1181, 0.2182 0.3309 0.1181, 0.2187 0.3249 0.1181, 0.228 0.3249 0.1181, 0.218 0.3271 0.1181, 0.2179 0.3286 0.1181, 0.2641 0.332 0.1181, 0.2627 0.333 0.1181, 0.2661 0.3291 0.1181, 0.2652 0.3308 0.1181, 0.2584 0.3339 0.1181, 0.2524 0.3295 0.1181, 0.2592 0.3339 0.1181, 0.261 0.3337 0.1181, 0.2371 0.3249 0.1181, 0.2187 0.3248 0.1181, 0.2247 0.3219 0.1181, 0.2262 0.3237 0.1181, 0.2199 0.3229 0.1181, 0.2216 0.3211 0.1181, 0.2236 0.3198 0.1181, 0.2564 0.3396 0.1181, 0.2542 0.3421 0.1181, 0.2324 0.3366 0.1181, 0.254 0.3423 0.1181, 0.2514 0.3442 0.1181, 0.2339 0.3396 0.1181, 0.2318 0.337 0.1181, 0.2579 0.3365 0.1181, 0.2297 0.3378 0.1181, 0.2274 0.338 0.1181, 0.2264 0.338 0.1181, 0.236 0.3422 0.1181, 0.2484 0.3453 0.1181, 0.2386 0.344 0.1181, 0.2452 0.3457 0.1181, 0.2417 0.3453 0.1181, 0.2241 0.3374 0.1181, 0.222 0.3363 0.1181, 0.2203 0.3349 0.1181, 0.2709 0.3326 0.1181, 0.2721 0.3297 0.1181, 0.2725 0.3266 0.1181, 0.3518 0.3133 0.1181, 0.3288 0.3132 0.1181, 0.3537 0.3133 0.1181, 0.3937 0.3132 0.1181, 0.3493 0.3249 0.1181, 0.3937 0.3249 0.1181, 0.3486 0.3267 0.1181, 0.3399 0.3163 0.1181, 0.3389 0.3152 0.1181, 0.3417 0.3133 0.1181, 0.3375 0.3142 0.1181, 0.336 0.3136 0.1181, 0.3337 0.3133 0.1181, 0.3436 0.3133 0.1181, 0.3449 0.317 0.1181, 0.3504 0.317 0.1181, 0.3395 0.3243 0.1181, 0.3403 0.3231 0.1181, 0.3461 0.3249 0.1181, 0.3408 0.3218 0.1181, 0.3409 0.3202 0.1181, 0.3409 0.3192 0.1181, 0.3405 0.3177 0.1181, 0.3301 0.3133 0.1181, 0.3301 0.3249 0.1181, 0.3288 0.3249 0.1181, 0.3301 0.3267 0.1181, 0.3288 0.3344 0.1181, 0.3339 0.3267 0.1181, 0.3361 0.3264 0.1181, 0.3937 0.3344 0.1181, 0.3468 0.3267 0.1181, 0.3377 0.3258 0.1181, 0.3389 0.3249 0.1181, 0.339 0.3249 0.1181, 0.2851 0.3249 0.1181, 0.2851 0.3209 0.1181, 0.2908 0.3249 0.1181, 0.2899 0.3209 0.1181, 0.2851 0.3193 0.1181, 0.2851 0.3149 0.1181, 0.2899 0.3193 0.1181, 0.2906 0.3149 0.1181, 0.2908 0.3132 0.1181, 0.2906 0.3133 0.1181, 0.2834 0.3133 0.1181, 0.2834 0.3267 0.1181, 0.2834 0.3249 0.1181, 0.2851 0.3251 0.1181, 0.2903 0.3251 0.1181, 0.2903 0.3267 0.1181, 0.2908 0.3344 0.1181, 0.3337 0.3382 0.1181, 0.3288 0.3382 0.1181, 0.3351 0.3345 0.1181, 0.337 0.3345 0.1181, 0.3319 0.3478 0.1181, 0.3937 0.348 0.1181, 0.3288 0.348 0.1181, 0.3282 0.3382 0.1181, 0.3269 0.3345 0.1181, 0.3246 0.3344 0.1181, 0.325 0.3345 0.1181, 0.3246 0.348 0.1181, 0.3288 0.3446 0.1181, 0.33 0.3478 0.1181, 0.309 0.3405 0.1181, 0.3054 0.3405 0.1181, 0.309 0.336 0.1181, 0.3054 0.336 0.1181, 0.3121 0.348 0.1181, 0.309 0.348 0.1181, 0.3105 0.3478 0.1181, 0.309 0.3478 0.1181, 0.3102 0.3405 0.1181, 0.3108 0.336 0.1181, 0.3102 0.342 0.1181, 0.3105 0.3463 0.1181, 0.309 0.342 0.1181, 0.309 0.3463 0.1181, 0.3054 0.3463 0.1181, 0.3054 0.342 0.1181, 0.3037 0.3345 0.1181, 0.3029 0.3344 0.1181, 0.309 0.3344 0.1181, 0.3121 0.3344 0.1181, 0.3108 0.3345 0.1181, 0.309 0.3345 0.1181, 0.3037 0.3478 0.1181, 0.3029 0.348 0.1181, 0.2992 0.348 0.1181, 0.2997 0.3479 0.1181, 0.301 0.3475 0.1181, 0.301 0.3457 0.1181, 0.301 0.3367 0.1181, 0.301 0.3351 0.1181, 0.3008 0.3349 0.1181, 0.2993 0.3345 0.1181, 0.2985 0.3344 0.1181, 0.2982 0.3358 0.1181, 0.2997 0.3361 0.1181, 0.2928 0.3409 0.1181, 0.2928 0.341 0.1181, 0.294 0.3448 0.1181, 0.2934 0.3438 0.1181, 0.293 0.3426 0.1181, 0.3007 0.3459 0.1181, 0.2994 0.3463 0.1181, 0.2944 0.337 0.1181, 0.2952 0.3363 0.1181, 0.2978 0.3465 0.1181, 0.2973 0.3465 0.1181, 0.2961 0.3463 0.1181, 0.2941 0.3372 0.1181, 0.293 0.3393 0.1181, 0.2934 0.3382 0.1181, 0.2962 0.336 0.1181, 0.2975 0.3358 0.1181, 0.2951 0.3458 0.1181, 0.2942 0.345 0.1181, 0.2916 0.3937 0.1181, 0.2978 0.3481 0.1181, 0.3029 0.3937 0.1181, 0.298 0.3481 0.1181, 0.2967 0.348 0.1181, 0.2916 0.348 0.1181, 0.2962 0.3479 0.1181, 0.2947 0.3474 0.1181, 0.292 0.345 0.1181, 0.2929 0.3461 0.1181, 0.2934 0.3466 0.1181, 0.2908 0.348 0.1181, 0.2914 0.3435 0.1181, 0.2916 0.344 0.1181, 0.2916 0.3379 0.1181, 0.2913 0.3388 0.1181, 0.291 0.3409 0.1181, 0.291 0.3418 0.1181, 0.295 0.3346 0.1181, 0.2938 0.3352 0.1181, 0.2916 0.3344 0.1181, 0.2927 0.3361 0.1181, 0.2926 0.3362 0.1181, 0.2918 0.3374 0.1181, 0.2961 0.3344 0.1181, 0.2916 0.3249 0.1181, 0.2965 0.3343 0.1181, 0.2973 0.3343 0.1181, 0.3029 0.3249 0.1181, 0.3238 0.3388 0.1181, 0.3231 0.3375 0.1181, 0.3195 0.348 0.1181, 0.3195 0.3475 0.1181, 0.321 0.3469 0.1181, 0.3195 0.3348 0.1181, 0.3195 0.3344 0.1181, 0.3208 0.3354 0.1181, 0.3222 0.3364 0.1181, 0.3222 0.3461 0.1181, 0.3228 0.3455 0.1181, 0.3236 0.3443 0.1181, 0.3241 0.3429 0.1181, 0.3242 0.3413 0.1181, 0.3242 0.3404 0.1181, 0.3172 0.3478 0.1181, 0.3194 0.3476 0.1181, 0.3193 0.3348 0.1181, 0.317 0.3345 0.1181, 0.3134 0.3345 0.1181, 0.3134 0.3478 0.1181, 0.2968 0.3134 0.1181, 0.2961 0.3132 0.1181, 0.2982 0.3133 0.1181, 0.2931 0.3206 0.1181, 0.2931 0.3222 0.1181, 0.2968 0.3217 0.1181, 0.2962 0.3217 0.1181, 0.2954 0.319 0.1181, 0.2973 0.3138 0.1181, 0.2928 0.3178 0.1181, 0.2933 0.3183 0.1181, 0.294 0.3186 0.1181, 0.2943 0.3213 0.1181, 0.2953 0.3216 0.1181, 0.2936 0.3135 0.1181, 0.293 0.3139 0.1181, 0.2916 0.3132 0.1181, 0.2928 0.314 0.1181, 0.2925 0.3146 0.1181, 0.2982 0.3148 0.1181, 0.2981 0.3148 0.1181, 0.2979 0.3144 0.1181, 0.2923 0.3151 0.1181, 0.2922 0.3159 0.1181, 0.2923 0.3167 0.1181, 0.2925 0.3173 0.1181, 0.3026 0.3188 0.1181, 0.3024 0.3191 0.1181, 0.2999 0.3195 0.1181, 0.3022 0.3196 0.1181, 0.2997 0.3209 0.1181, 0.3021 0.3203 0.1181, 0.2982 0.3194 0.1181, 0.2981 0.3201 0.1181, 0.2979 0.3207 0.1181, 0.2978 0.3211 0.1181, 0.2936 0.3225 0.1181, 0.2949 0.3229 0.1181, 0.2964 0.3231 0.1181, 0.3029 0.3185 0.1181, 0.3021 0.3154 0.1181, 0.3029 0.3185 0.1181, 0.3028 0.315 0.1181, 0.3029 0.3149 0.1181, 0.2976 0.323 0.1181, 0.2982 0.3227 0.1181, 0.3027 0.3219 0.1181, 0.2988 0.3224 0.1181, 0.2975 0.3213 0.1181, 0.2972 0.3215 0.1181, 0.3022 0.3209 0.1181, 0.3024 0.3214 0.1181, 0.2994 0.3216 0.1181, 0.2991 0.3221 0.1181, 0.2961 0.3132 0.1181, 0.3029 0.3079 0.1181, 0.2916 0.3079 0.1181, 0.2952 0.3131 0.1181, 0.2942 0.3132 0.1181, 0.3021 0.3137 0.1181, 0.2999 0.3133 0.1181, 0.3029 0.3134 0.1181, 0.3029 0.3132 0.1181, 0.3033 0.3132 0.1181, 0.3036 0.3132 0.1181, 0.3047 0.3131 0.1181, 0.309 0.3079 0.1181, 0.309 0.3249 0.1181, 0.3081 0.3227 0.1181, 0.3081 0.321 0.1181, 0.308 0.3175 0.1181, 0.3083 0.317 0.1181, 0.3032 0.3223 0.1181, 0.3036 0.3226 0.1181, 0.3029 0.322 0.1181, 0.3085 0.3165 0.1181, 0.3086 0.3159 0.1181, 0.3085 0.3153 0.1181, 0.3083 0.3147 0.1181, 0.308 0.3143 0.1181, 0.3045 0.3229 0.1181, 0.3058 0.3231 0.1181, 0.3068 0.323 0.1181, 0.3075 0.3139 0.1181, 0.3071 0.3136 0.1181, 0.3057 0.3217 0.1181, 0.3052 0.3217 0.1181, 0.3039 0.3204 0.1181, 0.3047 0.3216 0.1181, 0.3044 0.3214 0.1181, 0.3039 0.3202 0.1181, 0.3039 0.32 0.1181, 0.3041 0.3197 0.1181, 0.3042 0.3196 0.1181, 0.3048 0.3192 0.1181, 0.3068 0.3216 0.1181, 0.3058 0.3187 0.1181, 0.3077 0.3213 0.1181, 0.3065 0.3185 0.1181, 0.3076 0.3179 0.1181, 0.3041 0.3211 0.1181, 0.304 0.3209 0.1181, 0.3039 0.3207 0.1181, 0.3038 0.3146 0.1181, 0.3047 0.3175 0.1181, 0.3037 0.318 0.1181, 0.3049 0.3145 0.1181, 0.3049 0.3145 0.1181, 0.3058 0.3171 0.1181, 0.3058 0.3146 0.1181, 0.3068 0.3158 0.1181, 0.3068 0.316 0.1181, 0.3062 0.3147 0.1181, 0.3064 0.3148 0.1181, 0.3066 0.315 0.1181, 0.3067 0.3152 0.1181, 0.3068 0.3154 0.1181, 0.3067 0.3162 0.1181, 0.3066 0.3165 0.1181, 0.3064 0.3167 0.1181, 0.3138 0.3157 0.1181, 0.314 0.3149 0.1181, 0.314 0.3149 0.1181, 0.3195 0.3249 0.1181, 0.3121 0.3249 0.1181, 0.3168 0.3229 0.1181, 0.3121 0.3205 0.1181, 0.3142 0.3157 0.1181, 0.3141 0.3152 0.1181, 0.3121 0.3161 0.1181, 0.3094 0.3229 0.1181, 0.3113 0.3229 0.1181, 0.3131 0.3132 0.1181, 0.3132 0.3134 0.1181, 0.3121 0.3132 0.1181, 0.3124 0.3116 0.1181, 0.3121 0.311 0.1181, 0.3098 0.3105 0.1181, 0.3098 0.309 0.1181, 0.3101 0.3104 0.1181, 0.3107 0.3103 0.1181, 0.3111 0.3103 0.1181, 0.3121 0.3091 0.1181, 0.3115 0.3089 0.1181, 0.3121 0.3079 0.1181, 0.3108 0.3088 0.1181, 0.3105 0.3089 0.1181, 0.3115 0.3105 0.1181, 0.3118 0.3107 0.1181, 0.3142 0.3119 0.1181, 0.3135 0.3104 0.1181, 0.3195 0.3079 0.1181, 0.3129 0.3097 0.1181, 0.3128 0.3096 0.1181, 0.3122 0.3092 0.1181, 0.3221 0.3193 0.1181, 0.3221 0.3149 0.1181, 0.3246 0.3149 0.1181, 0.3276 0.3149 0.1181, 0.3276 0.3133 0.1181, 0.3246 0.3132 0.1181, 0.3269 0.3193 0.1181, 0.3246 0.3193 0.1181, 0.3221 0.3249 0.1181, 0.3221 0.3209 0.1181, 0.3246 0.3209 0.1181, 0.3221 0.3251 0.1181, 0.3246 0.3249 0.1181, 0.3269 0.3209 0.1181, 0.3204 0.3133 0.1181, 0.3204 0.3249 0.1181, 0.3204 0.3267 0.1181, 0.3246 0.3133 0.1181, 0.309 0.3937 0.1181, 0.3121 0.3937 0.1181, 0.3195 0.3937 0.1181, 0.3246 0.3937 0.1181, 0.3288 0.3937 0.1181, 0.3937 0.3937 0.1181, 0.2908 0.3937 0.1181, 0.2834 0.3345 0.1181, 0.2834 0.3478 0.1181, 0.2905 0.3345 0.1181, 0.3246 0.3267 0.1181, 0.3272 0.3267 0.1181, 0.3272 0.3251 0.1181, 0.3246 0.3251 0.1181, 0.3246 0.3079 0.1181, 0.3288 0.3079 0.1181, 0.3937 0.3079 0.1181, 0.2908 0.3079 0.1181, 0.2908 -0.3937 0.1181, 0.2916 -0.3937 0.1181, 0.3029 -0.3937 0.1181, 0.309 -0.3937 0.1181, 0.3121 -0.3937 0.1181, 0.3195 -0.3937 0.1181, 0.3246 -0.3937 0.1181, 0.3288 -0.3937 0.1181, 0.3937 -0.3937 0.1181, -0.2514 -0.275 0.1181, -0.2549 -0.284 0.1181, -0.2606 -0.292 0.1181, -0.2831 -0.3041 0.1181, -0.3937 -0.3937 0.1181, -0.2738 -0.3014 0.1181, -0.2654 -0.2964 0.1181, -0.3275 -0.2751 0.1181, -0.3287 -0.2655 0.1181, -0.287 -0.2263 0.1181, -0.2776 -0.2281 0.1181, -0.2686 -0.2322 0.1181, -0.2928 -0.3045 0.1181, -0.3024 -0.3025 0.1181, -0.311 -0.2982 0.1181, -0.2617 -0.2377 0.1181, -0.2557 -0.2454 0.1181, -0.2518 -0.2543 0.1181, -0.3183 -0.292 0.1181, -0.3239 -0.2842 0.1181, -0.2966 -0.2269 0.1181, -0.3937 0.3079 0.1181, -0.3937 0.3132 0.1181, -0.3937 0.3249 0.1181, -0.3937 0.3344 0.1181, -0.3937 0.348 0.1181, -0.3937 0.3937 0.1181, -0.3287 -0.2653 0.1181, -0.3274 -0.2556 0.1181, -0.3238 -0.2466 0.1181, -0.3182 -0.2387 0.1181, -0.3139 -0.2348 0.1181, -0.3059 -0.2298 0.1181, -0.3494 0.25 0.0, -0.3937 0.25 0.0, -0.3937 0.3937 0.0, -0.1969 -0.3937 0.0, -0.3494 -0.3937 0.0, -0.3494 -0.3839 0.0, -0.3543 -0.2047 0.0, -0.3937 -0.25 0.0, -0.3543 0.2047 0.0, -0.3494 0.2047 0.0, -0.1969 0.2047 0.0, -0.1969 0.25 0.0, 0.0 0.2047 0.0, 0.0 0.25 0.0, 0.1969 0.2047 0.0, 0.1969 0.25 0.0, 0.3494 0.2047 0.0, 0.3494 0.25 0.0, 0.3543 0.2047 0.0, 0.3937 -0.25 0.0, 0.3543 -0.2047 0.0, 0.3937 0.25 0.0, 0.3494 -0.2047 0.0, 0.3494 -0.25 0.0, 0.1969 -0.2047 0.0, 0.1969 -0.25 0.0, 0.0 -0.2047 0.0, 0.0 -0.25 0.0, -0.1969 -0.2047 0.0, -0.1969 -0.25 0.0, -0.3494 -0.2047 0.0, -0.3494 -0.25 0.0, -0.1969 -0.3839 0.0, 0.0 -0.3937 0.0, 0.0 -0.3839 0.0, 0.1969 -0.3937 0.0, 0.1969 -0.3839 0.0, 0.3494 -0.3937 0.0, 0.3494 -0.3839 0.0, 0.3937 -0.3937 0.0, 0.3937 -0.3839 0.0, 0.3445 -0.374 0.0, 0.3445 -0.2953 0.0, 0.2461 -0.374 0.0, 0.2461 -0.2953 0.0, 0.1476 -0.2953 0.0, 0.1476 -0.374 0.0, 0.0492 -0.374 0.0, 0.0492 -0.2953 0.0, -0.0492 -0.2953 0.0, -0.0492 -0.374 0.0, -0.1476 -0.374 0.0, -0.1476 -0.2953 0.0, -0.3445 -0.3346 0.0, -0.3051 -0.374 0.0, -0.2461 -0.374 0.0, -0.2461 -0.2953 0.0, -0.3445 -0.2953 0.0, -0.3937 -0.3839 0.0, -0.3937 -0.3937 0.0, 0.3494 0.3937 0.0, 0.3937 0.3937 0.0, 0.3445 0.2953 0.0, 0.2461 0.2953 0.0, 0.2461 0.374 0.0, 0.1969 0.3937 0.0, 0.3445 0.374 0.0, 0.1476 0.2953 0.0, 0.0492 0.2953 0.0, 0.0492 0.374 0.0, 0.0 0.3937 0.0, 0.1476 0.374 0.0, -0.0492 0.2953 0.0, -0.1476 0.2953 0.0, -0.1476 0.374 0.0, -0.1969 0.3937 0.0, -0.0492 0.374 0.0, -0.3494 0.3937 0.0, -0.3445 0.2953 0.0, -0.2461 0.2953 0.0, -0.2461 0.374 0.0, -0.3445 0.374 0.0, -0.3445 0.374 0.0
            ]
        }
        coordIndex [
            0,1,2,-1,3,4,5,-1,6,7,8,-1,9,10,11,-1,12,13,14,-1,15,16,17,-1,18,19,20,-1,20,19,21,-1,20,21,22,-1,23,24,21,-1,21,24,25,-1,21,25,26,-1,26,27,21,-1,21,27,28,-1,21,28,22,-1,29,30,31,-1,31,30,32,-1,31,32,23,-1,29,31,33,-1,33,31,34,-1,33,34,35,-1,35,34,36,-1,35,36,37,-1,17,16,36,-1,36,16,38,-1,36,38,39,-1,36,40,37,-1,37,40,41,-1,37,41,42,-1,42,41,43,-1,42,43,44,-1,39,45,36,-1,36,45,46,-1,36,46,40,-1,47,48,17,-1,17,48,49,-1,17,49,15,-1,50,51,52,-1,50,52,53,-1,51,54,52,-1,52,54,55,-1,52,55,47,-1,47,55,56,-1,47,56,48,-1,57,53,58,-1,58,53,52,-1,58,52,59,-1,59,52,60,-1,61,2,62,-1,62,2,63,-1,62,63,64,-1,61,65,2,-1,2,65,66,-1,2,66,67,-1,67,66,68,-1,67,68,52,-1,52,68,69,-1,52,69,60,-1,70,71,72,-1,72,71,73,-1,73,74,72,-1,72,74,75,-1,72,75,64,-1,76,77,78,-1,79,80,81,-1,82,83,84,-1,79,81,85,-1,80,86,81,-1,81,86,87,-1,81,87,88,-1,76,78,84,-1,84,78,89,-1,84,89,82,-1,90,91,92,-1,92,91,93,-1,92,93,81,-1,81,93,94,-1,81,94,85,-1,81,95,96,-1,97,98,70,-1,70,98,99,-1,70,99,100,-1,100,101,70,-1,70,101,102,-1,70,102,103,-1,103,102,90,-1,103,90,104,-1,104,90,92,-1,83,105,84,-1,84,105,106,-1,84,106,70,-1,70,106,107,-1,70,107,97,-1,88,108,81,-1,81,108,109,-1,81,109,110,-1,110,111,81,-1,81,111,112,-1,81,112,95,-1,113,114,115,-1,113,115,116,-1,96,117,81,-1,81,117,118,-1,81,118,119,-1,119,118,120,-1,119,120,121,-1,122,123,124,-1,124,123,125,-1,124,125,126,-1,127,128,129,-1,129,128,124,-1,129,124,130,-1,130,124,126,-1,119,131,132,-1,121,133,119,-1,119,133,134,-1,119,134,131,-1,135,136,137,-1,137,136,119,-1,137,119,138,-1,138,119,132,-1,135,115,136,-1,136,115,114,-1,136,114,14,-1,14,114,139,-1,14,139,12,-1,140,141,127,-1,127,141,142,-1,127,142,128,-1,140,143,141,-1,141,143,144,-1,141,144,145,-1,146,147,148,-1,147,149,148,-1,148,149,150,-1,148,150,151,-1,123,148,152,-1,122,116,123,-1,123,116,115,-1,123,115,148,-1,148,115,153,-1,148,153,146,-1,152,154,123,-1,123,154,155,-1,123,155,156,-1,151,150,157,-1,157,150,158,-1,157,158,159,-1,159,158,160,-1,159,160,161,-1,162,163,156,-1,156,163,164,-1,156,164,123,-1,18,165,19,-1,19,165,166,-1,19,166,76,-1,76,166,167,-1,76,167,77,-1,168,169,170,-1,170,169,171,-1,170,171,172,-1,172,171,173,-1,172,173,174,-1,175,176,177,-1,177,176,178,-1,177,178,179,-1,179,180,177,-1,177,180,169,-1,177,169,181,-1,181,169,168,-1,181,168,182,-1,182,168,183,-1,184,185,186,-1,186,185,187,-1,187,188,186,-1,186,188,189,-1,186,189,177,-1,177,189,190,-1,177,190,175,-1,191,192,193,-1,193,192,194,-1,193,194,195,-1,195,194,196,-1,195,196,197,-1,173,198,174,-1,174,198,195,-1,174,195,199,-1,199,195,197,-1,197,200,199,-1,199,200,201,-1,199,201,186,-1,186,201,202,-1,186,202,184,-1,203,204,205,-1,205,204,206,-1,207,208,209,-1,209,208,210,-1,206,209,205,-1,205,209,210,-1,205,210,211,-1,211,210,212,-1,211,212,213,-1,214,19,215,-1,215,19,76,-1,215,76,213,-1,213,76,84,-1,213,84,211,-1,216,203,217,-1,217,203,205,-1,217,205,218,-1,218,205,219,-1,218,219,214,-1,220,221,222,-1,222,221,195,-1,222,195,223,-1,223,195,198,-1,223,198,224,-1,224,198,225,-1,224,225,226,-1,221,227,195,-1,195,227,228,-1,195,228,229,-1,229,228,230,-1,229,230,231,-1,231,230,232,-1,231,232,226,-1,226,232,233,-1,226,233,224,-1,234,235,236,-1,236,235,237,-1,238,239,240,-1,240,239,241,-1,234,236,242,-1,242,236,243,-1,242,243,244,-1,244,243,245,-1,244,245,246,-1,245,247,246,-1,246,247,248,-1,246,248,249,-1,250,251,252,-1,240,245,238,-1,238,245,243,-1,238,243,253,-1,253,243,254,-1,253,254,252,-1,252,254,255,-1,252,255,250,-1,241,239,256,-1,256,239,257,-1,256,257,250,-1,258,259,257,-1,257,259,260,-1,257,260,261,-1,262,263,251,-1,263,264,251,-1,251,264,265,-1,251,265,266,-1,267,268,269,-1,269,268,262,-1,269,262,270,-1,271,272,262,-1,262,272,273,-1,262,273,270,-1,250,257,251,-1,251,257,261,-1,251,261,262,-1,262,261,274,-1,262,274,275,-1,269,276,277,-1,275,278,262,-1,262,278,279,-1,262,279,280,-1,276,269,281,-1,281,269,282,-1,281,282,283,-1,277,284,269,-1,269,284,285,-1,269,285,267,-1,280,286,262,-1,262,286,287,-1,262,287,271,-1,288,289,290,-1,290,289,291,-1,290,291,258,-1,292,293,294,-1,294,293,295,-1,296,297,293,-1,293,297,298,-1,293,298,295,-1,299,300,293,-1,293,300,301,-1,293,301,296,-1,302,303,219,-1,219,303,304,-1,219,304,299,-1,299,304,305,-1,299,305,300,-1,306,307,308,-1,307,309,308,-1,308,309,310,-1,308,310,311,-1,306,308,312,-1,312,308,313,-1,312,313,314,-1,314,313,315,-1,315,313,316,-1,315,316,266,-1,317,318,229,-1,319,320,231,-1,231,320,321,-1,322,323,324,-1,324,323,229,-1,324,229,325,-1,325,229,318,-1,321,326,231,-1,231,326,327,-1,231,327,328,-1,328,329,231,-1,231,329,330,-1,231,330,229,-1,229,330,331,-1,229,331,317,-1,238,332,319,-1,319,332,333,-1,319,333,320,-1,322,334,323,-1,323,334,335,-1,323,335,253,-1,253,335,336,-1,253,336,238,-1,238,336,337,-1,238,337,332,-1,338,339,340,-1,341,342,313,-1,343,344,345,-1,338,340,346,-1,347,348,341,-1,341,348,349,-1,341,349,350,-1,350,349,345,-1,350,345,351,-1,351,345,344,-1,352,353,354,-1,354,353,355,-1,354,355,356,-1,357,358,340,-1,340,358,359,-1,340,359,346,-1,356,360,354,-1,354,360,361,-1,354,361,313,-1,313,361,362,-1,313,362,341,-1,341,362,363,-1,341,363,347,-1,364,365,366,-1,366,365,367,-1,366,367,368,-1,368,367,369,-1,370,371,345,-1,345,371,372,-1,345,372,373,-1,342,374,313,-1,313,374,375,-1,313,375,376,-1,377,378,379,-1,379,378,380,-1,379,380,381,-1,382,383,384,-1,384,383,385,-1,373,386,345,-1,345,386,387,-1,345,387,343,-1,369,388,368,-1,368,388,389,-1,368,389,390,-1,390,389,384,-1,390,384,391,-1,391,384,385,-1,339,392,393,-1,393,392,394,-1,394,392,395,-1,394,395,396,-1,377,364,378,-1,378,364,366,-1,378,366,397,-1,397,366,398,-1,397,398,399,-1,399,398,400,-1,399,400,401,-1,401,400,402,-1,403,402,393,-1,393,402,400,-1,393,400,339,-1,339,400,398,-1,339,398,340,-1,403,393,10,-1,10,393,404,-1,10,404,11,-1,405,406,407,-1,408,409,407,-1,410,411,316,-1,376,382,313,-1,313,382,384,-1,313,384,316,-1,316,384,412,-1,316,412,410,-1,413,414,11,-1,414,415,11,-1,11,415,416,-1,11,416,417,-1,411,418,316,-1,316,418,419,-1,316,419,405,-1,405,419,420,-1,405,420,406,-1,417,421,11,-1,11,421,422,-1,11,422,9,-1,423,424,425,-1,425,424,426,-1,425,426,427,-1,425,428,423,-1,423,428,429,-1,423,429,430,-1,430,431,423,-1,423,431,432,-1,423,432,433,-1,433,432,434,-1,433,434,435,-1,435,434,436,-1,435,436,407,-1,407,436,437,-1,407,437,408,-1,438,439,427,-1,427,439,440,-1,427,440,425,-1,441,442,381,-1,381,442,443,-1,381,443,379,-1,441,444,442,-1,442,444,445,-1,442,445,446,-1,446,445,447,-1,446,448,449,-1,447,450,446,-1,446,450,451,-1,446,451,452,-1,452,453,446,-1,446,453,454,-1,446,454,448,-1,449,455,446,-1,446,455,456,-1,446,456,457,-1,458,459,460,-1,461,462,463,-1,463,462,464,-1,463,464,465,-1,465,464,458,-1,465,458,466,-1,466,458,460,-1,467,468,11,-1,409,413,407,-1,407,413,11,-1,407,11,405,-1,405,11,468,-1,405,468,462,-1,462,468,469,-1,462,469,464,-1,470,471,467,-1,470,472,473,-1,473,472,474,-1,470,467,472,-1,472,467,11,-1,472,11,475,-1,475,11,404,-1,475,404,476,-1,475,477,472,-1,472,477,478,-1,472,478,479,-1,480,481,482,-1,482,481,483,-1,482,483,404,-1,404,483,484,-1,404,484,476,-1,479,485,472,-1,472,485,486,-1,472,486,474,-1,487,488,489,-1,487,489,7,-1,488,490,489,-1,489,490,491,-1,489,491,482,-1,482,491,492,-1,482,492,480,-1,493,494,495,-1,496,497,169,-1,169,497,498,-1,180,191,169,-1,169,191,193,-1,169,193,496,-1,496,193,499,-1,496,499,495,-1,495,499,500,-1,495,500,493,-1,501,502,503,-1,504,501,505,-1,505,501,503,-1,505,503,193,-1,193,503,506,-1,193,506,499,-1,507,508,461,-1,461,508,509,-1,497,510,498,-1,498,510,507,-1,498,507,8,-1,8,507,461,-1,8,461,6,-1,6,461,463,-1,258,257,290,-1,290,257,239,-1,290,239,511,-1,511,239,238,-1,511,238,512,-1,512,238,319,-1,512,319,513,-1,513,319,231,-1,513,231,514,-1,514,231,226,-1,514,226,515,-1,515,226,225,-1,515,225,516,-1,23,21,31,-1,31,21,299,-1,31,299,517,-1,517,299,293,-1,517,293,288,-1,288,293,292,-1,288,292,289,-1,214,219,19,-1,19,219,518,-1,19,518,21,-1,518,519,21,-1,21,519,3,-1,21,3,299,-1,299,3,5,-1,299,5,219,-1,219,5,520,-1,219,520,518,-1,266,316,251,-1,251,316,405,-1,251,405,252,-1,252,405,462,-1,252,462,253,-1,253,462,461,-1,253,461,323,-1,323,461,509,-1,323,509,229,-1,229,509,521,-1,229,521,195,-1,195,521,522,-1,195,522,193,-1,193,522,523,-1,193,523,505,-1,505,523,524,-1,505,524,504,-1,311,302,308,-1,308,302,219,-1,308,219,313,-1,313,219,205,-1,313,205,354,-1,354,205,211,-1,7,489,8,-1,8,489,525,-1,8,525,498,-1,498,525,526,-1,498,526,169,-1,169,526,527,-1,169,527,171,-1,70,72,84,-1,84,72,528,-1,84,528,211,-1,211,528,394,-1,211,394,354,-1,354,394,396,-1,354,396,352,-1,64,63,72,-1,72,63,529,-1,72,529,528,-1,528,529,530,-1,528,530,394,-1,394,530,531,-1,394,531,393,-1,393,531,532,-1,393,532,404,-1,404,532,533,-1,404,533,482,-1,482,533,534,-1,482,534,489,-1,489,534,535,-1,489,535,525,-1,525,535,536,-1,525,536,526,-1,526,536,537,-1,526,537,527,-1,1,538,2,-1,2,538,539,-1,2,539,540,-1,541,542,543,-1,543,542,2,-1,543,2,544,-1,544,2,540,-1,542,545,546,-1,547,548,67,-1,67,548,549,-1,541,550,542,-1,542,550,551,-1,542,551,552,-1,549,553,67,-1,67,553,554,-1,67,554,2,-1,2,554,555,-1,2,555,0,-1,552,556,542,-1,542,556,557,-1,542,557,545,-1,558,547,559,-1,559,547,67,-1,559,67,560,-1,560,67,52,-1,560,52,561,-1,561,52,47,-1,561,47,562,-1,562,47,17,-1,562,17,563,-1,563,17,36,-1,563,36,564,-1,564,36,34,-1,546,565,542,-1,542,565,566,-1,542,566,559,-1,559,566,567,-1,559,567,568,-1,568,569,559,-1,559,569,570,-1,559,570,558,-1,571,572,573,-1,574,575,576,-1,577,578,579,-1,579,578,572,-1,579,572,580,-1,580,572,571,-1,580,571,581,-1,581,571,582,-1,581,582,583,-1,583,582,584,-1,583,584,585,-1,585,584,586,-1,585,586,587,-1,587,586,588,-1,587,588,589,-1,590,591,592,-1,592,591,589,-1,593,594,595,-1,595,594,596,-1,595,596,597,-1,597,596,598,-1,597,598,599,-1,599,598,600,-1,599,600,601,-1,601,600,602,-1,601,602,577,-1,574,603,604,-1,604,603,605,-1,604,605,606,-1,606,605,607,-1,606,607,608,-1,608,607,609,-1,608,609,610,-1,611,594,590,-1,590,594,593,-1,590,593,591,-1,609,612,613,-1,612,609,614,-1,614,609,607,-1,614,607,615,-1,615,607,596,-1,615,596,613,-1,613,596,594,-1,613,594,609,-1,609,594,611,-1,609,611,610,-1,616,596,617,-1,617,596,607,-1,617,607,618,-1,618,607,605,-1,618,605,619,-1,619,605,598,-1,619,598,616,-1,616,598,596,-1,620,598,621,-1,621,598,605,-1,621,605,622,-1,622,605,603,-1,622,603,623,-1,623,603,600,-1,623,600,620,-1,620,600,598,-1,602,624,576,-1,576,624,625,-1,576,625,626,-1,574,576,603,-1,603,576,626,-1,603,626,600,-1,600,626,627,-1,600,627,602,-1,602,627,628,-1,602,628,624,-1,577,602,578,-1,578,602,576,-1,578,576,629,-1,629,576,575,-1,629,575,630,-1,589,588,592,-1,592,588,631,-1,592,631,632,-1,633,588,634,-1,634,588,586,-1,634,586,635,-1,635,586,636,-1,635,636,637,-1,637,636,631,-1,637,631,633,-1,633,631,588,-1,638,586,639,-1,639,586,584,-1,639,584,640,-1,640,584,641,-1,640,641,642,-1,642,641,636,-1,642,636,638,-1,638,636,586,-1,643,584,644,-1,644,584,582,-1,644,582,645,-1,645,582,646,-1,645,646,647,-1,647,646,641,-1,647,641,643,-1,643,641,584,-1,573,648,571,-1,571,648,649,-1,571,649,582,-1,582,649,650,-1,582,650,646,-1,646,650,651,-1,646,651,648,-1,648,651,652,-1,648,652,649,-1,610,611,537,-1,537,611,590,-1,537,590,516,-1,516,590,592,-1,516,592,632,-1,648,573,564,-1,516,632,631,-1,631,636,516,-1,516,636,641,-1,516,641,564,-1,564,641,646,-1,564,646,648,-1,629,630,542,-1,564,573,572,-1,564,572,542,-1,542,572,578,-1,542,578,629,-1,608,610,537,-1,542,630,575,-1,575,574,542,-1,542,574,604,-1,542,604,537,-1,537,604,606,-1,537,606,608,-1,
        ]
    }
}
Shape{
    appearance Appearance {
        material  Material 	{
            diffuseColor 0.7529411764705882 0.7529411764705882 0.7529411764705882
            specularColor 0.3764705882352941 0.3764705882352941 0.3764705882352941
            ambientIntensity 0.2
            transparency 0
            shininess 0.5
        }
    }
    geometry IndexedFaceSet {
        ccw TRUE
        solid FALSE
        coord DEF co Coordinate {
            point [
                -0.2514 -0.275 0.1142, -0.2502 -0.2654 0.1181, -0.2502 -0.2654 0.1142, -0.2503 -0.2634 0.1181, -0.2503 -0.2634 0.1142, -0.2518 -0.2543 0.1181, -0.2518 -0.2543 0.1142, -0.2557 -0.2454 0.1181, -0.2557 -0.2454 0.1142, -0.2617 -0.2377 0.1181, -0.2617 -0.2377 0.1142, -0.2686 -0.2322 0.1181, -0.2686 -0.2322 0.1142, -0.2776 -0.2281 0.1181, -0.2776 -0.2281 0.1142, -0.287 -0.2263 0.1181, -0.287 -0.2263 0.1142, -0.2966 -0.2269 0.1181, -0.2966 -0.2269 0.1142, -0.3059 -0.2298 0.1181, -0.3059 -0.2298 0.1142, -0.3139 -0.2348 0.1181, -0.3139 -0.2348 0.1142, -0.3182 -0.2387 0.1181, -0.3182 -0.2387 0.1142, -0.3238 -0.2466 0.1181, -0.3238 -0.2466 0.1142, -0.3274 -0.2556 0.1181, -0.3274 -0.2556 0.1142, -0.3287 -0.2653 0.1181, -0.3287 -0.2653 0.1142, -0.3287 -0.2655 0.1181, -0.3287 -0.2655 0.1142, -0.3275 -0.2751 0.1181, -0.3275 -0.2751 0.1142, -0.3239 -0.2842 0.1181, -0.3239 -0.2842 0.1142, -0.3183 -0.292 0.1181, -0.3183 -0.292 0.1142, -0.311 -0.2982 0.1181, -0.311 -0.2982 0.1142, -0.3024 -0.3025 0.1181, -0.3024 -0.3025 0.1142, -0.2928 -0.3045 0.1181, -0.2928 -0.3045 0.1142, -0.2831 -0.3041 0.1181, -0.2831 -0.3041 0.1142, -0.2738 -0.3014 0.1181, -0.2738 -0.3014 0.1142, -0.2654 -0.2964 0.1181, -0.2654 -0.2964 0.1142, -0.2606 -0.292 0.1181, -0.2606 -0.292 0.1142, -0.2549 -0.284 0.1181, -0.2549 -0.284 0.1142, -0.2514 -0.275 0.1181, -0.2461 0.2953 -0.0118, -0.2461 0.374 -0.0118, -0.2461 0.2953 0.0, -0.2461 0.374 0.0, -0.3445 0.2953 -0.0118, -0.3445 0.2953 0.0, -0.3445 0.374 -0.0118, -0.3445 0.374 0.0, -0.2461 -0.2953 -0.0118, -0.3445 -0.2953 -0.0118, -0.2461 -0.2953 0.0, -0.3445 -0.2953 0.0, -0.2461 -0.374 -0.0118, -0.2461 -0.374 0.0, -0.3051 -0.374 -0.0118, -0.3051 -0.374 0.0, -0.3445 -0.3346 0.0, -0.3445 -0.3346 -0.0118, -0.1476 -0.2953 -0.0118, -0.1476 -0.374 -0.0118, -0.1476 -0.2953 0.0, -0.1476 -0.374 0.0, -0.0492 -0.2953 -0.0118, -0.0492 -0.2953 0.0, -0.0492 -0.374 -0.0118, -0.0492 -0.374 0.0, -0.0492 0.374 -0.0118, -0.1476 0.374 -0.0118, -0.0492 0.374 0.0, -0.1476 0.374 0.0, -0.0492 0.2953 -0.0118, -0.0492 0.2953 0.0, -0.1476 0.2953 -0.0118, -0.1476 0.2953 0.0, 0.1476 0.374 -0.0118, 0.0492 0.374 -0.0118, 0.1476 0.374 0.0, 0.0492 0.374 0.0, 0.1476 0.2953 -0.0118, 0.1476 0.2953 0.0, 0.0492 0.2953 -0.0118, 0.0492 0.2953 0.0, 0.3445 0.374 -0.0118, 0.2461 0.374 -0.0118, 0.3445 0.374 0.0, 0.2461 0.374 0.0, 0.3445 0.2953 -0.0118, 0.3445 0.2953 0.0, 0.2461 0.2953 -0.0118, 0.2461 0.2953 0.0, 0.2461 -0.2953 -0.0118, 0.2461 -0.374 -0.0118, 0.2461 -0.2953 0.0, 0.2461 -0.374 0.0, 0.3445 -0.2953 -0.0118, 0.3445 -0.2953 0.0, 0.3445 -0.374 -0.0118, 0.3445 -0.374 0.0, 0.0492 -0.2953 -0.0118, 0.0492 -0.374 -0.0118, 0.0492 -0.2953 0.0, 0.0492 -0.374 0.0, 0.1476 -0.2953 -0.0118, 0.1476 -0.2953 0.0, 0.1476 -0.374 -0.0118, 0.1476 -0.374 0.0, -0.3543 0.2047 -0.0118, -0.3543 -0.2047 -0.0118, -0.3543 0.2047 0.0, -0.3543 -0.2047 0.0, 0.3494 0.2047 0.0, 0.3543 0.2047 0.0, 0.3543 0.2047 -0.0118, -0.3494 0.2047 0.0, -0.1969 0.2047 0.0, 0.0 0.2047 0.0, 0.1969 0.2047 0.0, 0.3543 -0.2047 -0.0118, 0.3543 -0.2047 0.0, -0.3494 -0.2047 0.0, 0.3494 -0.2047 0.0, 0.1969 -0.2047 0.0, 0.0 -0.2047 0.0, -0.1969 -0.2047 0.0, -0.1969 -0.2047 0.0
            ]
        }
        coordIndex [
            0,1,2,-1,2,1,3,-1,2,3,4,-1,4,3,5,-1,4,5,6,-1,6,5,7,-1,6,7,8,-1,8,7,9,-1,8,9,10,-1,10,9,11,-1,10,11,12,-1,12,11,13,-1,12,13,14,-1,14,13,15,-1,14,15,16,-1,16,15,17,-1,16,17,18,-1,18,17,19,-1,18,19,20,-1,20,19,21,-1,20,21,22,-1,22,21,23,-1,22,23,24,-1,24,23,25,-1,24,25,26,-1,26,25,27,-1,26,27,28,-1,28,27,29,-1,28,29,30,-1,30,29,31,-1,30,31,32,-1,32,31,33,-1,32,33,34,-1,34,33,35,-1,34,35,36,-1,36,35,37,-1,36,37,38,-1,38,37,39,-1,38,39,40,-1,40,39,41,-1,40,41,42,-1,42,41,43,-1,42,43,44,-1,44,43,45,-1,44,45,46,-1,46,45,47,-1,46,47,48,-1,48,47,49,-1,48,49,50,-1,50,49,51,-1,50,51,52,-1,52,51,53,-1,52,53,54,-1,54,53,55,-1,54,55,0,-1,0,55,1,-1,8,10,22,-1,22,10,12,-1,4,24,26,-1,34,36,50,-1,54,0,32,-1,32,0,2,-1,32,2,4,-1,24,4,22,-1,22,4,6,-1,22,6,8,-1,26,28,4,-1,4,28,30,-1,4,30,32,-1,34,50,32,-1,32,50,52,-1,32,52,54,-1,12,14,16,-1,44,46,42,-1,42,46,40,-1,36,38,50,-1,50,38,40,-1,50,40,48,-1,48,40,46,-1,16,18,12,-1,12,18,20,-1,12,20,22,-1,56,57,58,-1,58,57,59,-1,60,56,61,-1,61,56,58,-1,62,60,63,-1,63,60,61,-1,57,62,59,-1,59,62,63,-1,60,62,56,-1,56,62,57,-1,64,65,66,-1,66,65,67,-1,68,64,69,-1,69,64,66,-1,70,68,71,-1,71,68,69,-1,72,67,73,-1,73,67,65,-1,68,70,64,-1,64,70,73,-1,64,73,65,-1,74,75,76,-1,76,75,77,-1,78,74,79,-1,79,74,76,-1,80,78,81,-1,81,78,79,-1,75,80,77,-1,77,80,81,-1,78,80,74,-1,74,80,75,-1,82,83,84,-1,84,83,85,-1,86,82,87,-1,87,82,84,-1,88,86,89,-1,89,86,87,-1,83,88,85,-1,85,88,89,-1,86,88,82,-1,82,88,83,-1,90,91,92,-1,92,91,93,-1,94,90,95,-1,95,90,92,-1,96,94,97,-1,97,94,95,-1,91,96,93,-1,93,96,97,-1,94,96,90,-1,90,96,91,-1,98,99,100,-1,100,99,101,-1,102,98,103,-1,103,98,100,-1,104,102,105,-1,105,102,103,-1,99,104,101,-1,101,104,105,-1,102,104,98,-1,98,104,99,-1,106,107,108,-1,108,107,109,-1,110,106,111,-1,111,106,108,-1,112,110,113,-1,113,110,111,-1,107,112,109,-1,109,112,113,-1,110,112,106,-1,106,112,107,-1,114,115,116,-1,116,115,117,-1,118,114,119,-1,119,114,116,-1,120,118,121,-1,121,118,119,-1,115,120,117,-1,117,120,121,-1,118,120,114,-1,114,120,115,-1,71,72,70,-1,70,72,73,-1,122,123,124,-1,124,123,125,-1,126,127,128,-1,122,124,129,-1,129,130,122,-1,122,130,131,-1,122,131,128,-1,128,131,132,-1,128,132,126,-1,133,128,134,-1,134,128,127,-1,135,125,123,-1,133,134,136,-1,136,137,133,-1,133,137,138,-1,133,138,123,-1,123,138,139,-1,123,139,135,-1,128,133,122,-1,122,133,123,-1,
        ]
    }
}
Shape{
    appearance Appearance {
        material  Material 	{
            diffuseColor 1.0 1.0 1.0
            specularColor 0.5019607843137255 0.5019607843137255 0.5019607843137255
            ambientIntensity 0.2
            transparency 0
            shininess 0.5
        }
    }
    geometry IndexedFaceSet {
        ccw TRUE
        solid FALSE
        coord DEF co Coordinate {
            point [
                0.2905 0.336 0.122, 0.2905 0.3345 0.122, 0.2905 0.336 0.1181, 0.2905 0.3345 0.1181, 0.2851 0.336 0.122, 0.2851 0.336 0.1181, 0.2851 0.3478 0.122, 0.2851 0.3478 0.1181, 0.2834 0.3478 0.122, 0.2834 0.3478 0.1181, 0.2834 0.3345 0.122, 0.2834 0.3345 0.1181, 0.2973 0.3343 0.1181, 0.2985 0.3344 0.1181, 0.2973 0.3343 0.122, 0.2993 0.3345 0.122, 0.2993 0.3345 0.1181, 0.3008 0.3349 0.1181, 0.3008 0.3349 0.122, 0.301 0.3351 0.1181, 0.301 0.3351 0.122, 0.301 0.3367 0.122, 0.301 0.3367 0.1181, 0.2997 0.3361 0.1181, 0.2997 0.3361 0.122, 0.2982 0.3358 0.1181, 0.2982 0.3358 0.122, 0.2975 0.3358 0.1181, 0.2975 0.3358 0.122, 0.2962 0.336 0.1181, 0.2962 0.336 0.122, 0.2952 0.3363 0.1181, 0.2952 0.3363 0.122, 0.2944 0.337 0.1181, 0.2944 0.337 0.122, 0.2941 0.3372 0.1181, 0.2941 0.3372 0.122, 0.2934 0.3382 0.1181, 0.2934 0.3382 0.122, 0.293 0.3393 0.1181, 0.293 0.3393 0.122, 0.2928 0.3409 0.1181, 0.2928 0.3409 0.122, 0.2928 0.341 0.1181, 0.2928 0.341 0.122, 0.293 0.3426 0.1181, 0.293 0.3426 0.122, 0.2934 0.3438 0.1181, 0.2934 0.3438 0.122, 0.294 0.3448 0.1181, 0.294 0.3448 0.122, 0.2942 0.345 0.1181, 0.2942 0.345 0.122, 0.2951 0.3458 0.1181, 0.2951 0.3458 0.122, 0.2961 0.3463 0.1181, 0.2961 0.3463 0.122, 0.2973 0.3465 0.1181, 0.2973 0.3465 0.122, 0.2978 0.3465 0.1181, 0.2978 0.3465 0.122, 0.2994 0.3463 0.1181, 0.2994 0.3463 0.122, 0.3007 0.3459 0.1181, 0.3007 0.3459 0.122, 0.301 0.3457 0.1181, 0.301 0.3457 0.122, 0.301 0.3475 0.122, 0.301 0.3475 0.1181, 0.2978 0.3481 0.1181, 0.2978 0.3481 0.122, 0.298 0.3481 0.122, 0.2997 0.3479 0.1181, 0.2997 0.3479 0.122, 0.2992 0.348 0.1181, 0.298 0.3481 0.1181, 0.2967 0.348 0.1181, 0.2962 0.3479 0.122, 0.2962 0.3479 0.1181, 0.2947 0.3474 0.1181, 0.2947 0.3474 0.122, 0.2934 0.3466 0.1181, 0.2934 0.3466 0.122, 0.2929 0.3461 0.1181, 0.2929 0.3461 0.122, 0.292 0.345 0.1181, 0.292 0.345 0.122, 0.2916 0.344 0.1181, 0.2914 0.3435 0.122, 0.2914 0.3435 0.1181, 0.291 0.3418 0.1181, 0.291 0.3418 0.122, 0.291 0.3409 0.1181, 0.291 0.3409 0.122, 0.2913 0.3388 0.1181, 0.2913 0.3388 0.122, 0.2916 0.3379 0.1181, 0.2918 0.3374 0.122, 0.2918 0.3374 0.1181, 0.2926 0.3362 0.1181, 0.2926 0.3362 0.122, 0.2927 0.3361 0.1181, 0.2927 0.3361 0.122, 0.2965 0.3343 0.122, 0.2938 0.3352 0.1181, 0.2938 0.3352 0.122, 0.295 0.3346 0.1181, 0.295 0.3346 0.122, 0.2961 0.3344 0.1181, 0.2965 0.3343 0.1181, 0.3108 0.336 0.122, 0.3108 0.3345 0.122, 0.3108 0.336 0.1181, 0.3108 0.3345 0.1181, 0.3054 0.336 0.1181, 0.3054 0.336 0.122, 0.309 0.336 0.1181, 0.3054 0.3405 0.122, 0.3054 0.3405 0.1181, 0.3102 0.3405 0.1181, 0.3102 0.3405 0.122, 0.309 0.3405 0.1181, 0.3102 0.342 0.122, 0.3102 0.342 0.1181, 0.3054 0.342 0.1181, 0.3054 0.342 0.122, 0.309 0.342 0.1181, 0.3054 0.3463 0.122, 0.3054 0.3463 0.1181, 0.3105 0.3463 0.1181, 0.3105 0.3463 0.122, 0.309 0.3463 0.1181, 0.3105 0.3478 0.122, 0.3105 0.3478 0.1181, 0.3037 0.3478 0.1181, 0.3037 0.3478 0.122, 0.309 0.3478 0.1181, 0.3037 0.3345 0.122, 0.3037 0.3345 0.1181, 0.309 0.3345 0.1181, 0.3217 0.3383 0.122, 0.321 0.3374 0.122, 0.3222 0.3364 0.122, 0.3207 0.3372 0.122, 0.3208 0.3354 0.122, 0.3198 0.3366 0.122, 0.3193 0.3348 0.122, 0.3186 0.3362 0.122, 0.317 0.3345 0.122, 0.317 0.336 0.122, 0.3134 0.3345 0.122, 0.3151 0.336 0.122, 0.3134 0.3478 0.122, 0.3151 0.3463 0.122, 0.3172 0.3478 0.122, 0.3171 0.3463 0.122, 0.3194 0.3476 0.122, 0.3188 0.3461 0.122, 0.321 0.3469 0.122, 0.3199 0.3457 0.122, 0.3222 0.3461 0.122, 0.321 0.3451 0.122, 0.3228 0.3455 0.122, 0.3214 0.3446 0.122, 0.3236 0.3443 0.122, 0.3219 0.3438 0.122, 0.3241 0.3429 0.122, 0.3222 0.3428 0.122, 0.3242 0.3413 0.122, 0.3224 0.3413 0.122, 0.3242 0.3404 0.122, 0.3224 0.3405 0.122, 0.3238 0.3388 0.122, 0.3221 0.3393 0.122, 0.3231 0.3375 0.122, 0.317 0.3345 0.1181, 0.3134 0.3345 0.1181, 0.3222 0.3364 0.1181, 0.3193 0.3348 0.1181, 0.3195 0.3348 0.1181, 0.3208 0.3354 0.1181, 0.3231 0.3375 0.1181, 0.3238 0.3388 0.1181, 0.3242 0.3404 0.1181, 0.3242 0.3413 0.1181, 0.3241 0.3429 0.1181, 0.3236 0.3443 0.1181, 0.3228 0.3455 0.1181, 0.3222 0.3461 0.1181, 0.3172 0.3478 0.1181, 0.321 0.3469 0.1181, 0.3195 0.3475 0.1181, 0.3194 0.3476 0.1181, 0.3134 0.3478 0.1181, 0.3171 0.3463 0.1181, 0.3151 0.3463 0.1181, 0.3151 0.336 0.1181, 0.317 0.336 0.1181, 0.321 0.3374 0.1181, 0.3207 0.3372 0.1181, 0.3198 0.3366 0.1181, 0.3186 0.3362 0.1181, 0.3224 0.3413 0.1181, 0.3224 0.3405 0.1181, 0.3221 0.3393 0.1181, 0.3217 0.3383 0.1181, 0.321 0.3451 0.1181, 0.3214 0.3446 0.1181, 0.3219 0.3438 0.1181, 0.3222 0.3428 0.1181, 0.3188 0.3461 0.1181, 0.3199 0.3457 0.1181, 0.3199 0.3457 0.1181
            ]
        }
        coordIndex [
            0,1,2,-1,2,1,3,-1,4,0,5,-1,5,0,2,-1,6,4,7,-1,7,4,5,-1,8,6,9,-1,9,6,7,-1,10,8,11,-1,11,8,9,-1,1,10,3,-1,3,10,11,-1,6,8,4,-1,4,8,10,-1,4,10,0,-1,0,10,1,-1,12,13,14,-1,14,13,15,-1,13,16,15,-1,15,16,17,-1,15,17,18,-1,18,17,19,-1,18,19,20,-1,21,20,22,-1,22,20,19,-1,21,22,23,-1,21,23,24,-1,24,23,25,-1,24,25,26,-1,26,25,27,-1,26,27,28,-1,28,27,29,-1,28,29,30,-1,30,29,31,-1,30,31,32,-1,32,31,33,-1,32,33,34,-1,34,33,35,-1,34,35,36,-1,36,35,37,-1,36,37,38,-1,38,37,39,-1,38,39,40,-1,40,39,41,-1,40,41,42,-1,42,41,43,-1,42,43,44,-1,44,43,45,-1,44,45,46,-1,46,45,47,-1,46,47,48,-1,48,47,49,-1,48,49,50,-1,50,49,51,-1,50,51,52,-1,52,51,53,-1,52,53,54,-1,54,53,55,-1,54,55,56,-1,56,55,57,-1,56,57,58,-1,58,57,59,-1,58,59,60,-1,60,59,61,-1,60,61,62,-1,62,61,63,-1,62,63,64,-1,64,63,65,-1,64,65,66,-1,67,66,68,-1,68,66,65,-1,69,70,71,-1,67,68,72,-1,67,72,73,-1,73,72,74,-1,73,74,71,-1,71,74,75,-1,71,75,69,-1,69,76,70,-1,70,76,77,-1,76,78,77,-1,77,78,79,-1,77,79,80,-1,80,79,81,-1,80,81,82,-1,82,81,83,-1,82,83,84,-1,84,83,85,-1,84,85,86,-1,86,85,87,-1,86,87,88,-1,87,89,88,-1,88,89,90,-1,88,90,91,-1,91,90,92,-1,91,92,93,-1,93,92,94,-1,93,94,95,-1,95,94,96,-1,95,96,97,-1,96,98,97,-1,97,98,99,-1,97,99,100,-1,100,99,101,-1,100,101,102,-1,12,14,103,-1,102,101,104,-1,102,104,105,-1,105,104,106,-1,105,106,107,-1,107,106,108,-1,107,108,103,-1,103,108,109,-1,103,109,12,-1,64,66,67,-1,54,56,77,-1,46,48,86,-1,77,56,70,-1,64,67,62,-1,20,21,18,-1,18,21,24,-1,18,24,15,-1,15,24,26,-1,15,26,14,-1,14,26,28,-1,14,28,103,-1,103,28,30,-1,103,30,107,-1,107,30,32,-1,107,32,105,-1,105,32,34,-1,105,34,102,-1,102,34,36,-1,102,36,100,-1,100,36,38,-1,100,38,97,-1,97,38,95,-1,95,38,40,-1,95,40,93,-1,86,48,84,-1,56,58,70,-1,70,58,60,-1,70,60,71,-1,71,60,62,-1,71,62,73,-1,73,62,67,-1,77,80,54,-1,54,80,82,-1,54,82,52,-1,52,82,84,-1,52,84,50,-1,50,84,48,-1,40,42,93,-1,93,42,44,-1,93,44,91,-1,91,44,46,-1,91,46,88,-1,88,46,86,-1,110,111,112,-1,112,111,113,-1,114,115,116,-1,116,115,110,-1,116,110,112,-1,117,115,118,-1,118,115,114,-1,119,120,121,-1,121,120,117,-1,121,117,118,-1,122,120,123,-1,123,120,119,-1,124,125,126,-1,126,125,122,-1,126,122,123,-1,127,125,128,-1,128,125,124,-1,129,130,131,-1,131,130,127,-1,131,127,128,-1,132,130,133,-1,133,130,129,-1,134,135,136,-1,136,135,132,-1,136,132,133,-1,137,135,138,-1,138,135,134,-1,113,111,139,-1,139,111,137,-1,139,137,138,-1,137,111,110,-1,110,115,137,-1,137,115,117,-1,137,117,135,-1,130,132,127,-1,127,132,135,-1,127,135,125,-1,125,135,117,-1,125,117,122,-1,122,117,120,-1,140,141,142,-1,142,141,143,-1,142,143,144,-1,144,143,145,-1,144,145,146,-1,146,145,147,-1,146,147,148,-1,148,147,149,-1,148,149,150,-1,150,149,151,-1,150,151,152,-1,152,151,153,-1,152,153,154,-1,154,153,155,-1,154,155,156,-1,156,155,157,-1,156,157,158,-1,158,157,159,-1,158,159,160,-1,160,159,161,-1,160,161,162,-1,162,161,163,-1,162,163,164,-1,164,163,165,-1,164,165,166,-1,166,165,167,-1,166,167,168,-1,168,167,169,-1,168,169,170,-1,170,169,171,-1,170,171,172,-1,172,171,173,-1,172,173,174,-1,174,173,140,-1,174,140,142,-1,148,150,175,-1,175,150,176,-1,177,142,144,-1,148,175,178,-1,148,178,146,-1,146,178,179,-1,146,179,144,-1,144,179,180,-1,144,180,177,-1,142,177,181,-1,142,181,174,-1,174,181,182,-1,174,182,172,-1,172,182,183,-1,172,183,170,-1,170,183,184,-1,170,184,168,-1,168,184,185,-1,168,185,166,-1,166,185,186,-1,166,186,164,-1,164,186,187,-1,164,187,162,-1,162,187,188,-1,162,188,160,-1,189,154,156,-1,160,188,190,-1,160,190,158,-1,158,190,191,-1,158,191,156,-1,156,191,192,-1,156,192,189,-1,152,154,193,-1,193,154,189,-1,150,152,176,-1,176,152,193,-1,155,153,194,-1,194,153,195,-1,153,151,195,-1,195,151,196,-1,151,149,196,-1,196,149,197,-1,141,198,199,-1,141,199,143,-1,143,199,200,-1,143,200,145,-1,145,200,201,-1,145,201,147,-1,147,201,197,-1,147,197,149,-1,169,202,203,-1,169,203,171,-1,171,203,204,-1,171,204,173,-1,173,204,205,-1,173,205,140,-1,140,205,198,-1,140,198,141,-1,161,206,207,-1,161,207,163,-1,163,207,208,-1,163,208,165,-1,165,208,209,-1,165,209,167,-1,167,209,202,-1,167,202,169,-1,155,194,210,-1,155,210,157,-1,157,210,211,-1,157,211,159,-1,159,211,206,-1,159,206,161,-1,
        ]
    }
}
Shape{
    appearance Appearance {
        material  Material 	{
            diffuseColor 0.25098039215686274 0.25098039215686274 0.25098039215686274
            specularColor 0.12549019607843137 0.12549019607843137 0.12549019607843137
            ambientIntensity 0.2
            transparency 0
            shininess 0.5
        }
    }
    geometry IndexedFaceSet {
        ccw TRUE
        solid FALSE
        coord DEF co Coordinate {
            point [
                0.3151 0.3463 0.1181, 0.3151 0.336 0.1181, 0.3171 0.3463 0.1181, 0.317 0.336 0.1181, 0.3186 0.3362 0.1181, 0.3198 0.3366 0.1181, 0.3207 0.3372 0.1181, 0.321 0.3374 0.1181, 0.3217 0.3383 0.1181, 0.3221 0.3393 0.1181, 0.3224 0.3405 0.1181, 0.3224 0.3413 0.1181, 0.3222 0.3428 0.1181, 0.3219 0.3438 0.1181, 0.3214 0.3446 0.1181, 0.321 0.3451 0.1181, 0.3188 0.3461 0.1181, 0.3199 0.3457 0.1181, 0.3199 0.3457 0.1181
            ]
        }
        coordIndex [
            0,1,2,-1,2,1,3,-1,2,3,4,-1,4,5,2,-1,2,5,6,-1,2,6,7,-1,7,8,2,-1,2,8,9,-1,2,9,10,-1,10,11,2,-1,2,11,12,-1,2,12,13,-1,13,14,2,-1,2,14,15,-1,2,15,16,-1,16,15,17,-1,
        ]
    }
}
Shape{
    appearance Appearance {
        material  Material 	{
            diffuseColor 1.0 1.0 1.0
            specularColor 0.5019607843137255 0.5019607843137255 0.5019607843137255
            ambientIntensity 0.2
            transparency 0
            shininess 0.5
        }
    }
    geometry IndexedFaceSet {
        ccw TRUE
        solid FALSE
        coord DEF co Coordinate {
            point [
                0.3287 0.3397 0.122, 0.3282 0.3382 0.122, 0.3332 0.3397 0.122, 0.3337 0.3382 0.122, 0.3307 0.3452 0.122, 0.33 0.3478 0.122, 0.325 0.3345 0.122, 0.3269 0.3345 0.122, 0.3308 0.3456 0.122, 0.3309 0.3461 0.122, 0.3319 0.3478 0.122, 0.331 0.3461 0.122, 0.3311 0.3456 0.122, 0.3312 0.3452 0.122, 0.337 0.3345 0.122, 0.3351 0.3345 0.122, 0.3319 0.3478 0.1181, 0.337 0.3345 0.1181, 0.33 0.3478 0.1181, 0.325 0.3345 0.1181, 0.3288 0.3446 0.1181, 0.3269 0.3345 0.1181, 0.3282 0.3382 0.1181, 0.3337 0.3382 0.1181, 0.3288 0.3382 0.1181, 0.3351 0.3345 0.1181, 0.3287 0.3397 0.1181, 0.3332 0.3397 0.1181, 0.3312 0.3452 0.1181, 0.331 0.3461 0.1181, 0.3311 0.3456 0.1181, 0.3309 0.3461 0.1181, 0.3307 0.3452 0.1181, 0.3308 0.3456 0.1181, 0.3308 0.3456 0.1181
            ]
        }
        coordIndex [
            0,1,2,-1,2,1,3,-1,4,5,0,-1,0,5,6,-1,0,6,1,-1,1,6,7,-1,4,8,5,-1,5,8,9,-1,5,9,10,-1,10,9,11,-1,10,11,12,-1,12,13,10,-1,10,13,2,-1,10,2,14,-1,14,2,3,-1,14,3,15,-1,10,14,16,-1,16,14,17,-1,5,10,18,-1,18,10,16,-1,19,6,20,-1,20,6,5,-1,20,5,18,-1,7,6,21,-1,21,6,19,-1,1,7,22,-1,22,7,21,-1,23,3,24,-1,24,3,1,-1,24,1,22,-1,15,3,25,-1,25,3,23,-1,14,15,17,-1,17,15,25,-1,0,2,26,-1,26,2,27,-1,2,13,27,-1,27,13,28,-1,11,29,30,-1,11,30,12,-1,12,30,28,-1,12,28,13,-1,11,9,29,-1,29,9,31,-1,4,32,33,-1,4,33,8,-1,8,33,31,-1,8,31,9,-1,4,0,32,-1,32,0,26,-1,
        ]
    }
}
Shape{
    appearance Appearance {
        material  Material 	{
            diffuseColor 0.25098039215686274 0.25098039215686274 0.25098039215686274
            specularColor 0.12549019607843137 0.12549019607843137 0.12549019607843137
            ambientIntensity 0.2
            transparency 0
            shininess 0.5
        }
    }
    geometry IndexedFaceSet {
        ccw TRUE
        solid FALSE
        coord DEF co Coordinate {
            point [
                0.331 0.3461 0.1181, 0.3309 0.3461 0.1181, 0.3311 0.3456 0.1181, 0.3308 0.3456 0.1181, 0.3312 0.3452 0.1181, 0.3307 0.3452 0.1181, 0.3332 0.3397 0.1181, 0.3287 0.3397 0.1181, 0.3287 0.3397 0.1181
            ]
        }
        coordIndex [
            0,1,2,-1,2,1,3,-1,2,3,4,-1,4,3,5,-1,4,5,6,-1,6,5,7,-1,
        ]
    }
}
Shape{
    appearance Appearance {
        material  Material 	{
            diffuseColor 1.0 1.0 1.0
            specularColor 0.5019607843137255 0.5019607843137255 0.5019607843137255
            ambientIntensity 0.2
            transparency 0
            shininess 0.5
        }
    }
    geometry IndexedFaceSet {
        ccw TRUE
        solid FALSE
        coord DEF co Coordinate {
            point [
                0.2906 0.3149 0.122, 0.2906 0.3133 0.122, 0.2906 0.3149 0.1181, 0.2906 0.3133 0.1181, 0.2851 0.3149 0.122, 0.2851 0.3149 0.1181, 0.2851 0.3193 0.122, 0.2851 0.3193 0.1181, 0.2899 0.3193 0.122, 0.2899 0.3193 0.1181, 0.2899 0.3209 0.122, 0.2899 0.3209 0.1181, 0.2851 0.3209 0.122, 0.2851 0.3209 0.1181, 0.2851 0.3251 0.1181, 0.2851 0.3251 0.122, 0.2851 0.3249 0.1181, 0.2903 0.3251 0.122, 0.2903 0.3251 0.1181, 0.2903 0.3267 0.122, 0.2903 0.3267 0.1181, 0.2834 0.3267 0.122, 0.2834 0.3267 0.1181, 0.2834 0.3133 0.1181, 0.2834 0.3133 0.122, 0.2834 0.3249 0.1181, 0.2982 0.3133 0.122, 0.2999 0.3133 0.122, 0.2982 0.3148 0.122, 0.2999 0.3195 0.122, 0.2982 0.3194 0.122, 0.2946 0.3174 0.122, 0.295 0.3176 0.122, 0.2959 0.3178 0.122, 0.2982 0.3181 0.122, 0.2982 0.3172 0.122, 0.2976 0.323 0.122, 0.2972 0.3215 0.122, 0.2982 0.3227 0.122, 0.2975 0.3213 0.122, 0.2981 0.3201 0.122, 0.2997 0.3209 0.122, 0.2979 0.3207 0.122, 0.2994 0.3216 0.122, 0.2978 0.3211 0.122, 0.2991 0.3221 0.122, 0.2988 0.3224 0.122, 0.2931 0.3222 0.122, 0.2931 0.3206 0.122, 0.2936 0.3225 0.122, 0.2943 0.3213 0.122, 0.2949 0.3229 0.122, 0.2953 0.3216 0.122, 0.2964 0.3231 0.122, 0.2962 0.3217 0.122, 0.2968 0.3217 0.122, 0.2982 0.3171 0.122, 0.2981 0.3163 0.122, 0.2978 0.3157 0.122, 0.2981 0.3148 0.122, 0.2975 0.3153 0.122, 0.2979 0.3144 0.122, 0.2973 0.315 0.122, 0.2973 0.3138 0.122, 0.2968 0.3147 0.122, 0.2968 0.3134 0.122, 0.2963 0.3145 0.122, 0.2961 0.3132 0.122, 0.2956 0.3145 0.122, 0.2952 0.3131 0.122, 0.2951 0.3145 0.122, 0.2942 0.3132 0.122, 0.2947 0.3147 0.122, 0.2936 0.3135 0.122, 0.2944 0.3149 0.122, 0.293 0.3139 0.122, 0.2942 0.315 0.122, 0.2954 0.319 0.122, 0.294 0.3186 0.122, 0.2943 0.3172 0.122, 0.2933 0.3183 0.122, 0.2941 0.317 0.122, 0.2928 0.3178 0.122, 0.294 0.3167 0.122, 0.2925 0.3173 0.122, 0.2939 0.3163 0.122, 0.2923 0.3167 0.122, 0.2939 0.316 0.122, 0.2922 0.3159 0.122, 0.2939 0.3156 0.122, 0.2923 0.3151 0.122, 0.294 0.3153 0.122, 0.2925 0.3146 0.122, 0.2928 0.314 0.122, 0.2964 0.3231 0.1181, 0.2949 0.3229 0.1181, 0.2936 0.3225 0.1181, 0.2931 0.3222 0.1181, 0.2931 0.3206 0.1181, 0.2943 0.3213 0.1181, 0.2953 0.3216 0.1181, 0.2962 0.3217 0.1181, 0.2968 0.3217 0.1181, 0.2972 0.3215 0.1181, 0.2975 0.3213 0.1181, 0.2978 0.3211 0.1181, 0.2979 0.3207 0.1181, 0.2981 0.3201 0.1181, 0.2982 0.3194 0.1181, 0.2954 0.319 0.1181, 0.294 0.3186 0.1181, 0.2933 0.3183 0.1181, 0.2928 0.3178 0.1181, 0.2925 0.3173 0.1181, 0.2923 0.3167 0.1181, 0.2922 0.3159 0.1181, 0.2923 0.3151 0.1181, 0.2925 0.3146 0.1181, 0.2928 0.314 0.1181, 0.293 0.3139 0.1181, 0.2936 0.3135 0.1181, 0.2942 0.3132 0.1181, 0.2952 0.3131 0.1181, 0.2961 0.3132 0.1181, 0.2961 0.3132 0.1181, 0.2968 0.3134 0.1181, 0.2973 0.3138 0.1181, 0.2979 0.3144 0.1181, 0.2981 0.3148 0.1181, 0.2982 0.3148 0.1181, 0.2982 0.3133 0.1181, 0.2999 0.3133 0.1181, 0.2999 0.3195 0.1181, 0.2997 0.3209 0.1181, 0.2994 0.3216 0.1181, 0.2991 0.3221 0.1181, 0.2988 0.3224 0.1181, 0.2982 0.3227 0.1181, 0.2976 0.323 0.1181, 0.2943 0.3172 0.1181, 0.2946 0.3174 0.1181, 0.295 0.3176 0.1181, 0.2959 0.3178 0.1181, 0.2939 0.316 0.1181, 0.2939 0.3163 0.1181, 0.294 0.3167 0.1181, 0.2941 0.317 0.1181, 0.2944 0.3149 0.1181, 0.2942 0.315 0.1181, 0.294 0.3153 0.1181, 0.2939 0.3156 0.1181, 0.2956 0.3145 0.1181, 0.2951 0.3145 0.1181, 0.2947 0.3147 0.1181, 0.2975 0.3153 0.1181, 0.2973 0.315 0.1181, 0.2968 0.3147 0.1181, 0.2963 0.3145 0.1181, 0.2982 0.3172 0.1181, 0.2982 0.3171 0.1181, 0.2981 0.3163 0.1181, 0.2978 0.3157 0.1181, 0.2982 0.3181 0.1181, 0.2982 0.3181 0.1181
            ]
        }
        coordIndex [
            0,1,2,-1,2,1,3,-1,4,0,5,-1,5,0,2,-1,6,4,7,-1,7,4,5,-1,8,6,9,-1,9,6,7,-1,10,8,11,-1,11,8,9,-1,12,10,13,-1,13,10,11,-1,14,15,16,-1,16,15,12,-1,16,12,13,-1,17,15,18,-1,18,15,14,-1,19,17,20,-1,20,17,18,-1,21,19,22,-1,22,19,20,-1,23,24,25,-1,25,24,21,-1,25,21,22,-1,1,24,3,-1,3,24,23,-1,24,1,0,-1,0,4,24,-1,24,4,6,-1,24,6,21,-1,17,19,15,-1,15,19,21,-1,15,21,12,-1,12,21,6,-1,12,6,10,-1,10,6,8,-1,26,27,28,-1,28,27,29,-1,30,31,32,-1,33,34,29,-1,29,34,35,-1,36,37,38,-1,38,37,39,-1,32,33,30,-1,30,33,29,-1,30,29,40,-1,40,29,41,-1,40,41,42,-1,42,41,43,-1,42,43,44,-1,44,43,45,-1,44,45,39,-1,39,45,46,-1,39,46,38,-1,47,48,49,-1,49,48,50,-1,49,50,51,-1,51,50,52,-1,51,52,53,-1,53,52,54,-1,53,54,36,-1,36,54,55,-1,36,55,37,-1,35,56,29,-1,29,56,57,-1,29,57,28,-1,28,57,58,-1,28,58,59,-1,59,58,60,-1,59,60,61,-1,61,60,62,-1,61,62,63,-1,63,62,64,-1,63,64,65,-1,65,64,66,-1,65,66,67,-1,67,66,68,-1,67,68,69,-1,69,68,70,-1,69,70,71,-1,71,70,72,-1,71,72,73,-1,73,72,74,-1,73,74,75,-1,75,74,76,-1,30,77,31,-1,31,77,78,-1,31,78,79,-1,79,78,80,-1,79,80,81,-1,81,80,82,-1,81,82,83,-1,83,82,84,-1,83,84,85,-1,85,84,86,-1,85,86,87,-1,87,86,88,-1,87,88,89,-1,89,88,90,-1,89,90,91,-1,91,90,92,-1,91,92,76,-1,76,92,93,-1,76,93,75,-1,53,94,95,-1,53,95,51,-1,51,95,96,-1,51,96,49,-1,49,96,97,-1,49,97,47,-1,48,47,98,-1,98,47,97,-1,48,98,99,-1,48,99,50,-1,50,99,100,-1,50,100,52,-1,52,100,101,-1,52,101,54,-1,54,101,102,-1,54,102,55,-1,55,102,103,-1,55,103,37,-1,37,103,104,-1,37,104,39,-1,39,104,105,-1,39,105,44,-1,44,105,106,-1,44,106,42,-1,42,106,107,-1,42,107,40,-1,40,107,108,-1,40,108,30,-1,77,30,109,-1,109,30,108,-1,77,109,110,-1,77,110,78,-1,78,110,111,-1,78,111,80,-1,80,111,112,-1,80,112,82,-1,82,112,113,-1,82,113,84,-1,84,113,114,-1,84,114,86,-1,86,114,115,-1,86,115,88,-1,88,115,116,-1,88,116,90,-1,90,116,117,-1,90,117,92,-1,92,117,118,-1,92,118,93,-1,93,118,119,-1,93,119,75,-1,75,119,120,-1,75,120,73,-1,73,120,121,-1,73,121,71,-1,71,121,122,-1,71,122,69,-1,69,122,123,-1,69,123,67,-1,67,123,124,-1,67,124,65,-1,124,125,65,-1,65,125,126,-1,65,126,63,-1,63,126,127,-1,63,127,61,-1,61,127,128,-1,61,128,59,-1,28,59,129,-1,129,59,128,-1,26,28,130,-1,130,28,129,-1,27,26,131,-1,131,26,130,-1,29,27,132,-1,132,27,131,-1,29,132,133,-1,29,133,41,-1,41,133,134,-1,41,134,43,-1,43,134,135,-1,43,135,45,-1,45,135,136,-1,45,136,46,-1,46,136,137,-1,46,137,38,-1,38,137,138,-1,38,138,36,-1,36,138,94,-1,36,94,53,-1,79,139,140,-1,79,140,31,-1,31,140,141,-1,31,141,32,-1,32,141,142,-1,32,142,33,-1,87,143,144,-1,87,144,85,-1,85,144,145,-1,85,145,83,-1,83,145,146,-1,83,146,81,-1,81,146,139,-1,81,139,79,-1,74,147,148,-1,74,148,76,-1,76,148,149,-1,76,149,91,-1,91,149,150,-1,91,150,89,-1,89,150,143,-1,89,143,87,-1,68,151,152,-1,68,152,70,-1,70,152,153,-1,70,153,72,-1,72,153,147,-1,72,147,74,-1,60,154,155,-1,60,155,62,-1,62,155,156,-1,62,156,64,-1,64,156,157,-1,64,157,66,-1,66,157,151,-1,66,151,68,-1,35,158,159,-1,35,159,56,-1,56,159,160,-1,56,160,57,-1,57,160,161,-1,57,161,58,-1,58,161,154,-1,58,154,60,-1,35,34,158,-1,158,34,162,-1,34,33,162,-1,162,33,142,-1,
        ]
    }
}
Shape{
    appearance Appearance {
        material  Material 	{
            diffuseColor 0.25098039215686274 0.25098039215686274 0.25098039215686274
            specularColor 0.12549019607843137 0.12549019607843137 0.12549019607843137
            ambientIntensity 0.2
            transparency 0
            shininess 0.5
        }
    }
    geometry IndexedFaceSet {
        ccw TRUE
        solid FALSE
        coord DEF co Coordinate {
            point [
                0.2982 0.3181 0.1181, 0.2959 0.3178 0.1181, 0.2982 0.3172 0.1181, 0.295 0.3176 0.1181, 0.2946 0.3174 0.1181, 0.2943 0.3172 0.1181, 0.2982 0.3171 0.1181, 0.2981 0.3163 0.1181, 0.2941 0.317 0.1181, 0.2978 0.3157 0.1181, 0.2942 0.315 0.1181, 0.2944 0.3149 0.1181, 0.2973 0.315 0.1181, 0.294 0.3153 0.1181, 0.2968 0.3147 0.1181, 0.2963 0.3145 0.1181, 0.2956 0.3145 0.1181, 0.294 0.3167 0.1181, 0.2939 0.3163 0.1181, 0.2975 0.3153 0.1181, 0.2939 0.316 0.1181, 0.2939 0.3156 0.1181, 0.2947 0.3147 0.1181, 0.2951 0.3145 0.1181, 0.2951 0.3145 0.1181
            ]
        }
        coordIndex [
            0,1,2,-1,2,1,3,-1,3,4,2,-1,2,4,5,-1,2,5,6,-1,6,5,7,-1,7,5,8,-1,7,8,9,-1,10,11,12,-1,10,12,13,-1,14,12,15,-1,15,12,16,-1,8,17,9,-1,9,17,18,-1,9,18,19,-1,19,18,20,-1,19,20,12,-1,12,20,21,-1,12,21,13,-1,11,22,12,-1,12,22,23,-1,12,23,16,-1,
        ]
    }
}
Shape{
    appearance Appearance {
        material  Material 	{
            diffuseColor 1.0 1.0 1.0
            specularColor 0.5019607843137255 0.5019607843137255 0.5019607843137255
            ambientIntensity 0.2
            transparency 0
            shininess 0.5
        }
    }
    geometry IndexedFaceSet {
        ccw TRUE
        solid FALSE
        coord DEF co Coordinate {
            point [
                0.3021 0.3154 0.1181, 0.3021 0.3154 0.122, 0.3028 0.315 0.122, 0.3049 0.3145 0.122, 0.3049 0.3145 0.1181, 0.3038 0.3146 0.1181, 0.3038 0.3146 0.122, 0.3029 0.3149 0.1181, 0.3028 0.315 0.1181, 0.3021 0.3137 0.122, 0.3021 0.3137 0.1181, 0.3029 0.3134 0.1181, 0.3033 0.3132 0.122, 0.3047 0.3131 0.1181, 0.3047 0.3131 0.122, 0.3036 0.3132 0.1181, 0.3033 0.3132 0.1181, 0.3057 0.3132 0.1181, 0.3062 0.3133 0.122, 0.3062 0.3133 0.1181, 0.3071 0.3136 0.1181, 0.3071 0.3136 0.122, 0.3075 0.3139 0.1181, 0.3075 0.3139 0.122, 0.308 0.3143 0.1181, 0.308 0.3143 0.122, 0.3083 0.3147 0.1181, 0.3083 0.3147 0.122, 0.3085 0.3153 0.1181, 0.3085 0.3153 0.122, 0.3086 0.3159 0.1181, 0.3086 0.3159 0.122, 0.3085 0.3165 0.1181, 0.3085 0.3165 0.122, 0.3083 0.317 0.1181, 0.3083 0.317 0.122, 0.308 0.3175 0.1181, 0.308 0.3175 0.122, 0.3076 0.3179 0.1181, 0.3076 0.3179 0.122, 0.3065 0.3185 0.1181, 0.3065 0.3185 0.122, 0.3058 0.3187 0.1181, 0.3058 0.3187 0.122, 0.3048 0.3192 0.1181, 0.3048 0.3192 0.122, 0.3042 0.3196 0.1181, 0.3042 0.3196 0.122, 0.3041 0.3197 0.1181, 0.3041 0.3197 0.122, 0.3039 0.32 0.1181, 0.3039 0.32 0.122, 0.3039 0.3202 0.1181, 0.3039 0.3202 0.122, 0.3039 0.3204 0.1181, 0.3039 0.3204 0.122, 0.3039 0.3207 0.1181, 0.3039 0.3207 0.122, 0.304 0.3209 0.1181, 0.304 0.3209 0.122, 0.3041 0.3211 0.1181, 0.3041 0.3211 0.122, 0.3044 0.3214 0.1181, 0.3044 0.3214 0.122, 0.3047 0.3216 0.1181, 0.3047 0.3216 0.122, 0.3052 0.3217 0.1181, 0.3052 0.3217 0.122, 0.3057 0.3217 0.1181, 0.3057 0.3217 0.122, 0.3068 0.3216 0.1181, 0.3068 0.3216 0.122, 0.3077 0.3213 0.1181, 0.3077 0.3213 0.122, 0.3081 0.321 0.1181, 0.3081 0.321 0.122, 0.3081 0.3227 0.122, 0.3081 0.3227 0.1181, 0.3068 0.323 0.1181, 0.3068 0.323 0.122, 0.3058 0.3231 0.1181, 0.3058 0.3231 0.122, 0.3045 0.3229 0.1181, 0.3045 0.3229 0.122, 0.3036 0.3226 0.1181, 0.3036 0.3226 0.122, 0.3032 0.3223 0.1181, 0.3032 0.3223 0.122, 0.3029 0.322 0.1181, 0.3027 0.3219 0.122, 0.3027 0.3219 0.1181, 0.3024 0.3214 0.1181, 0.3024 0.3214 0.122, 0.3022 0.3209 0.1181, 0.3022 0.3209 0.122, 0.3021 0.3203 0.1181, 0.3021 0.3203 0.122, 0.3022 0.3196 0.1181, 0.3022 0.3196 0.122, 0.3024 0.3191 0.1181, 0.3024 0.3191 0.122, 0.3026 0.3188 0.1181, 0.3026 0.3188 0.122, 0.3029 0.3185 0.1181, 0.3029 0.3185 0.1181, 0.3037 0.318 0.122, 0.3029 0.3185 0.122, 0.3037 0.318 0.1181, 0.3047 0.3175 0.1181, 0.3047 0.3175 0.122, 0.3058 0.3171 0.1181, 0.3058 0.3171 0.122, 0.3064 0.3167 0.1181, 0.3064 0.3167 0.122, 0.3066 0.3165 0.1181, 0.3066 0.3165 0.122, 0.3067 0.3162 0.1181, 0.3067 0.3162 0.122, 0.3068 0.316 0.1181, 0.3068 0.316 0.122, 0.3068 0.3158 0.1181, 0.3068 0.3158 0.122, 0.3068 0.3154 0.1181, 0.3068 0.3154 0.122, 0.3067 0.3152 0.1181, 0.3067 0.3152 0.122, 0.3066 0.315 0.1181, 0.3066 0.315 0.122, 0.3064 0.3148 0.1181, 0.3064 0.3148 0.122, 0.3062 0.3147 0.1181, 0.3062 0.3147 0.122, 0.3058 0.3146 0.1181, 0.3058 0.3146 0.122, 0.3049 0.3145 0.1181, 0.3049 0.3145 0.122, 0.3168 0.3229 0.122, 0.3186 0.3229 0.122, 0.3168 0.3229 0.1181, 0.3186 0.3229 0.1181, 0.3142 0.3157 0.122, 0.3142 0.3157 0.1181, 0.3141 0.3152 0.1181, 0.3141 0.3152 0.122, 0.314 0.3149 0.1181, 0.314 0.3149 0.122, 0.314 0.3149 0.122, 0.314 0.3149 0.1181, 0.3138 0.3157 0.122, 0.3138 0.3157 0.1181, 0.3113 0.3229 0.122, 0.3121 0.3205 0.1181, 0.3113 0.3229 0.1181, 0.3094 0.3229 0.122, 0.3094 0.3229 0.1181, 0.3132 0.3134 0.122, 0.3121 0.3161 0.1181, 0.3132 0.3134 0.1181, 0.3124 0.3116 0.1181, 0.3124 0.3116 0.122, 0.3131 0.3132 0.1181, 0.3121 0.311 0.1181, 0.3121 0.311 0.122, 0.3118 0.3107 0.1181, 0.3118 0.3107 0.122, 0.3115 0.3105 0.1181, 0.3115 0.3105 0.122, 0.3111 0.3103 0.1181, 0.3111 0.3103 0.122, 0.3107 0.3103 0.1181, 0.3107 0.3103 0.122, 0.3101 0.3104 0.1181, 0.3101 0.3104 0.122, 0.3098 0.3105 0.1181, 0.3098 0.3105 0.122, 0.3098 0.309 0.122, 0.3098 0.309 0.1181, 0.3105 0.3089 0.1181, 0.3105 0.3089 0.122, 0.3108 0.3088 0.1181, 0.3108 0.3088 0.122, 0.3115 0.3089 0.1181, 0.3115 0.3089 0.122, 0.3121 0.3091 0.1181, 0.3122 0.3092 0.122, 0.3122 0.3092 0.1181, 0.3128 0.3096 0.1181, 0.3128 0.3096 0.122, 0.3129 0.3097 0.1181, 0.3129 0.3097 0.122, 0.3135 0.3104 0.1181, 0.3135 0.3104 0.122, 0.3142 0.3119 0.1181, 0.3142 0.3119 0.122, 0.3148 0.3132 0.1181, 0.3276 0.3149 0.122, 0.3276 0.3133 0.122, 0.3276 0.3149 0.1181, 0.3276 0.3133 0.1181, 0.3221 0.3149 0.122, 0.3246 0.3149 0.1181, 0.3221 0.3149 0.1181, 0.3221 0.3193 0.122, 0.3221 0.3193 0.1181, 0.3269 0.3193 0.122, 0.3246 0.3193 0.1181, 0.3269 0.3193 0.1181, 0.3269 0.3209 0.122, 0.3269 0.3209 0.1181, 0.3221 0.3209 0.1181, 0.3221 0.3209 0.122, 0.3246 0.3209 0.1181, 0.3221 0.3251 0.1181, 0.3221 0.3251 0.122, 0.3221 0.3249 0.1181, 0.3272 0.3251 0.1181, 0.3272 0.3251 0.122, 0.3246 0.3251 0.1181, 0.3272 0.3267 0.122, 0.3272 0.3267 0.1181, 0.3204 0.3267 0.1181, 0.3204 0.3267 0.122, 0.3246 0.3267 0.1181, 0.3204 0.3133 0.1181, 0.3204 0.3133 0.122, 0.3204 0.3249 0.1181, 0.3246 0.3133 0.1181, 0.3384 0.3171 0.122, 0.3377 0.3162 0.122, 0.3389 0.3152 0.122, 0.3374 0.316 0.122, 0.3375 0.3142 0.122, 0.3365 0.3154 0.122, 0.336 0.3136 0.122, 0.3354 0.315 0.122, 0.3337 0.3133 0.122, 0.3337 0.3149 0.122, 0.3301 0.3133 0.122, 0.3318 0.3149 0.122, 0.3301 0.3267 0.122, 0.3318 0.3251 0.122, 0.3339 0.3267 0.122, 0.3338 0.3251 0.122, 0.3361 0.3264 0.122, 0.3355 0.325 0.122, 0.3377 0.3258 0.122, 0.3366 0.3246 0.122, 0.3389 0.3249 0.122, 0.3377 0.3239 0.122, 0.3395 0.3243 0.122, 0.3381 0.3234 0.122, 0.3403 0.3231 0.122, 0.3386 0.3227 0.122, 0.3408 0.3218 0.122, 0.339 0.3217 0.122, 0.3409 0.3202 0.122, 0.3391 0.3201 0.122, 0.3409 0.3192 0.122, 0.3391 0.3194 0.122, 0.3405 0.3177 0.122, 0.3388 0.3181 0.122, 0.3399 0.3163 0.122, 0.3337 0.3133 0.1181, 0.3301 0.3133 0.1181, 0.336 0.3136 0.1181, 0.3375 0.3142 0.1181, 0.3389 0.3152 0.1181, 0.3399 0.3163 0.1181, 0.3405 0.3177 0.1181, 0.3409 0.3192 0.1181, 0.3409 0.3202 0.1181, 0.3389 0.3249 0.1181, 0.339 0.3249 0.1181, 0.3395 0.3243 0.1181, 0.3403 0.3231 0.1181, 0.3408 0.3218 0.1181, 0.3377 0.3258 0.1181, 0.3361 0.3264 0.1181, 0.3339 0.3267 0.1181, 0.3301 0.3267 0.1181, 0.3301 0.3249 0.1181, 0.3338 0.3251 0.1181, 0.3318 0.3251 0.1181, 0.3318 0.3149 0.1181, 0.3337 0.3149 0.1181, 0.3377 0.3162 0.1181, 0.3374 0.316 0.1181, 0.3365 0.3154 0.1181, 0.3354 0.315 0.1181, 0.3391 0.3201 0.1181, 0.3391 0.3194 0.1181, 0.3388 0.3181 0.1181, 0.3384 0.3171 0.1181, 0.3377 0.3239 0.1181, 0.3381 0.3234 0.1181, 0.3386 0.3227 0.1181, 0.339 0.3217 0.1181, 0.3355 0.325 0.1181, 0.3366 0.3246 0.1181, 0.3366 0.3246 0.1181
            ]
        }
        coordIndex [
            0,1,2,-1,3,4,5,-1,3,5,6,-1,6,5,7,-1,6,7,2,-1,2,7,8,-1,2,8,0,-1,9,1,10,-1,10,1,0,-1,10,11,9,-1,9,11,12,-1,13,14,15,-1,15,14,12,-1,15,12,16,-1,16,12,11,-1,13,17,14,-1,14,17,18,-1,17,19,18,-1,18,19,20,-1,18,20,21,-1,21,20,22,-1,21,22,23,-1,23,22,24,-1,23,24,25,-1,25,24,26,-1,25,26,27,-1,27,26,28,-1,27,28,29,-1,29,28,30,-1,29,30,31,-1,31,30,32,-1,31,32,33,-1,33,32,34,-1,33,34,35,-1,35,34,36,-1,35,36,37,-1,37,36,38,-1,37,38,39,-1,39,38,40,-1,39,40,41,-1,41,40,42,-1,41,42,43,-1,43,42,44,-1,43,44,45,-1,45,44,46,-1,45,46,47,-1,47,46,48,-1,47,48,49,-1,49,48,50,-1,49,50,51,-1,51,50,52,-1,51,52,53,-1,53,52,54,-1,53,54,55,-1,55,54,56,-1,55,56,57,-1,57,56,58,-1,57,58,59,-1,59,58,60,-1,59,60,61,-1,61,60,62,-1,61,62,63,-1,63,62,64,-1,63,64,65,-1,65,64,66,-1,65,66,67,-1,67,66,68,-1,67,68,69,-1,69,68,70,-1,69,70,71,-1,71,70,72,-1,71,72,73,-1,73,72,74,-1,73,74,75,-1,76,75,77,-1,77,75,74,-1,76,77,78,-1,76,78,79,-1,79,78,80,-1,79,80,81,-1,81,80,82,-1,81,82,83,-1,83,82,84,-1,83,84,85,-1,85,84,86,-1,85,86,87,-1,86,88,87,-1,87,88,89,-1,88,90,89,-1,89,90,91,-1,89,91,92,-1,92,91,93,-1,92,93,94,-1,94,93,95,-1,94,95,96,-1,96,95,97,-1,96,97,98,-1,98,97,99,-1,98,99,100,-1,100,99,101,-1,100,101,102,-1,102,101,103,-1,104,105,103,-1,103,105,106,-1,103,106,102,-1,104,107,105,-1,105,107,108,-1,105,108,109,-1,109,108,110,-1,109,110,111,-1,111,110,112,-1,111,112,113,-1,113,112,114,-1,113,114,115,-1,115,114,116,-1,115,116,117,-1,117,116,118,-1,117,118,119,-1,119,118,120,-1,119,120,121,-1,121,120,122,-1,121,122,123,-1,123,122,124,-1,123,124,125,-1,125,124,126,-1,125,126,127,-1,127,126,128,-1,127,128,129,-1,129,128,130,-1,129,130,131,-1,131,130,132,-1,131,132,133,-1,133,132,134,-1,133,134,135,-1,135,134,4,-1,135,4,3,-1,61,63,85,-1,85,63,83,-1,111,43,109,-1,109,43,45,-1,21,23,127,-1,127,23,25,-1,127,25,125,-1,125,25,27,-1,125,27,123,-1,123,27,29,-1,123,29,121,-1,121,29,31,-1,121,31,119,-1,119,31,33,-1,119,33,117,-1,117,33,35,-1,117,35,115,-1,115,35,37,-1,115,37,113,-1,113,37,39,-1,113,39,111,-1,111,39,41,-1,111,41,43,-1,14,3,12,-1,12,3,6,-1,12,6,9,-1,9,6,2,-1,9,2,1,-1,63,65,83,-1,83,65,67,-1,83,67,81,-1,81,67,69,-1,81,69,79,-1,79,69,71,-1,79,71,76,-1,76,71,73,-1,76,73,75,-1,127,129,21,-1,21,129,131,-1,21,131,18,-1,18,131,133,-1,18,133,14,-1,14,133,135,-1,14,135,3,-1,85,87,61,-1,61,87,89,-1,61,89,59,-1,59,89,92,-1,59,92,57,-1,57,92,94,-1,57,94,55,-1,55,94,96,-1,55,96,53,-1,53,96,98,-1,53,98,51,-1,51,98,100,-1,51,100,49,-1,49,100,102,-1,49,102,47,-1,47,102,106,-1,47,106,45,-1,45,106,105,-1,45,105,109,-1,136,137,138,-1,138,137,139,-1,140,136,141,-1,141,136,138,-1,140,141,142,-1,140,142,143,-1,143,142,144,-1,143,144,145,-1,146,145,147,-1,147,145,144,-1,148,146,149,-1,149,146,147,-1,148,149,150,-1,150,149,151,-1,150,151,152,-1,153,150,154,-1,154,150,152,-1,153,154,155,-1,155,154,156,-1,155,156,157,-1,158,159,160,-1,160,159,155,-1,160,155,157,-1,159,158,161,-1,159,161,162,-1,162,161,163,-1,162,163,164,-1,164,163,165,-1,164,165,166,-1,166,165,167,-1,166,167,168,-1,168,167,169,-1,168,169,170,-1,170,169,171,-1,170,171,172,-1,172,171,173,-1,172,173,174,-1,175,174,176,-1,176,174,173,-1,175,176,177,-1,175,177,178,-1,178,177,179,-1,178,179,180,-1,180,179,181,-1,180,181,182,-1,182,181,183,-1,182,183,184,-1,183,185,184,-1,184,185,186,-1,184,186,187,-1,187,186,188,-1,187,188,189,-1,189,188,190,-1,189,190,191,-1,191,190,192,-1,191,192,193,-1,139,137,194,-1,194,137,193,-1,194,193,192,-1,143,145,193,-1,137,136,193,-1,193,136,140,-1,193,140,143,-1,150,153,148,-1,148,153,155,-1,148,155,146,-1,191,162,189,-1,189,162,164,-1,174,175,172,-1,172,175,178,-1,172,178,170,-1,170,178,180,-1,170,180,168,-1,168,180,182,-1,168,182,166,-1,166,182,184,-1,166,184,164,-1,164,184,187,-1,164,187,189,-1,145,146,193,-1,193,146,155,-1,193,155,191,-1,191,155,159,-1,191,159,162,-1,195,196,197,-1,197,196,198,-1,195,197,199,-1,199,197,200,-1,199,200,201,-1,202,199,203,-1,203,199,201,-1,202,203,204,-1,204,203,205,-1,204,205,206,-1,207,204,208,-1,208,204,206,-1,209,210,211,-1,211,210,207,-1,211,207,208,-1,212,213,214,-1,214,213,210,-1,214,210,209,-1,215,216,217,-1,217,216,213,-1,217,213,212,-1,218,216,219,-1,219,216,215,-1,220,221,222,-1,222,221,218,-1,222,218,219,-1,223,224,225,-1,225,224,221,-1,225,221,220,-1,224,223,196,-1,196,223,226,-1,196,226,198,-1,224,196,195,-1,195,199,224,-1,224,199,202,-1,224,202,221,-1,216,218,213,-1,213,218,221,-1,213,221,210,-1,210,221,202,-1,210,202,207,-1,207,202,204,-1,227,228,229,-1,229,228,230,-1,229,230,231,-1,231,230,232,-1,231,232,233,-1,233,232,234,-1,233,234,235,-1,235,234,236,-1,235,236,237,-1,237,236,238,-1,237,238,239,-1,239,238,240,-1,239,240,241,-1,241,240,242,-1,241,242,243,-1,243,242,244,-1,243,244,245,-1,245,244,246,-1,245,246,247,-1,247,246,248,-1,247,248,249,-1,249,248,250,-1,249,250,251,-1,251,250,252,-1,251,252,253,-1,253,252,254,-1,253,254,255,-1,255,254,256,-1,255,256,257,-1,257,256,258,-1,257,258,259,-1,259,258,260,-1,259,260,261,-1,261,260,227,-1,261,227,229,-1,235,237,262,-1,262,237,263,-1,235,262,264,-1,235,264,233,-1,233,264,265,-1,233,265,231,-1,231,265,266,-1,231,266,229,-1,229,266,267,-1,229,267,261,-1,261,267,268,-1,261,268,259,-1,259,268,269,-1,259,269,257,-1,257,269,270,-1,257,270,255,-1,271,247,272,-1,272,247,249,-1,272,249,273,-1,273,249,251,-1,273,251,274,-1,274,251,253,-1,274,253,275,-1,275,253,255,-1,275,255,270,-1,247,271,276,-1,247,276,245,-1,245,276,277,-1,245,277,243,-1,243,277,278,-1,243,278,241,-1,239,241,279,-1,279,241,278,-1,263,237,280,-1,280,237,239,-1,280,239,279,-1,242,240,281,-1,281,240,282,-1,240,238,282,-1,282,238,283,-1,238,236,283,-1,283,236,284,-1,228,285,286,-1,228,286,230,-1,230,286,287,-1,230,287,232,-1,232,287,288,-1,232,288,234,-1,234,288,284,-1,234,284,236,-1,256,289,290,-1,256,290,258,-1,258,290,291,-1,258,291,260,-1,260,291,292,-1,260,292,227,-1,227,292,285,-1,227,285,228,-1,248,293,294,-1,248,294,250,-1,250,294,295,-1,250,295,252,-1,252,295,296,-1,252,296,254,-1,254,296,289,-1,254,289,256,-1,242,281,297,-1,242,297,244,-1,244,297,298,-1,244,298,246,-1,246,298,293,-1,246,293,248,-1,
        ]
    }
}
Shape{
    appearance Appearance {
        material  Material 	{
            diffuseColor 0.25098039215686274 0.25098039215686274 0.25098039215686274
            specularColor 0.12549019607843137 0.12549019607843137 0.12549019607843137
            ambientIntensity 0.2
            transparency 0
            shininess 0.5
        }
    }
    geometry IndexedFaceSet {
        ccw TRUE
        solid FALSE
        coord DEF co Coordinate {
            point [
                0.3318 0.3251 0.1181, 0.3318 0.3149 0.1181, 0.3338 0.3251 0.1181, 0.3337 0.3149 0.1181, 0.3354 0.315 0.1181, 0.3365 0.3154 0.1181, 0.3374 0.316 0.1181, 0.3377 0.3162 0.1181, 0.3384 0.3171 0.1181, 0.3388 0.3181 0.1181, 0.3391 0.3194 0.1181, 0.3391 0.3201 0.1181, 0.339 0.3217 0.1181, 0.3386 0.3227 0.1181, 0.3381 0.3234 0.1181, 0.3377 0.3239 0.1181, 0.3355 0.325 0.1181, 0.3366 0.3246 0.1181, 0.3366 0.3246 0.1181
            ]
        }
        coordIndex [
            0,1,2,-1,2,1,3,-1,2,3,4,-1,4,5,2,-1,2,5,6,-1,2,6,7,-1,7,8,2,-1,2,8,9,-1,2,9,10,-1,10,11,2,-1,2,11,12,-1,2,12,13,-1,13,14,2,-1,2,14,15,-1,2,15,16,-1,16,15,17,-1,
        ]
    }
}
Shape{
    appearance Appearance {
        material  Material 	{
            diffuseColor 1.0 1.0 1.0
            specularColor 0.5019607843137255 0.5019607843137255 0.5019607843137255
            ambientIntensity 0.2
            transparency 0
            shininess 0.5
        }
    }
    geometry IndexedFaceSet {
        ccw TRUE
        solid FALSE
        coord DEF co Coordinate {
            point [
                0.3454 0.3185 0.122, 0.3449 0.317 0.122, 0.3499 0.3185 0.122, 0.3504 0.317 0.122, 0.3474 0.324 0.122, 0.3468 0.3267 0.122, 0.3417 0.3133 0.122, 0.3436 0.3133 0.122, 0.3475 0.3244 0.122, 0.3476 0.325 0.122, 0.3486 0.3267 0.122, 0.3477 0.325 0.122, 0.3478 0.3244 0.122, 0.3479 0.324 0.122, 0.3537 0.3133 0.122, 0.3518 0.3133 0.122, 0.3486 0.3267 0.1181, 0.3493 0.3249 0.1181, 0.3537 0.3133 0.1181, 0.3468 0.3267 0.1181, 0.3417 0.3133 0.1181, 0.3461 0.3249 0.1181, 0.3436 0.3133 0.1181, 0.3449 0.317 0.1181, 0.3504 0.317 0.1181, 0.3518 0.3133 0.1181, 0.3454 0.3185 0.1181, 0.3499 0.3185 0.1181, 0.3479 0.324 0.1181, 0.3477 0.325 0.1181, 0.3478 0.3244 0.1181, 0.3476 0.325 0.1181, 0.3474 0.324 0.1181, 0.3475 0.3244 0.1181, 0.3475 0.3244 0.1181
            ]
        }
        coordIndex [
            0,1,2,-1,2,1,3,-1,4,5,0,-1,0,5,6,-1,0,6,1,-1,1,6,7,-1,4,8,5,-1,5,8,9,-1,5,9,10,-1,10,9,11,-1,10,11,12,-1,12,13,10,-1,10,13,2,-1,10,2,14,-1,14,2,3,-1,14,3,15,-1,16,10,17,-1,17,10,14,-1,17,14,18,-1,5,10,19,-1,19,10,16,-1,20,6,21,-1,21,6,5,-1,21,5,19,-1,7,6,22,-1,22,6,20,-1,1,7,23,-1,23,7,22,-1,3,1,24,-1,24,1,23,-1,15,3,25,-1,25,3,24,-1,14,15,18,-1,18,15,25,-1,0,2,26,-1,26,2,27,-1,2,13,27,-1,27,13,28,-1,11,29,30,-1,11,30,12,-1,12,30,28,-1,12,28,13,-1,11,9,29,-1,29,9,31,-1,4,32,33,-1,4,33,8,-1,8,33,31,-1,8,31,9,-1,4,0,32,-1,32,0,26,-1,
        ]
    }
}
Shape{
    appearance Appearance {
        material  Material 	{
            diffuseColor 0.25098039215686274 0.25098039215686274 0.25098039215686274
            specularColor 0.12549019607843137 0.12549019607843137 0.12549019607843137
            ambientIntensity 0.2
            transparency 0
            shininess 0.5
        }
    }
    geometry IndexedFaceSet {
        ccw TRUE
        solid FALSE
        coord DEF co Coordinate {
            point [
                0.3477 0.325 0.1181, 0.3476 0.325 0.1181, 0.3478 0.3244 0.1181, 0.3475 0.3244 0.1181, 0.3479 0.324 0.1181, 0.3474 0.324 0.1181, 0.3499 0.3185 0.1181, 0.3454 0.3185 0.1181, 0.3454 0.3185 0.1181
            ]
        }
        coordIndex [
            0,1,2,-1,2,1,3,-1,2,3,4,-1,4,3,5,-1,4,5,6,-1,6,5,7,-1,
        ]
    }
}
Shape{
    appearance Appearance {
        material  Material 	{
            diffuseColor 1.0 1.0 1.0
            specularColor 0.5019607843137255 0.5019607843137255 0.5019607843137255
            ambientIntensity 0.2
            transparency 0
            shininess 0.5
        }
    }
    geometry IndexedFaceSet {
        ccw TRUE
        solid FALSE
        coord DEF co Coordinate {
            point [
                0.2245 0.3114 0.122, 0.2259 0.3097 0.122, 0.2236 0.3198 0.122, 0.242 0.3175 0.122, 0.2553 0.3245 0.122, 0.2361 0.3169 0.122, 0.2359 0.3177 0.122, 0.222 0.3363 0.122, 0.2241 0.3374 0.122, 0.2236 0.3433 0.122, 0.2397 0.3229 0.122, 0.2324 0.3201 0.122, 0.2332 0.32 0.122, 0.2295 0.3436 0.122, 0.2324 0.3366 0.122, 0.2339 0.3396 0.122, 0.2341 0.3197 0.122, 0.2349 0.3192 0.122, 0.2355 0.3185 0.122, 0.2216 0.3211 0.122, 0.2223 0.3138 0.122, 0.2235 0.3135 0.122, 0.2273 0.3437 0.122, 0.2524 0.3295 0.122, 0.242 0.3165 0.122, 0.2361 0.316 0.122, 0.242 0.3155 0.122, 0.2315 0.32 0.122, 0.2303 0.3258 0.122, 0.2307 0.3197 0.122, 0.2282 0.325 0.122, 0.2299 0.3191 0.122, 0.2262 0.3237 0.122, 0.2296 0.3187 0.122, 0.2247 0.3219 0.122, 0.2291 0.318 0.122, 0.2288 0.3171 0.122, 0.2288 0.3161 0.122, 0.236 0.3255 0.122, 0.2337 0.326 0.122, 0.2325 0.3261 0.122, 0.2584 0.3339 0.122, 0.2592 0.3339 0.122, 0.2631 0.339 0.122, 0.261 0.3337 0.122, 0.2636 0.3388 0.122, 0.2627 0.333 0.122, 0.2664 0.3374 0.122, 0.269 0.3353 0.122, 0.2315 0.3458 0.122, 0.236 0.3422 0.122, 0.2337 0.3477 0.122, 0.2386 0.344 0.122, 0.236 0.3492 0.122, 0.2264 0.338 0.122, 0.2274 0.338 0.122, 0.2284 0.3437 0.122, 0.2297 0.3378 0.122, 0.2318 0.337 0.122, 0.269 0.3176 0.122, 0.2646 0.3213 0.122, 0.2664 0.3154 0.122, 0.2632 0.3202 0.122, 0.2635 0.314 0.122, 0.2615 0.3194 0.122, 0.2603 0.3133 0.122, 0.2598 0.3191 0.122, 0.2547 0.3133 0.122, 0.2555 0.3191 0.122, 0.2542 0.3134 0.122, 0.238 0.3244 0.122, 0.2641 0.332 0.122, 0.2652 0.3308 0.122, 0.2709 0.3326 0.122, 0.2661 0.3291 0.122, 0.2721 0.3297 0.122, 0.2666 0.3273 0.122, 0.2725 0.3266 0.122, 0.2666 0.3265 0.122, 0.2721 0.3232 0.122, 0.2664 0.3246 0.122, 0.2709 0.3202 0.122, 0.2657 0.3229 0.122, 0.2647 0.3215 0.122, 0.258 0.3465 0.122, 0.2542 0.3421 0.122, 0.2611 0.3429 0.122, 0.2564 0.3396 0.122, 0.2579 0.3365 0.122, 0.2182 0.3309 0.122, 0.212 0.3293 0.122, 0.2179 0.3286 0.122, 0.212 0.3284 0.122, 0.218 0.3271 0.122, 0.2124 0.3246 0.122, 0.2187 0.3248 0.122, 0.2138 0.3211 0.122, 0.2199 0.3229 0.122, 0.2159 0.318 0.122, 0.2189 0.3155 0.122, 0.2289 0.3153 0.122, 0.2293 0.3145 0.122, 0.2404 0.3508 0.122, 0.2417 0.3453 0.122, 0.2451 0.3514 0.122, 0.2452 0.3457 0.122, 0.249 0.351 0.122, 0.2484 0.3453 0.122, 0.2537 0.3493 0.122, 0.2514 0.3442 0.122, 0.254 0.3423 0.122, 0.2201 0.3419 0.122, 0.2171 0.3398 0.122, 0.2203 0.3349 0.122, 0.2164 0.3392 0.122, 0.219 0.333 0.122, 0.2141 0.3363 0.122, 0.2126 0.3328 0.122, 0.2414 0.3132 0.122, 0.2359 0.3151 0.122, 0.2403 0.3111 0.122, 0.2355 0.3143 0.122, 0.2388 0.3094 0.122, 0.2349 0.3137 0.122, 0.237 0.3081 0.122, 0.2342 0.3132 0.122, 0.2348 0.3073 0.122, 0.2334 0.3128 0.122, 0.2325 0.307 0.122, 0.2324 0.3127 0.122, 0.2322 0.307 0.122, 0.2323 0.3127 0.122, 0.2299 0.3074 0.122, 0.2314 0.3129 0.122, 0.2278 0.3083 0.122, 0.2306 0.3132 0.122, 0.2298 0.3138 0.122, 0.255 0.3192 0.122, 0.2527 0.3143 0.122, 0.253 0.3141 0.122, 0.2553 0.3191 0.122, 0.2536 0.3136 0.122, 0.252 0.3162 0.122, 0.2521 0.3155 0.122, 0.2523 0.3149 0.122, 0.2542 0.3191 0.122, 0.2535 0.3188 0.122, 0.252 0.3166 0.122, 0.253 0.3184 0.122, 0.2526 0.318 0.122, 0.2522 0.3173 0.122, 0.2549 0.3192 0.122, 0.2725 0.3266 0.1181, 0.2721 0.3297 0.1181, 0.2709 0.3326 0.1181, 0.2696 0.3344 0.1181, 0.269 0.3353 0.1181, 0.2664 0.3374 0.1181, 0.2636 0.3388 0.1181, 0.2631 0.339 0.1181, 0.2611 0.3429 0.1181, 0.258 0.3465 0.1181, 0.2558 0.348 0.1181, 0.2537 0.3493 0.1181, 0.249 0.351 0.1181, 0.2451 0.3514 0.1181, 0.2337 0.3477 0.1181, 0.2341 0.348 0.1181, 0.236 0.3492 0.1181, 0.2404 0.3508 0.1181, 0.2315 0.3458 0.1181, 0.2295 0.3436 0.1181, 0.2284 0.3437 0.1181, 0.2273 0.3437 0.1181, 0.2236 0.3433 0.1181, 0.2201 0.3419 0.1181, 0.2171 0.3398 0.1181, 0.2164 0.3392 0.1181, 0.2141 0.3363 0.1181, 0.2133 0.3344 0.1181, 0.2126 0.3328 0.1181, 0.212 0.3293 0.1181, 0.212 0.3284 0.1181, 0.2124 0.3249 0.1181, 0.2124 0.3246 0.1181, 0.2138 0.3211 0.1181, 0.2159 0.318 0.1181, 0.2189 0.3155 0.1181, 0.2223 0.3138 0.1181, 0.2235 0.3135 0.1181, 0.2236 0.3132 0.1181, 0.2245 0.3114 0.1181, 0.2259 0.3097 0.1181, 0.2278 0.3083 0.1181, 0.2286 0.3079 0.1181, 0.2299 0.3074 0.1181, 0.2322 0.307 0.1181, 0.2325 0.307 0.1181, 0.242 0.3165 0.1181, 0.2348 0.3073 0.1181, 0.2365 0.3079 0.1181, 0.237 0.3081 0.1181, 0.2388 0.3094 0.1181, 0.2403 0.3111 0.1181, 0.2414 0.3132 0.1181, 0.2414 0.3132 0.1181, 0.242 0.3155 0.1181, 0.242 0.3175 0.1181, 0.2553 0.3245 0.1181, 0.2524 0.3295 0.1181, 0.2551 0.3249 0.1181, 0.2435 0.3249 0.1181, 0.2397 0.3229 0.1181, 0.238 0.3244 0.1181, 0.2371 0.3249 0.1181, 0.236 0.3255 0.1181, 0.2337 0.326 0.1181, 0.2325 0.3261 0.1181, 0.2303 0.3258 0.1181, 0.2282 0.325 0.1181, 0.228 0.3249 0.1181, 0.2262 0.3237 0.1181, 0.2247 0.3219 0.1181, 0.2236 0.3198 0.1181, 0.2179 0.3286 0.1181, 0.2216 0.3211 0.1181, 0.2199 0.3229 0.1181, 0.2187 0.3248 0.1181, 0.2187 0.3249 0.1181, 0.218 0.3271 0.1181, 0.2182 0.3309 0.1181, 0.219 0.333 0.1181, 0.22 0.3344 0.1181, 0.2203 0.3349 0.1181, 0.222 0.3363 0.1181, 0.2241 0.3374 0.1181, 0.2264 0.338 0.1181, 0.2274 0.338 0.1181, 0.2297 0.3378 0.1181, 0.2318 0.337 0.1181, 0.2324 0.3366 0.1181, 0.2339 0.3396 0.1181, 0.236 0.3422 0.1181, 0.2386 0.344 0.1181, 0.2417 0.3453 0.1181, 0.2452 0.3457 0.1181, 0.2584 0.3339 0.1181, 0.2583 0.3344 0.1181, 0.2579 0.3365 0.1181, 0.2564 0.3396 0.1181, 0.2542 0.3421 0.1181, 0.254 0.3423 0.1181, 0.2514 0.3442 0.1181, 0.2484 0.3453 0.1181, 0.2592 0.3339 0.1181, 0.261 0.3337 0.1181, 0.2627 0.333 0.1181, 0.2641 0.332 0.1181, 0.2652 0.3308 0.1181, 0.2661 0.3291 0.1181, 0.2666 0.3273 0.1181, 0.2666 0.3265 0.1181, 0.2664 0.3249 0.1181, 0.2664 0.3246 0.1181, 0.2657 0.3229 0.1181, 0.2647 0.3215 0.1181, 0.2646 0.3213 0.1181, 0.2632 0.3202 0.1181, 0.2615 0.3194 0.1181, 0.2598 0.3191 0.1181, 0.2555 0.3191 0.1181, 0.2553 0.3191 0.1181, 0.255 0.3192 0.1181, 0.2549 0.3192 0.1181, 0.2542 0.3191 0.1181, 0.2535 0.3188 0.1181, 0.253 0.3184 0.1181, 0.2526 0.318 0.1181, 0.2522 0.3173 0.1181, 0.252 0.3166 0.1181, 0.252 0.3162 0.1181, 0.2521 0.3155 0.1181, 0.2523 0.3149 0.1181, 0.2527 0.3143 0.1181, 0.253 0.3141 0.1181, 0.2536 0.3136 0.1181, 0.2542 0.3134 0.1181, 0.2547 0.3133 0.1181, 0.2603 0.3133 0.1181, 0.2635 0.314 0.1181, 0.2664 0.3154 0.1181, 0.269 0.3176 0.1181, 0.2723 0.3249 0.1181, 0.2721 0.3232 0.1181, 0.2709 0.3202 0.1181, 0.2324 0.3201 0.1181, 0.2332 0.32 0.1181, 0.2341 0.3197 0.1181, 0.2349 0.3192 0.1181, 0.2355 0.3185 0.1181, 0.2359 0.3177 0.1181, 0.2361 0.3169 0.1181, 0.2361 0.316 0.1181, 0.2359 0.3151 0.1181, 0.2355 0.3143 0.1181, 0.2349 0.3137 0.1181, 0.2342 0.3132 0.1181, 0.2334 0.3128 0.1181, 0.2324 0.3127 0.1181, 0.2323 0.3127 0.1181, 0.2314 0.3129 0.1181, 0.2306 0.3132 0.1181, 0.2298 0.3138 0.1181, 0.2293 0.3145 0.1181, 0.2289 0.3153 0.1181, 0.2288 0.3161 0.1181, 0.2288 0.3171 0.1181, 0.2291 0.318 0.1181, 0.2296 0.3187 0.1181, 0.2299 0.3191 0.1181, 0.2307 0.3197 0.1181, 0.2315 0.32 0.1181, 0.2315 0.32 0.1181
            ]
        }
        coordIndex [
            0,1,2,-1,3,4,5,-1,5,4,6,-1,7,8,9,-1,10,11,12,-1,13,14,15,-1,12,16,10,-1,10,16,17,-1,10,17,18,-1,19,20,2,-1,2,20,21,-1,2,21,0,-1,9,8,22,-1,6,4,18,-1,18,4,23,-1,18,23,10,-1,3,5,24,-1,24,5,25,-1,24,25,26,-1,27,28,29,-1,29,28,30,-1,29,30,31,-1,31,30,32,-1,31,32,33,-1,33,32,34,-1,33,34,35,-1,35,34,2,-1,35,2,36,-1,36,2,37,-1,38,39,27,-1,27,39,40,-1,27,40,28,-1,41,42,43,-1,43,42,44,-1,43,44,45,-1,45,44,46,-1,45,46,47,-1,47,46,48,-1,13,15,49,-1,49,15,50,-1,49,50,51,-1,51,50,52,-1,51,52,53,-1,8,54,22,-1,22,54,55,-1,22,55,56,-1,56,55,57,-1,56,57,13,-1,13,57,58,-1,13,58,14,-1,59,60,61,-1,61,60,62,-1,61,62,63,-1,63,62,64,-1,63,64,65,-1,65,64,66,-1,65,66,67,-1,67,66,68,-1,67,68,69,-1,11,10,27,-1,27,10,70,-1,27,70,38,-1,46,71,48,-1,48,71,72,-1,48,72,73,-1,73,72,74,-1,73,74,75,-1,75,74,76,-1,75,76,77,-1,77,76,78,-1,77,78,79,-1,79,78,80,-1,79,80,81,-1,81,80,82,-1,81,82,59,-1,59,82,83,-1,59,83,60,-1,84,85,86,-1,86,85,87,-1,86,87,43,-1,43,87,88,-1,43,88,41,-1,89,90,91,-1,91,90,92,-1,91,92,93,-1,93,92,94,-1,93,94,95,-1,95,94,96,-1,95,96,97,-1,97,96,98,-1,97,98,19,-1,19,98,99,-1,19,99,20,-1,37,2,100,-1,100,2,1,-1,100,1,101,-1,53,52,102,-1,102,52,103,-1,102,103,104,-1,104,103,105,-1,104,105,106,-1,106,105,107,-1,106,107,108,-1,108,107,109,-1,108,109,84,-1,84,109,110,-1,84,110,85,-1,9,111,7,-1,7,111,112,-1,7,112,113,-1,113,112,114,-1,113,114,115,-1,115,114,116,-1,115,116,89,-1,89,116,117,-1,89,117,90,-1,26,25,118,-1,118,25,119,-1,118,119,120,-1,120,119,121,-1,120,121,122,-1,122,121,123,-1,122,123,124,-1,124,123,125,-1,124,125,126,-1,126,125,127,-1,126,127,128,-1,128,127,129,-1,128,129,130,-1,130,129,131,-1,130,131,132,-1,132,131,133,-1,132,133,134,-1,134,133,135,-1,134,135,1,-1,1,135,136,-1,1,136,101,-1,137,138,139,-1,68,140,69,-1,69,140,137,-1,69,137,141,-1,141,137,139,-1,142,143,137,-1,137,143,144,-1,137,144,138,-1,145,146,147,-1,146,148,147,-1,147,148,149,-1,147,149,150,-1,142,137,147,-1,147,137,151,-1,147,151,145,-1,77,152,153,-1,77,153,75,-1,75,153,154,-1,75,154,73,-1,73,154,155,-1,73,155,48,-1,155,156,48,-1,48,156,157,-1,48,157,47,-1,47,157,158,-1,47,158,45,-1,45,158,159,-1,45,159,43,-1,43,159,160,-1,43,160,86,-1,86,160,161,-1,86,161,84,-1,84,161,108,-1,108,161,162,-1,162,163,108,-1,108,163,164,-1,108,164,106,-1,106,164,165,-1,106,165,104,-1,166,51,167,-1,167,51,53,-1,167,53,168,-1,168,53,102,-1,168,102,169,-1,169,102,104,-1,169,104,165,-1,51,166,170,-1,51,170,49,-1,49,170,171,-1,49,171,13,-1,13,171,172,-1,13,172,56,-1,56,172,173,-1,56,173,22,-1,22,173,174,-1,22,174,9,-1,9,174,175,-1,9,175,111,-1,111,175,176,-1,111,176,112,-1,112,176,177,-1,112,177,114,-1,114,177,178,-1,114,178,116,-1,116,178,179,-1,116,179,117,-1,179,180,117,-1,117,180,181,-1,117,181,90,-1,90,181,182,-1,90,182,92,-1,182,183,92,-1,92,183,94,-1,183,184,94,-1,94,184,185,-1,94,185,96,-1,96,185,186,-1,96,186,98,-1,98,186,187,-1,98,187,99,-1,99,187,188,-1,99,188,20,-1,20,188,189,-1,20,189,21,-1,21,189,190,-1,21,190,0,-1,190,191,0,-1,0,191,192,-1,0,192,1,-1,1,192,193,-1,1,193,134,-1,134,193,194,-1,134,194,132,-1,194,195,132,-1,132,195,196,-1,132,196,130,-1,130,196,197,-1,130,197,128,-1,198,24,26,-1,128,197,199,-1,128,199,126,-1,126,199,200,-1,126,200,124,-1,200,201,124,-1,124,201,202,-1,124,202,122,-1,122,202,203,-1,122,203,120,-1,120,203,204,-1,120,204,118,-1,118,204,205,-1,118,205,26,-1,26,205,206,-1,26,206,198,-1,3,24,207,-1,207,24,198,-1,4,3,208,-1,208,3,207,-1,209,23,210,-1,210,23,4,-1,210,4,208,-1,23,209,10,-1,10,209,211,-1,10,211,212,-1,10,212,213,-1,10,213,70,-1,70,213,214,-1,70,214,38,-1,214,215,38,-1,38,215,216,-1,38,216,39,-1,39,216,217,-1,39,217,40,-1,40,217,218,-1,40,218,28,-1,28,218,219,-1,28,219,30,-1,30,219,220,-1,30,220,32,-1,220,221,32,-1,32,221,222,-1,32,222,34,-1,34,222,223,-1,34,223,2,-1,224,91,93,-1,2,223,225,-1,2,225,19,-1,19,225,226,-1,19,226,97,-1,97,226,227,-1,97,227,95,-1,95,227,228,-1,95,228,93,-1,93,228,229,-1,93,229,224,-1,91,224,230,-1,91,230,89,-1,89,230,231,-1,89,231,115,-1,115,231,232,-1,115,232,113,-1,232,233,113,-1,113,233,234,-1,113,234,7,-1,7,234,235,-1,7,235,8,-1,8,235,236,-1,8,236,54,-1,54,236,237,-1,54,237,55,-1,55,237,238,-1,55,238,57,-1,57,238,239,-1,57,239,58,-1,58,239,240,-1,58,240,14,-1,14,240,241,-1,14,241,15,-1,15,241,242,-1,15,242,50,-1,50,242,243,-1,50,243,52,-1,52,243,244,-1,52,244,103,-1,103,244,245,-1,103,245,105,-1,246,41,247,-1,247,41,88,-1,247,88,248,-1,248,88,87,-1,248,87,249,-1,249,87,85,-1,249,85,250,-1,250,85,110,-1,250,110,251,-1,251,110,109,-1,251,109,252,-1,252,109,107,-1,252,107,253,-1,253,107,105,-1,253,105,245,-1,42,41,254,-1,254,41,246,-1,42,254,255,-1,42,255,44,-1,44,255,256,-1,44,256,46,-1,46,256,257,-1,46,257,71,-1,71,257,258,-1,71,258,72,-1,72,258,259,-1,72,259,74,-1,74,259,260,-1,74,260,76,-1,76,260,261,-1,76,261,78,-1,261,262,78,-1,78,262,80,-1,262,263,80,-1,80,263,264,-1,80,264,82,-1,82,264,265,-1,82,265,83,-1,83,265,266,-1,83,266,60,-1,60,266,267,-1,60,267,62,-1,62,267,268,-1,62,268,64,-1,64,268,269,-1,64,269,66,-1,68,66,270,-1,270,66,269,-1,68,270,271,-1,68,271,140,-1,140,271,272,-1,140,272,137,-1,137,272,273,-1,137,273,151,-1,151,273,274,-1,151,274,145,-1,145,274,275,-1,145,275,146,-1,146,275,276,-1,146,276,148,-1,148,276,277,-1,148,277,149,-1,149,277,278,-1,149,278,150,-1,150,278,279,-1,150,279,147,-1,147,279,280,-1,147,280,142,-1,142,280,281,-1,142,281,143,-1,143,281,282,-1,143,282,144,-1,144,282,283,-1,144,283,138,-1,138,283,284,-1,138,284,139,-1,139,284,285,-1,139,285,141,-1,141,285,286,-1,141,286,69,-1,69,286,287,-1,69,287,67,-1,65,67,288,-1,288,67,287,-1,65,288,289,-1,65,289,63,-1,63,289,290,-1,63,290,61,-1,61,290,291,-1,61,291,59,-1,152,77,292,-1,292,77,79,-1,292,79,293,-1,293,79,81,-1,293,81,294,-1,294,81,59,-1,294,59,291,-1,11,295,296,-1,11,296,12,-1,12,296,297,-1,12,297,16,-1,16,297,298,-1,16,298,17,-1,17,298,299,-1,17,299,18,-1,18,299,300,-1,18,300,6,-1,6,300,301,-1,6,301,5,-1,5,301,302,-1,5,302,25,-1,25,302,303,-1,25,303,119,-1,119,303,304,-1,119,304,121,-1,121,304,305,-1,121,305,123,-1,123,305,306,-1,123,306,125,-1,125,306,307,-1,125,307,127,-1,127,307,308,-1,127,308,129,-1,129,308,309,-1,129,309,131,-1,131,309,310,-1,131,310,133,-1,133,310,311,-1,133,311,135,-1,135,311,312,-1,135,312,136,-1,136,312,313,-1,136,313,101,-1,101,313,314,-1,101,314,100,-1,100,314,315,-1,100,315,37,-1,37,315,316,-1,37,316,36,-1,36,316,317,-1,36,317,35,-1,35,317,318,-1,35,318,33,-1,33,318,319,-1,33,319,31,-1,31,319,320,-1,31,320,29,-1,29,320,321,-1,29,321,27,-1,27,321,295,-1,27,295,11,-1,
        ]
    }
}
Shape{
    appearance Appearance {
        material  Material 	{
            diffuseColor 0.25098039215686274 0.25098039215686274 0.25098039215686274
            specularColor 0.12549019607843137 0.12549019607843137 0.12549019607843137
            ambientIntensity 0.2
            transparency 0
            shininess 0.5
        }
    }
    geometry IndexedFaceSet {
        ccw TRUE
        solid FALSE
        coord DEF co Coordinate {
            point [
                0.2323 0.3127 0.1181, 0.2299 0.3191 0.1181, 0.2296 0.3187 0.1181, 0.2334 0.3128 0.1181, 0.2342 0.3132 0.1181, 0.2332 0.32 0.1181, 0.2324 0.3201 0.1181, 0.2315 0.32 0.1181, 0.2307 0.3197 0.1181, 0.2289 0.3153 0.1181, 0.2293 0.3145 0.1181, 0.2298 0.3138 0.1181, 0.2324 0.3127 0.1181, 0.2291 0.318 0.1181, 0.2288 0.3171 0.1181, 0.2288 0.3161 0.1181, 0.2306 0.3132 0.1181, 0.2314 0.3129 0.1181, 0.2349 0.3137 0.1181, 0.2355 0.3143 0.1181, 0.2359 0.3151 0.1181, 0.2361 0.316 0.1181, 0.2361 0.3169 0.1181, 0.2359 0.3177 0.1181, 0.2355 0.3185 0.1181, 0.2349 0.3192 0.1181, 0.2341 0.3197 0.1181, 0.2341 0.3197 0.1181
            ]
        }
        coordIndex [
            0,1,2,-1,3,4,5,-1,6,7,0,-1,0,7,8,-1,0,8,1,-1,9,10,2,-1,2,10,11,-1,6,0,5,-1,5,0,12,-1,5,12,3,-1,13,14,2,-1,2,14,15,-1,2,15,9,-1,11,16,2,-1,2,16,17,-1,2,17,0,-1,4,18,5,-1,5,18,19,-1,5,19,20,-1,20,21,5,-1,5,21,22,-1,5,22,23,-1,23,24,5,-1,5,24,25,-1,5,25,26,-1,
        ]
    }
}