M48
; DRILL file KiCad 10.0.1 date 2026-09-30T17:28:52
; FORMAT={-:-/ absolute / metric / decimal}
; #@! TF.CreationDate,2026-09-30T17:28:52+03:00
; #@! TF.GenerationSoftware,Kicad,Pcbnew,10.0.1
; #@! TF.FileFunction,Plated,1,2,PTH
FMAT,2
METRIC
; #@! TA.AperFunction,Plated,PTH,ViaDrill
T1C0.300
; #@! TA.AperFunction,Plated,PTH,ComponentDrill
T2C0.800
; #@! TA.AperFunction,Plated,PTH,ComponentDrill
T3C1.000
%
G90
G05
T1
X182.75Y-52.75
X182.75Y-71.5
X209.5Y-70.5
T2
X117.996Y-91.197
X117.996Y-93.737
X117.996Y-96.277
X118.0Y-42.94
X118.0Y-45.48
X118.0Y-48.02
X118.0Y-50.56
X118.0Y-53.1
X118.0Y-55.64
X118.0Y-58.18
X118.0Y-60.72
X118.0Y-63.26
X118.0Y-65.8
X118.0Y-68.34
X118.0Y-70.88
X118.0Y-73.42
X118.0Y-75.96
X118.0Y-78.5
X118.0Y-81.04
X118.0Y-83.58
X118.0Y-86.12
X118.0Y-88.66
X140.86Y-42.94
X140.86Y-45.48
X140.86Y-48.02
X140.86Y-50.56
X140.86Y-53.1
X140.86Y-55.64
X140.86Y-58.18
X140.86Y-60.72
X140.86Y-63.26
X140.86Y-65.8
X140.86Y-68.34
X140.86Y-70.88
X140.86Y-73.42
X140.86Y-75.96
X140.86Y-78.5
X140.86Y-81.04
X140.86Y-83.58
X140.86Y-86.12
X140.86Y-88.66
X140.86Y-91.2
X140.86Y-93.74
X140.86Y-96.28
T3
X153.42Y-80.0
X155.96Y-80.0
X158.5Y-80.0
X161.04Y-80.0
X163.58Y-80.0
X166.12Y-80.0
X168.66Y-80.0
X171.2Y-80.0
X173.74Y-80.0
X176.28Y-80.0
M30
